<?xml version="1.0" encoding="utf-8" standalone="no"?>
<!DOCTYPE svg PUBLIC "-//W3C//DTD SVG 1.1//EN"
  "http://www.w3.org/Graphics/SVG/1.1/DTD/svg11.dtd">
<!-- Created with matplotlib (http://matplotlib.org/) -->
<svg height="175pt" version="1.1" viewBox="0 0 283 175" width="283pt" xmlns="http://www.w3.org/2000/svg" xmlns:xlink="http://www.w3.org/1999/xlink">
 <defs>
  <style type="text/css">
*{stroke-linecap:butt;stroke-linejoin:round;}
  </style>
 </defs>
 <g id="figure_1">
  <g id="patch_1">
   <path d="M 0 175.190737 
L 283.464567 175.190737 
L 283.464567 0 
L 0 0 
z
" style="fill:#ffffff;"/>
  </g>
  <g id="axes_1">
   <g id="patch_2">
    <path d="M 35.433071 155.919756 
L 255.11811 155.919756 
L 255.11811 21.022888 
L 35.433071 21.022888 
z
" style="fill:#ffffff;"/>
   </g>
   <g id="PolyCollection_1">
    <path clip-path="url(#p1fb410ca7f)" d="M -729.92126 144.118207 
L -729.92126 155.919756 
L -726.377953 155.919756 
L -722.834646 155.919756 
L -719.291339 155.919756 
L -715.748031 155.919756 
L -712.204724 155.919756 
L -708.661417 155.919756 
L -705.11811 155.919756 
L -701.574803 155.919756 
L -698.031496 155.919756 
L -694.488189 155.919756 
L -690.944882 155.919756 
L -687.401575 155.919756 
L -683.858268 155.919756 
L -680.314961 155.919756 
L -676.771654 155.919756 
L -673.228346 155.919756 
L -669.685039 155.919756 
L -666.141732 155.919756 
L -662.598425 155.919756 
L -659.055118 155.919756 
L -655.511811 155.919756 
L -651.968504 155.919756 
L -648.425197 155.919756 
L -644.88189 155.919756 
L -641.338583 155.919756 
L -637.795276 155.919756 
L -634.251969 155.919756 
L -630.708661 155.919756 
L -627.165354 155.919756 
L -623.622047 155.919756 
L -620.07874 155.919756 
L -616.535433 155.919756 
L -612.992126 155.919756 
L -609.448819 155.919756 
L -605.905512 155.919756 
L -602.362205 155.919756 
L -598.818898 155.919756 
L -595.275591 155.919756 
L -591.732283 155.919756 
L -588.188976 155.919756 
L -584.645669 155.919756 
L -581.102362 155.919756 
L -577.559055 155.919756 
L -574.015748 155.919756 
L -570.472441 155.919756 
L -566.929134 155.919756 
L -563.385827 155.919756 
L -559.84252 155.919756 
L -556.299213 155.919756 
L -552.755906 155.919756 
L -549.212598 155.919756 
L -545.669291 155.919756 
L -542.125984 155.919756 
L -538.582677 155.919756 
L -535.03937 155.919756 
L -531.496063 155.919756 
L -527.952756 155.919756 
L -524.409449 155.919756 
L -520.866142 155.919756 
L -517.322835 155.919756 
L -513.779528 155.919756 
L -510.23622 155.919756 
L -506.692913 155.919756 
L -503.149606 155.919756 
L -499.606299 155.919756 
L -496.062992 155.919756 
L -492.519685 155.919756 
L -488.976378 155.919756 
L -485.433071 155.919756 
L -481.889764 155.919756 
L -478.346457 155.919756 
L -474.80315 155.919756 
L -471.259843 155.919756 
L -467.716535 155.919756 
L -464.173228 155.919756 
L -460.629921 155.919756 
L -457.086614 155.919756 
L -453.543307 155.919756 
L -450 155.919756 
L -446.456693 155.919756 
L -442.913386 155.919756 
L -439.370079 155.919756 
L -435.826772 155.919756 
L -432.283465 155.919756 
L -428.740157 155.919756 
L -425.19685 155.919756 
L -421.653543 155.919756 
L -418.110236 155.919756 
L -414.566929 155.919756 
L -411.023622 155.919756 
L -407.480315 155.919756 
L -403.937008 155.919756 
L -400.393701 155.919756 
L -396.850394 155.919756 
L -393.307087 155.919756 
L -389.76378 155.919756 
L -386.220472 155.919756 
L -382.677165 155.919756 
L -379.133858 155.919756 
L -375.590551 155.919756 
L -372.047244 155.919756 
L -368.503937 155.919756 
L -364.96063 155.919756 
L -361.417323 155.919756 
L -357.874016 155.919756 
L -354.330709 155.919756 
L -350.787402 155.919756 
L -347.244094 155.919756 
L -343.700787 155.919756 
L -340.15748 155.919756 
L -336.614173 155.919756 
L -333.070866 155.919756 
L -329.527559 155.919756 
L -325.984252 155.919756 
L -322.440945 155.919756 
L -318.897638 155.919756 
L -315.354331 155.919756 
L -311.811024 155.919756 
L -308.267717 155.919756 
L -304.724409 155.919756 
L -301.181102 155.919756 
L -297.637795 155.919756 
L -294.094488 155.919756 
L -290.551181 155.919756 
L -287.007874 155.919756 
L -283.464567 155.919756 
L -279.92126 155.919756 
L -276.377953 155.919756 
L -272.834646 155.919756 
L -269.291339 155.919756 
L -265.748031 155.919756 
L -262.204724 155.919756 
L -258.661417 155.919756 
L -255.11811 155.919756 
L -251.574803 155.919756 
L -248.031496 155.919756 
L -244.488189 155.919756 
L -240.944882 155.919756 
L -237.401575 155.919756 
L -233.858268 155.919756 
L -230.314961 155.919756 
L -226.771654 155.919756 
L -223.228346 155.919756 
L -219.685039 155.919756 
L -216.141732 155.919756 
L -212.598425 155.919756 
L -209.055118 155.919756 
L -205.511811 155.919756 
L -201.968504 155.919756 
L -198.425197 155.919756 
L -194.88189 155.919756 
L -191.338583 155.919756 
L -187.795276 155.919756 
L -184.251969 155.919756 
L -180.708661 155.919756 
L -177.165354 155.919756 
L -173.622047 155.919756 
L -170.07874 155.919756 
L -166.535433 155.919756 
L -162.992126 155.919756 
L -159.448819 155.919756 
L -155.905512 155.919756 
L -152.362205 155.919756 
L -148.818898 155.919756 
L -145.275591 155.919756 
L -141.732283 155.919756 
L -138.188976 155.919756 
L -134.645669 155.919756 
L -131.102362 155.919756 
L -127.559055 155.919756 
L -124.015748 155.919756 
L -120.472441 155.919756 
L -116.929134 155.919756 
L -113.385827 155.919756 
L -109.84252 155.919756 
L -106.299213 155.919756 
L -102.755906 155.919756 
L -99.212598 155.919756 
L -95.669291 155.919756 
L -92.125984 155.919756 
L -88.582677 155.919756 
L -85.03937 155.919756 
L -81.496063 155.919756 
L -77.952756 155.919756 
L -74.409449 155.919756 
L -70.866142 155.919756 
L -67.322835 155.919756 
L -63.779528 155.919756 
L -60.23622 155.919756 
L -56.692913 155.919756 
L -53.149606 155.919756 
L -49.606299 155.919756 
L -46.062992 155.919756 
L -42.519685 155.919756 
L -38.976378 155.919756 
L -35.433071 155.919756 
L -31.889764 155.919756 
L -28.346457 155.919756 
L -24.80315 155.919756 
L -21.259843 155.919756 
L -17.716535 155.919756 
L -14.173228 155.919756 
L -10.629921 155.919756 
L -7.086614 155.919756 
L -3.543307 155.919756 
L 0 155.919756 
L 3.543307 155.919756 
L 7.086614 155.919756 
L 10.629921 155.919756 
L 14.173228 155.919756 
L 17.716535 155.919756 
L 21.259843 155.919756 
L 24.80315 155.919756 
L 28.346457 155.919756 
L 31.889764 155.919756 
L 35.433071 155.919756 
L 38.976378 155.919756 
L 42.519685 155.919756 
L 46.062992 155.919756 
L 49.606299 155.919756 
L 53.149606 155.919756 
L 56.692913 155.919756 
L 60.23622 155.919756 
L 63.779528 155.919756 
L 67.322835 155.919756 
L 70.866142 155.919756 
L 74.409449 155.919756 
L 77.952756 155.919756 
L 81.496063 155.919756 
L 85.03937 155.919756 
L 88.582677 155.919756 
L 92.125984 155.919756 
L 95.669291 155.919756 
L 99.212598 155.919756 
L 102.755906 155.919756 
L 106.299213 155.919756 
L 109.84252 155.919756 
L 113.385827 155.919756 
L 116.929134 155.919756 
L 120.472441 155.919756 
L 124.015748 155.919756 
L 127.559055 155.919756 
L 131.102362 155.919756 
L 134.645669 155.919756 
L 138.188976 155.919756 
L 141.732283 155.919756 
L 145.275591 155.919756 
L 148.818898 155.919756 
L 152.362205 155.919756 
L 155.905512 155.919756 
L 159.448819 155.919756 
L 162.992126 155.919756 
L 166.535433 155.919756 
L 170.07874 155.919756 
L 173.622047 155.919756 
L 177.165354 155.919756 
L 180.708661 155.919756 
L 184.251969 155.919756 
L 187.795276 155.919756 
L 191.338583 155.919756 
L 194.88189 155.919756 
L 198.425197 155.919756 
L 201.968504 155.919756 
L 205.511811 155.919756 
L 209.055118 155.919756 
L 212.598425 155.919756 
L 216.141732 155.919756 
L 219.685039 155.919756 
L 223.228346 155.919756 
L 226.771654 155.919756 
L 230.314961 155.919756 
L 233.858268 155.919756 
L 237.401575 155.919756 
L 240.944882 155.919756 
L 244.488189 155.919756 
L 248.031496 155.919756 
L 251.574803 155.919756 
L 255.11811 155.919756 
L 258.661417 155.919756 
L 262.204724 155.919756 
L 265.748031 155.919756 
L 265.748031 120.915946 
L 265.748031 120.915946 
L 262.204724 120.594121 
L 258.661417 119.902292 
L 255.11811 121.785067 
L 251.574803 120.725163 
L 248.031496 119.63828 
L 244.488189 117.487638 
L 240.944882 116.687893 
L 237.401575 119.719218 
L 233.858268 124.113002 
L 230.314961 122.596375 
L 226.771654 126.003485 
L 223.228346 125.566034 
L 219.685039 128.978924 
L 216.141732 134.781417 
L 212.598425 131.416703 
L 209.055118 126.566198 
L 205.511811 128.693714 
L 201.968504 128.477879 
L 198.425197 126.616302 
L 194.88189 123.029973 
L 191.338583 126.81672 
L 187.795276 125.045717 
L 184.251969 130.711386 
L 180.708661 126.284841 
L 177.165354 125.307802 
L 173.622047 127.171306 
L 170.07874 128.68986 
L 166.535433 132.463118 
L 162.992126 138.44483 
L 159.448819 138.664519 
L 155.905512 142.888719 
L 152.362205 141.09459 
L 148.818898 141.056048 
L 145.275591 137.051538 
L 141.732283 138.932386 
L 138.188976 137.228831 
L 134.645669 136.748984 
L 131.102362 134.592561 
L 127.559055 134.619541 
L 124.015748 130.370289 
L 120.472441 124.53889 
L 116.929134 117.109927 
L 113.385827 114.968921 
L 109.84252 107.96392 
L 106.299213 104.718686 
L 102.755906 106.146666 
L 99.212598 100.511831 
L 95.669291 98.71963 
L 92.125984 97.021856 
L 88.582677 96.081433 
L 85.03937 96.256799 
L 81.496063 97.337901 
L 77.952756 104.967282 
L 74.409449 102.084343 
L 70.866142 99.567553 
L 67.322835 99.384479 
L 63.779528 95.709503 
L 60.23622 95.524501 
L 56.692913 93.283286 
L 53.149606 90.032272 
L 49.606299 89.525445 
L 46.062992 91.205874 
L 42.519685 89.294193 
L 38.976378 90.155606 
L 35.433071 92.64349 
L 31.889764 92.88245 
L 28.346457 90.456233 
L 24.80315 84.148841 
L 21.259843 83.208417 
L 17.716535 75.931695 
L 14.173228 94.66887 
L 10.629921 98.89885 
L 7.086614 106.474273 
L 3.543307 115.136579 
L 0 129.780597 
L -3.543307 125.28275 
L -7.086614 123.673623 
L -10.629921 124.87806 
L -14.173228 129.728566 
L -17.716535 132.524785 
L -21.259843 133.615522 
L -24.80315 129.917421 
L -28.346457 130.537947 
L -31.889764 126.340727 
L -35.433071 126.406248 
L -38.976378 120.792612 
L -42.519685 124.413629 
L -46.062992 118.187175 
L -49.606299 119.239371 
L -53.149606 109.226169 
L -56.692913 110.469147 
L -60.23622 103.558573 
L -63.779528 97.744518 
L -67.322835 97.289723 
L -70.866142 90.568005 
L -74.409449 87.13777 
L -77.952756 110.314979 
L -81.496063 118.823117 
L -85.03937 99.513594 
L -88.582677 105.410515 
L -92.125984 106.682399 
L -95.669291 100.35959 
L -99.212598 100.319121 
L -102.755906 100.523394 
L -106.299213 98.037437 
L -109.84252 99.49625 
L -113.385827 95.769243 
L -116.929134 101.344338 
L -120.472441 102.043874 
L -124.015748 97.29165 
L -127.559055 100.899178 
L -131.102362 95.701794 
L -134.645669 94.979132 
L -138.188976 88.810491 
L -141.732283 91.396657 
L -145.275591 96.403258 
L -148.818898 99.970317 
L -152.362205 92.907502 
L -155.905512 95.293249 
L -159.448819 95.884869 
L -162.992126 96.688468 
L -166.535433 105.555047 
L -170.07874 101.409859 
L -173.622047 110.218624 
L -177.165354 105.275618 
L -180.708661 108.154702 
L -184.251969 110.486491 
L -187.795276 105.95781 
L -191.338583 98.255199 
L -194.88189 100.762354 
L -198.425197 99.559845 
L -201.968504 100.13412 
L -205.511811 104.090452 
L -209.055118 111.64275 
L -212.598425 107.622823 
L -216.141732 101.479234 
L -219.685039 93.53959 
L -223.228346 99.810367 
L -226.771654 102.992006 
L -230.314961 111.1841 
L -233.858268 111.625406 
L -237.401575 112.455985 
L -240.944882 112.039732 
L -244.488189 110.950922 
L -248.031496 114.082456 
L -251.574803 112.662185 
L -255.11811 116.743778 
L -258.661417 118.719054 
L -262.204724 117.543524 
L -265.748031 107.626677 
L -269.291339 106.059947 
L -272.834646 110.698472 
L -276.377953 111.926033 
L -279.92126 117.979048 
L -283.464567 121.129854 
L -287.007874 106.439585 
L -290.551181 102.311741 
L -294.094488 104.128994 
L -297.637795 109.320597 
L -301.181102 111.685146 
L -304.724409 109.522942 
L -308.267717 104.786135 
L -311.811024 118.056132 
L -315.354331 119.971668 
L -318.897638 115.822626 
L -322.440945 119.090984 
L -325.984252 119.522654 
L -329.527559 131.56509 
L -333.070866 128.707204 
L -336.614173 121.923818 
L -340.15748 119.503383 
L -343.700787 123.783468 
L -347.244094 125.604576 
L -350.787402 124.683423 
L -354.330709 125.619992 
L -357.874016 136.735494 
L -361.417323 143.915862 
L -364.96063 135.652465 
L -368.503937 137.373364 
L -372.047244 132.345565 
L -375.590551 125.80114 
L -379.133858 134.94522 
L -382.677165 132.675099 
L -386.220472 130.586124 
L -389.76378 131.401287 
L -393.307087 128.659026 
L -396.850394 125.427283 
L -400.393701 129.807577 
L -403.937008 126.730001 
L -407.480315 122.39403 
L -411.023622 121.896839 
L -414.566929 128.156053 
L -418.110236 124.282586 
L -421.653543 130.004141 
L -425.19685 128.865226 
L -428.740157 129.000122 
L -432.283465 133.415104 
L -435.826772 134.555946 
L -439.370079 129.30075 
L -442.913386 127.99225 
L -446.456693 137.232686 
L -450 152.545407 
L -453.543307 161.841728 
L -457.086614 141.641886 
L -460.629921 152.140717 
L -464.173228 155.815693 
L -467.716535 179.650042 
L -471.259843 152.9289 
L -474.80315 143.43216 
L -478.346457 139.653121 
L -481.889764 139.841976 
L -485.433071 149.325226 
L -488.976378 148.729753 
L -492.519685 152.558897 
L -496.062992 154.405057 
L -499.606299 148.490793 
L -503.149606 136.290335 
L -506.692913 139.674319 
L -510.23622 138.88999 
L -513.779528 139.458484 
L -517.322835 140.042395 
L -520.866142 135.357619 
L -524.409449 137.011069 
L -527.952756 139.18869 
L -531.496063 140.898026 
L -535.03937 141.996472 
L -538.582677 155.823401 
L -542.125984 149.038089 
L -545.669291 146.21489 
L -549.212598 146.640779 
L -552.755906 162.639547 
L -556.299213 146.189838 
L -559.84252 151.685921 
L -563.385827 143.622943 
L -566.929134 140.499117 
L -570.472441 145.921971 
L -574.015748 149.957314 
L -577.559055 139.770674 
L -581.102362 141.127351 
L -584.645669 143.100699 
L -588.188976 141.483864 
L -591.732283 152.406656 
L -595.275591 190.520802 
L -598.818898 154.561152 
L -602.362205 144.07003 
L -605.905512 144.532533 
L -609.448819 142.919552 
L -612.992126 144.742587 
L -616.535433 141.836523 
L -620.07874 151.371804 
L -623.622047 151.497066 
L -627.165354 147.771985 
L -630.708661 161.780061 
L -634.251969 142.611216 
L -637.795276 141.749804 
L -641.338583 140.29099 
L -644.88189 148.83767 
L -648.425197 144.364876 
L -651.968504 140.132968 
L -655.511811 144.677066 
L -659.055118 145.817908 
L -662.598425 142.03116 
L -666.141732 141.938659 
L -669.685039 146.062649 
L -673.228346 146.249578 
L -676.771654 150.718518 
L -680.314961 149.801219 
L -683.858268 156.297467 
L -687.401575 145.183892 
L -690.944882 145.498009 
L -694.488189 139.522078 
L -698.031496 146.324734 
L -701.574803 156.669397 
L -705.11811 187.655208 
L -708.661417 173.121034 
L -712.204724 151.310137 
L -715.748031 146.648487 
L -719.291339 150.115336 
L -722.834646 149.130589 
L -726.377953 144.253104 
L -729.92126 144.118207 
z
" style="fill:#ffa500;fill-opacity:0.5;stroke:#ffa500;stroke-opacity:0.5;"/>
   </g>
   <g id="PolyCollection_2">
    <defs>
     <path d="M 35.433071 -74.596041 
L 35.433071 -82.547247 
L 38.976378 -85.035131 
L 42.519685 -85.896544 
L 46.062992 -83.984863 
L 49.606299 -85.665292 
L 53.149606 -85.158465 
L 56.692913 -81.907451 
L 60.23622 -79.666236 
L 63.779528 -79.481234 
L 67.322835 -75.806258 
L 70.866142 -75.623184 
L 74.409449 -73.106394 
L 77.952756 -70.223455 
L 81.496063 -77.852836 
L 85.03937 -78.933938 
L 88.582677 -79.109304 
L 92.125984 -78.168881 
L 95.669291 -76.471107 
L 99.212598 -74.678906 
L 102.755906 -69.044071 
L 106.299213 -70.472051 
L 109.84252 -67.226817 
L 113.385827 -60.221816 
L 116.929134 -58.08081 
L 120.472441 -50.651847 
L 124.015748 -44.820448 
L 127.559055 -40.571196 
L 131.102362 -40.598176 
L 134.645669 -38.441753 
L 138.188976 -37.961906 
L 141.732283 -36.258351 
L 145.275591 -38.139199 
L 148.818898 -34.134689 
L 152.362205 -34.096147 
L 155.905512 -32.302018 
L 159.448819 -36.526218 
L 162.992126 -36.745907 
L 166.535433 -42.727619 
L 170.07874 -46.500877 
L 173.622047 -48.019431 
L 177.165354 -49.882934 
L 180.708661 -48.905896 
L 184.251969 -44.479351 
L 187.795276 -50.14502 
L 191.338583 -48.374017 
L 194.88189 -52.160764 
L 198.425197 -48.574435 
L 201.968504 -46.712858 
L 205.511811 -46.497023 
L 209.055118 -48.624539 
L 212.598425 -43.774033 
L 216.141732 -40.40932 
L 219.685039 -46.211813 
L 223.228346 -49.624703 
L 226.771654 -49.187252 
L 230.314961 -52.594362 
L 233.858268 -51.077735 
L 237.401575 -55.471519 
L 240.944882 -58.502844 
L 244.488189 -57.703099 
L 248.031496 -55.552457 
L 251.574803 -54.465574 
L 255.11811 -53.40567 
L 258.661417 -55.288445 
L 262.204724 -54.596616 
L 265.748031 -54.274791 
L 265.748031 -104.525801 
L 265.748031 -104.525801 
L 262.204724 -112.027994 
L 258.661417 -128.816873 
L 255.11811 -130.630272 
L 251.574803 -145.700179 
L 248.031496 -146.187735 
L 244.488189 -139.307995 
L 240.944882 -132.960134 
L 237.401575 -139.003514 
L 233.858268 -127.491029 
L 230.314961 -98.31091 
L 226.771654 -84.721014 
L 223.228346 -75.083596 
L 219.685039 -67.959115 
L 216.141732 -73.505303 
L 212.598425 -59.104099 
L 209.055118 -67.294266 
L 205.511811 -83.10996 
L 201.968504 -73.351135 
L 198.425197 -69.194385 
L 194.88189 -63.370694 
L 191.338583 -60.641923 
L 187.795276 -64.474921 
L 184.251969 -69.161624 
L 180.708661 -68.065105 
L 177.165354 -65.386439 
L 173.622047 -51.314768 
L 170.07874 -43.700804 
L 166.535433 -62.274175 
L 162.992126 -63.280121 
L 159.448819 -50.885026 
L 155.905512 -44.303985 
L 152.362205 -41.343963 
L 148.818898 -42.392304 
L 145.275591 -49.200742 
L 141.732283 -46.233011 
L 138.188976 -45.807122 
L 134.645669 -43.733564 
L 131.102362 -48.256464 
L 127.559055 -50.272208 
L 124.015748 -54.24203 
L 120.472441 -59.842178 
L 116.929134 -67.565987 
L 113.385827 -66.858742 
L 109.84252 -75.750372 
L 106.299213 -83.219805 
L 102.755906 -67.176713 
L 99.212598 -78.754718 
L 95.669291 -79.758736 
L 92.125984 -82.711051 
L 88.582677 -77.288197 
L 85.03937 -75.324484 
L 81.496063 -74.272288 
L 77.952756 -71.416329 
L 74.409449 -73.576606 
L 70.866142 -77.195696 
L 67.322835 -65.891338 
L 63.779528 -77.128248 
L 60.23622 -77.536792 
L 56.692913 -81.259946 
L 53.149606 -81.180935 
L 49.606299 -82.506778 
L 46.062992 -81.498906 
L 42.519685 -83.824913 
L 38.976378 -81.496979 
L 35.433071 -74.596041 
z
" id="m797a01736a" style="stroke:#4dbd33;stroke-opacity:0.5;"/>
    </defs>
    <g clip-path="url(#p1fb410ca7f)">
     <use style="fill:#4dbd33;fill-opacity:0.5;stroke:#4dbd33;stroke-opacity:0.5;" x="0" xlink:href="#m797a01736a" y="175.190737"/>
    </g>
   </g>
   <g id="matplotlib.axis_1">
    <g id="xtick_1">
     <g id="line2d_1">
      <path clip-path="url(#p1fb410ca7f)" d="M 67.322835 155.919756 
L 67.322835 21.022888 
" style="fill:none;stroke:#dddddd;stroke-linecap:square;stroke-width:0.8;"/>
     </g>
     <g id="line2d_2">
      <defs>
       <path d="M 0 0 
L 0 3.5 
" id="me18f7fe145" style="stroke:#000000;stroke-width:0.8;"/>
      </defs>
      <g>
       <use style="stroke:#000000;stroke-width:0.8;" x="67.322835" xlink:href="#me18f7fe145" y="155.919756"/>
      </g>
     </g>
     <g id="text_1">
      <!-- 1960 -->
      <defs>
       <path d="M 12.40625 8.296875 
L 28.515625 8.296875 
L 28.515625 63.921875 
L 10.984375 60.40625 
L 10.984375 69.390625 
L 28.421875 72.90625 
L 38.28125 72.90625 
L 38.28125 8.296875 
L 54.390625 8.296875 
L 54.390625 0 
L 12.40625 0 
z
" id="DejaVuSans-31"/>
       <path d="M 10.984375 1.515625 
L 10.984375 10.5 
Q 14.703125 8.734375 18.5 7.8125 
Q 22.3125 6.890625 25.984375 6.890625 
Q 35.75 6.890625 40.890625 13.453125 
Q 46.046875 20.015625 46.78125 33.40625 
Q 43.953125 29.203125 39.59375 26.953125 
Q 35.25 24.703125 29.984375 24.703125 
Q 19.046875 24.703125 12.671875 31.3125 
Q 6.296875 37.9375 6.296875 49.421875 
Q 6.296875 60.640625 12.9375 67.421875 
Q 19.578125 74.21875 30.609375 74.21875 
Q 43.265625 74.21875 49.921875 64.515625 
Q 56.59375 54.828125 56.59375 36.375 
Q 56.59375 19.140625 48.40625 8.859375 
Q 40.234375 -1.421875 26.421875 -1.421875 
Q 22.703125 -1.421875 18.890625 -0.6875 
Q 15.09375 0.046875 10.984375 1.515625 
z
M 30.609375 32.421875 
Q 37.25 32.421875 41.125 36.953125 
Q 45.015625 41.5 45.015625 49.421875 
Q 45.015625 57.28125 41.125 61.84375 
Q 37.25 66.40625 30.609375 66.40625 
Q 23.96875 66.40625 20.09375 61.84375 
Q 16.21875 57.28125 16.21875 49.421875 
Q 16.21875 41.5 20.09375 36.953125 
Q 23.96875 32.421875 30.609375 32.421875 
z
" id="DejaVuSans-39"/>
       <path d="M 33.015625 40.375 
Q 26.375 40.375 22.484375 35.828125 
Q 18.609375 31.296875 18.609375 23.390625 
Q 18.609375 15.53125 22.484375 10.953125 
Q 26.375 6.390625 33.015625 6.390625 
Q 39.65625 6.390625 43.53125 10.953125 
Q 47.40625 15.53125 47.40625 23.390625 
Q 47.40625 31.296875 43.53125 35.828125 
Q 39.65625 40.375 33.015625 40.375 
z
M 52.59375 71.296875 
L 52.59375 62.3125 
Q 48.875 64.0625 45.09375 64.984375 
Q 41.3125 65.921875 37.59375 65.921875 
Q 27.828125 65.921875 22.671875 59.328125 
Q 17.53125 52.734375 16.796875 39.40625 
Q 19.671875 43.65625 24.015625 45.921875 
Q 28.375 48.1875 33.59375 48.1875 
Q 44.578125 48.1875 50.953125 41.515625 
Q 57.328125 34.859375 57.328125 23.390625 
Q 57.328125 12.15625 50.6875 5.359375 
Q 44.046875 -1.421875 33.015625 -1.421875 
Q 20.359375 -1.421875 13.671875 8.265625 
Q 6.984375 17.96875 6.984375 36.375 
Q 6.984375 53.65625 15.1875 63.9375 
Q 23.390625 74.21875 37.203125 74.21875 
Q 40.921875 74.21875 44.703125 73.484375 
Q 48.484375 72.75 52.59375 71.296875 
z
" id="DejaVuSans-36"/>
       <path d="M 31.78125 66.40625 
Q 24.171875 66.40625 20.328125 58.90625 
Q 16.5 51.421875 16.5 36.375 
Q 16.5 21.390625 20.328125 13.890625 
Q 24.171875 6.390625 31.78125 6.390625 
Q 39.453125 6.390625 43.28125 13.890625 
Q 47.125 21.390625 47.125 36.375 
Q 47.125 51.421875 43.28125 58.90625 
Q 39.453125 66.40625 31.78125 66.40625 
z
M 31.78125 74.21875 
Q 44.046875 74.21875 50.515625 64.515625 
Q 56.984375 54.828125 56.984375 36.375 
Q 56.984375 17.96875 50.515625 8.265625 
Q 44.046875 -1.421875 31.78125 -1.421875 
Q 19.53125 -1.421875 13.0625 8.265625 
Q 6.59375 17.96875 6.59375 36.375 
Q 6.59375 54.828125 13.0625 64.515625 
Q 19.53125 74.21875 31.78125 74.21875 
z
" id="DejaVuSans-30"/>
      </defs>
      <g transform="translate(54.597835 170.518193)scale(0.1 -0.1)">
       <use xlink:href="#DejaVuSans-31"/>
       <use x="63.623047" xlink:href="#DejaVuSans-39"/>
       <use x="127.246094" xlink:href="#DejaVuSans-36"/>
       <use x="190.869141" xlink:href="#DejaVuSans-30"/>
      </g>
     </g>
    </g>
    <g id="xtick_2">
     <g id="line2d_3">
      <path clip-path="url(#p1fb410ca7f)" d="M 102.755906 155.919756 
L 102.755906 21.022888 
" style="fill:none;stroke:#dddddd;stroke-linecap:square;stroke-width:0.8;"/>
     </g>
     <g id="line2d_4">
      <g>
       <use style="stroke:#000000;stroke-width:0.8;" x="102.755906" xlink:href="#me18f7fe145" y="155.919756"/>
      </g>
     </g>
     <g id="text_2">
      <!-- 1970 -->
      <defs>
       <path d="M 8.203125 72.90625 
L 55.078125 72.90625 
L 55.078125 68.703125 
L 28.609375 0 
L 18.3125 0 
L 43.21875 64.59375 
L 8.203125 64.59375 
z
" id="DejaVuSans-37"/>
      </defs>
      <g transform="translate(90.030906 170.518193)scale(0.1 -0.1)">
       <use xlink:href="#DejaVuSans-31"/>
       <use x="63.623047" xlink:href="#DejaVuSans-39"/>
       <use x="127.246094" xlink:href="#DejaVuSans-37"/>
       <use x="190.869141" xlink:href="#DejaVuSans-30"/>
      </g>
     </g>
    </g>
    <g id="xtick_3">
     <g id="line2d_5">
      <path clip-path="url(#p1fb410ca7f)" d="M 138.188976 155.919756 
L 138.188976 21.022888 
" style="fill:none;stroke:#dddddd;stroke-linecap:square;stroke-width:0.8;"/>
     </g>
     <g id="line2d_6">
      <g>
       <use style="stroke:#000000;stroke-width:0.8;" x="138.188976" xlink:href="#me18f7fe145" y="155.919756"/>
      </g>
     </g>
     <g id="text_3">
      <!-- 1980 -->
      <defs>
       <path d="M 31.78125 34.625 
Q 24.75 34.625 20.71875 30.859375 
Q 16.703125 27.09375 16.703125 20.515625 
Q 16.703125 13.921875 20.71875 10.15625 
Q 24.75 6.390625 31.78125 6.390625 
Q 38.8125 6.390625 42.859375 10.171875 
Q 46.921875 13.96875 46.921875 20.515625 
Q 46.921875 27.09375 42.890625 30.859375 
Q 38.875 34.625 31.78125 34.625 
z
M 21.921875 38.8125 
Q 15.578125 40.375 12.03125 44.71875 
Q 8.5 49.078125 8.5 55.328125 
Q 8.5 64.0625 14.71875 69.140625 
Q 20.953125 74.21875 31.78125 74.21875 
Q 42.671875 74.21875 48.875 69.140625 
Q 55.078125 64.0625 55.078125 55.328125 
Q 55.078125 49.078125 51.53125 44.71875 
Q 48 40.375 41.703125 38.8125 
Q 48.828125 37.15625 52.796875 32.3125 
Q 56.78125 27.484375 56.78125 20.515625 
Q 56.78125 9.90625 50.3125 4.234375 
Q 43.84375 -1.421875 31.78125 -1.421875 
Q 19.734375 -1.421875 13.25 4.234375 
Q 6.78125 9.90625 6.78125 20.515625 
Q 6.78125 27.484375 10.78125 32.3125 
Q 14.796875 37.15625 21.921875 38.8125 
z
M 18.3125 54.390625 
Q 18.3125 48.734375 21.84375 45.5625 
Q 25.390625 42.390625 31.78125 42.390625 
Q 38.140625 42.390625 41.71875 45.5625 
Q 45.3125 48.734375 45.3125 54.390625 
Q 45.3125 60.0625 41.71875 63.234375 
Q 38.140625 66.40625 31.78125 66.40625 
Q 25.390625 66.40625 21.84375 63.234375 
Q 18.3125 60.0625 18.3125 54.390625 
z
" id="DejaVuSans-38"/>
      </defs>
      <g transform="translate(125.463976 170.518193)scale(0.1 -0.1)">
       <use xlink:href="#DejaVuSans-31"/>
       <use x="63.623047" xlink:href="#DejaVuSans-39"/>
       <use x="127.246094" xlink:href="#DejaVuSans-38"/>
       <use x="190.869141" xlink:href="#DejaVuSans-30"/>
      </g>
     </g>
    </g>
    <g id="xtick_4">
     <g id="line2d_7">
      <path clip-path="url(#p1fb410ca7f)" d="M 173.622047 155.919756 
L 173.622047 21.022888 
" style="fill:none;stroke:#dddddd;stroke-linecap:square;stroke-width:0.8;"/>
     </g>
     <g id="line2d_8">
      <g>
       <use style="stroke:#000000;stroke-width:0.8;" x="173.622047" xlink:href="#me18f7fe145" y="155.919756"/>
      </g>
     </g>
     <g id="text_4">
      <!-- 1990 -->
      <g transform="translate(160.897047 170.518193)scale(0.1 -0.1)">
       <use xlink:href="#DejaVuSans-31"/>
       <use x="63.623047" xlink:href="#DejaVuSans-39"/>
       <use x="127.246094" xlink:href="#DejaVuSans-39"/>
       <use x="190.869141" xlink:href="#DejaVuSans-30"/>
      </g>
     </g>
    </g>
    <g id="xtick_5">
     <g id="line2d_9">
      <path clip-path="url(#p1fb410ca7f)" d="M 209.055118 155.919756 
L 209.055118 21.022888 
" style="fill:none;stroke:#dddddd;stroke-linecap:square;stroke-width:0.8;"/>
     </g>
     <g id="line2d_10">
      <g>
       <use style="stroke:#000000;stroke-width:0.8;" x="209.055118" xlink:href="#me18f7fe145" y="155.919756"/>
      </g>
     </g>
     <g id="text_5">
      <!-- 2000 -->
      <defs>
       <path d="M 19.1875 8.296875 
L 53.609375 8.296875 
L 53.609375 0 
L 7.328125 0 
L 7.328125 8.296875 
Q 12.9375 14.109375 22.625 23.890625 
Q 32.328125 33.6875 34.8125 36.53125 
Q 39.546875 41.84375 41.421875 45.53125 
Q 43.3125 49.21875 43.3125 52.78125 
Q 43.3125 58.59375 39.234375 62.25 
Q 35.15625 65.921875 28.609375 65.921875 
Q 23.96875 65.921875 18.8125 64.3125 
Q 13.671875 62.703125 7.8125 59.421875 
L 7.8125 69.390625 
Q 13.765625 71.78125 18.9375 73 
Q 24.125 74.21875 28.421875 74.21875 
Q 39.75 74.21875 46.484375 68.546875 
Q 53.21875 62.890625 53.21875 53.421875 
Q 53.21875 48.921875 51.53125 44.890625 
Q 49.859375 40.875 45.40625 35.40625 
Q 44.1875 33.984375 37.640625 27.21875 
Q 31.109375 20.453125 19.1875 8.296875 
z
" id="DejaVuSans-32"/>
      </defs>
      <g transform="translate(196.330118 170.518193)scale(0.1 -0.1)">
       <use xlink:href="#DejaVuSans-32"/>
       <use x="63.623047" xlink:href="#DejaVuSans-30"/>
       <use x="127.246094" xlink:href="#DejaVuSans-30"/>
       <use x="190.869141" xlink:href="#DejaVuSans-30"/>
      </g>
     </g>
    </g>
    <g id="xtick_6">
     <g id="line2d_11">
      <path clip-path="url(#p1fb410ca7f)" d="M 244.488189 155.919756 
L 244.488189 21.022888 
" style="fill:none;stroke:#dddddd;stroke-linecap:square;stroke-width:0.8;"/>
     </g>
     <g id="line2d_12">
      <g>
       <use style="stroke:#000000;stroke-width:0.8;" x="244.488189" xlink:href="#me18f7fe145" y="155.919756"/>
      </g>
     </g>
     <g id="text_6">
      <!-- 2010 -->
      <g transform="translate(231.763189 170.518193)scale(0.1 -0.1)">
       <use xlink:href="#DejaVuSans-32"/>
       <use x="63.623047" xlink:href="#DejaVuSans-30"/>
       <use x="127.246094" xlink:href="#DejaVuSans-31"/>
       <use x="190.869141" xlink:href="#DejaVuSans-30"/>
      </g>
     </g>
    </g>
   </g>
   <g id="matplotlib.axis_2">
    <g id="ytick_1">
     <g id="line2d_13">
      <path clip-path="url(#p1fb410ca7f)" d="M 35.433071 155.919756 
L 255.11811 155.919756 
" style="fill:none;stroke:#dddddd;stroke-linecap:square;stroke-width:0.8;"/>
     </g>
     <g id="line2d_14">
      <defs>
       <path d="M 0 0 
L -3.5 0 
" id="mcf2298a385" style="stroke:#000000;stroke-width:0.8;"/>
      </defs>
      <g>
       <use style="stroke:#000000;stroke-width:0.8;" x="35.433071" xlink:href="#mcf2298a385" y="155.919756"/>
      </g>
     </g>
     <g id="text_7">
      <!-- 0 -->
      <g transform="translate(22.070571 159.718975)scale(0.1 -0.1)">
       <use xlink:href="#DejaVuSans-30"/>
      </g>
     </g>
    </g>
    <g id="ytick_2">
     <g id="line2d_15">
      <path clip-path="url(#p1fb410ca7f)" d="M 35.433071 117.377794 
L 255.11811 117.377794 
" style="fill:none;stroke:#dddddd;stroke-linecap:square;stroke-width:0.8;"/>
     </g>
     <g id="line2d_16">
      <g>
       <use style="stroke:#000000;stroke-width:0.8;" x="35.433071" xlink:href="#mcf2298a385" y="117.377794"/>
      </g>
     </g>
     <g id="text_8">
      <!-- 20 -->
      <g transform="translate(15.708071 121.177013)scale(0.1 -0.1)">
       <use xlink:href="#DejaVuSans-32"/>
       <use x="63.623047" xlink:href="#DejaVuSans-30"/>
      </g>
     </g>
    </g>
    <g id="ytick_3">
     <g id="line2d_17">
      <path clip-path="url(#p1fb410ca7f)" d="M 35.433071 78.835832 
L 255.11811 78.835832 
" style="fill:none;stroke:#dddddd;stroke-linecap:square;stroke-width:0.8;"/>
     </g>
     <g id="line2d_18">
      <g>
       <use style="stroke:#000000;stroke-width:0.8;" x="35.433071" xlink:href="#mcf2298a385" y="78.835832"/>
      </g>
     </g>
     <g id="text_9">
      <!-- 40 -->
      <defs>
       <path d="M 37.796875 64.3125 
L 12.890625 25.390625 
L 37.796875 25.390625 
z
M 35.203125 72.90625 
L 47.609375 72.90625 
L 47.609375 25.390625 
L 58.015625 25.390625 
L 58.015625 17.1875 
L 47.609375 17.1875 
L 47.609375 0 
L 37.796875 0 
L 37.796875 17.1875 
L 4.890625 17.1875 
L 4.890625 26.703125 
z
" id="DejaVuSans-34"/>
      </defs>
      <g transform="translate(15.708071 82.63505)scale(0.1 -0.1)">
       <use xlink:href="#DejaVuSans-34"/>
       <use x="63.623047" xlink:href="#DejaVuSans-30"/>
      </g>
     </g>
    </g>
    <g id="ytick_4">
     <g id="line2d_19">
      <path clip-path="url(#p1fb410ca7f)" d="M 35.433071 40.29387 
L 255.11811 40.29387 
" style="fill:none;stroke:#dddddd;stroke-linecap:square;stroke-width:0.8;"/>
     </g>
     <g id="line2d_20">
      <g>
       <use style="stroke:#000000;stroke-width:0.8;" x="35.433071" xlink:href="#mcf2298a385" y="40.29387"/>
      </g>
     </g>
     <g id="text_10">
      <!-- 60 -->
      <g transform="translate(15.708071 44.093088)scale(0.1 -0.1)">
       <use xlink:href="#DejaVuSans-36"/>
       <use x="63.623047" xlink:href="#DejaVuSans-30"/>
      </g>
     </g>
    </g>
   </g>
   <g id="line2d_21">
    <path clip-path="url(#p1fb410ca7f)" d="M -1 128.511205 
L 0 129.780597 
L 3.543307 115.136579 
L 7.086614 106.474273 
L 10.629921 98.89885 
L 14.173228 94.66887 
L 17.716535 75.931695 
L 21.259843 83.208417 
L 24.80315 84.148841 
L 28.346457 90.456233 
L 31.889764 92.88245 
L 35.433071 92.64349 
L 38.976378 90.155606 
L 42.519685 89.294193 
L 46.062992 91.205874 
L 49.606299 89.525445 
L 53.149606 90.032272 
L 56.692913 93.283286 
L 60.23622 95.524501 
L 63.779528 95.709503 
L 67.322835 99.384479 
L 70.866142 99.567553 
L 74.409449 102.084343 
L 77.952756 104.967282 
L 81.496063 97.337901 
L 85.03937 96.256799 
L 88.582677 96.081433 
L 92.125984 97.021856 
L 99.212598 100.511831 
L 102.755906 106.146666 
L 106.299213 104.718686 
L 109.84252 107.96392 
L 113.385827 114.968921 
L 116.929134 117.109927 
L 120.472441 124.53889 
L 124.015748 130.370289 
L 127.559055 134.619541 
L 131.102362 134.592561 
L 134.645669 136.748984 
L 138.188976 137.228831 
L 141.732283 138.932386 
L 145.275591 137.051538 
L 148.818898 141.056048 
L 152.362205 141.09459 
L 155.905512 142.888719 
L 159.448819 138.664519 
L 162.992126 138.44483 
L 166.535433 132.463118 
L 170.07874 128.68986 
L 173.622047 127.171306 
L 177.165354 125.307802 
L 180.708661 126.284841 
L 184.251969 130.711386 
L 187.795276 125.045717 
L 191.338583 126.81672 
L 194.88189 123.029973 
L 198.425197 126.616302 
L 201.968504 128.477879 
L 205.511811 128.693714 
L 209.055118 126.566198 
L 212.598425 131.416703 
L 216.141732 134.781417 
L 219.685039 128.978924 
L 223.228346 125.566034 
L 226.771654 126.003485 
L 230.314961 122.596375 
L 233.858268 124.113002 
L 237.401575 119.719218 
L 240.944882 116.687893 
L 244.488189 117.487638 
L 248.031496 119.63828 
L 255.11811 121.785067 
L 258.661417 119.902292 
L 262.204724 120.594121 
L 265.748031 120.915946 
L 265.748031 120.915946 
" style="fill:none;stroke:#ffa500;stroke-linecap:square;stroke-width:2;"/>
   </g>
   <g id="line2d_22">
    <path clip-path="url(#p1fb410ca7f)" d="M 35.433071 100.594696 
L 38.976378 93.693758 
L 42.519685 91.365824 
L 46.062992 93.691831 
L 49.606299 92.683959 
L 53.149606 94.009802 
L 56.692913 93.930791 
L 60.23622 97.653945 
L 63.779528 98.062489 
L 67.322835 109.299399 
L 70.866142 97.995041 
L 74.409449 101.614131 
L 77.952756 103.774408 
L 81.496063 100.918449 
L 85.03937 99.866253 
L 88.582677 97.90254 
L 92.125984 92.479686 
L 95.669291 95.432001 
L 99.212598 96.436019 
L 102.755906 108.014024 
L 106.299213 91.970932 
L 109.84252 99.440365 
L 113.385827 108.331995 
L 116.929134 107.62475 
L 120.472441 115.348559 
L 124.015748 120.948707 
L 127.559055 124.918529 
L 131.102362 126.934273 
L 134.645669 131.457173 
L 138.188976 129.383615 
L 141.732283 128.957726 
L 145.275591 125.989995 
L 148.818898 132.798433 
L 152.362205 133.846774 
L 155.905512 130.886751 
L 159.448819 124.305711 
L 162.992126 111.910616 
L 166.535433 112.916562 
L 170.07874 131.489933 
L 173.622047 123.875969 
L 177.165354 109.804298 
L 180.708661 107.125632 
L 184.251969 106.029113 
L 187.795276 110.715816 
L 191.338583 114.548814 
L 194.88189 111.820043 
L 198.425197 105.996352 
L 201.968504 101.839602 
L 205.511811 92.080777 
L 209.055118 107.896471 
L 212.598425 116.086638 
L 216.141732 101.685434 
L 219.685039 107.231622 
L 223.228346 100.107141 
L 226.771654 90.469723 
L 230.314961 76.879827 
L 233.858268 47.699708 
L 237.401575 36.187223 
L 240.944882 42.230603 
L 244.488189 35.882742 
L 248.031496 29.003002 
L 251.574803 29.490558 
L 255.11811 44.560465 
L 258.661417 46.373864 
L 262.204724 63.162743 
L 265.748031 70.664936 
L 265.748031 70.664936 
" style="fill:none;stroke:#4dbd33;stroke-linecap:square;stroke-width:2;"/>
   </g>
   <g id="patch_3">
    <path d="M 35.433071 155.919756 
L 35.433071 21.022888 
" style="fill:none;stroke:#000000;stroke-linecap:square;stroke-linejoin:miter;stroke-width:0.8;"/>
   </g>
   <g id="patch_4">
    <path d="M 255.11811 155.919756 
L 255.11811 21.022888 
" style="fill:none;stroke:#000000;stroke-linecap:square;stroke-linejoin:miter;stroke-width:0.8;"/>
   </g>
   <g id="patch_5">
    <path d="M 35.433071 155.919756 
L 255.11811 155.919756 
" style="fill:none;stroke:#000000;stroke-linecap:square;stroke-linejoin:miter;stroke-width:0.8;"/>
   </g>
   <g id="patch_6">
    <path d="M 35.433071 21.022888 
L 255.11811 21.022888 
" style="fill:none;stroke:#000000;stroke-linecap:square;stroke-linejoin:miter;stroke-width:0.8;"/>
   </g>
  </g>
 </g>
 <defs>
  <clipPath id="p1fb410ca7f">
   <rect height="134.896867" width="219.685039" x="35.433071" y="21.022888"/>
  </clipPath>
 </defs>
</svg>
