<?xml version="1.0" encoding="utf-8" standalone="no"?>
<!DOCTYPE svg PUBLIC "-//W3C//DTD SVG 1.1//EN"
  "http://www.w3.org/Graphics/SVG/1.1/DTD/svg11.dtd">
<!-- Created with matplotlib (http://matplotlib.org/) -->
<svg height="175pt" version="1.1" viewBox="0 0 283 175" width="283pt" xmlns="http://www.w3.org/2000/svg" xmlns:xlink="http://www.w3.org/1999/xlink">
 <defs>
  <style type="text/css">
*{stroke-linecap:butt;stroke-linejoin:round;}
  </style>
 </defs>
 <g id="figure_1">
  <g id="patch_1">
   <path d="M 0 175.190737 
L 283.464567 175.190737 
L 283.464567 0 
L 0 0 
z
" style="fill:#ffffff;"/>
  </g>
  <g id="axes_1">
   <g id="patch_2">
    <path d="M 28.346457 157.671663 
L 269.291339 157.671663 
L 269.291339 12.263352 
L 28.346457 12.263352 
z
" style="fill:#ffffff;"/>
   </g>
   <g id="matplotlib.axis_1">
    <g id="xtick_1">
     <g id="line2d_1">
      <path clip-path="url(#pfd17a3815a)" d="M 41.825891 157.671663 
L 41.825891 12.263352 
" style="fill:none;stroke:#dddddd;stroke-linecap:square;stroke-width:0.8;"/>
     </g>
     <g id="line2d_2">
      <defs>
       <path d="M 0 0 
L 0 3.5 
" id="m9cbe48d3d3" style="stroke:#000000;stroke-width:0.8;"/>
      </defs>
      <g>
       <use style="stroke:#000000;stroke-width:0.8;" x="41.825891" xlink:href="#m9cbe48d3d3" y="157.671663"/>
      </g>
     </g>
     <g id="text_1">
      <!-- 1750 -->
      <defs>
       <path d="M 12.40625 8.296875 
L 28.515625 8.296875 
L 28.515625 63.921875 
L 10.984375 60.40625 
L 10.984375 69.390625 
L 28.421875 72.90625 
L 38.28125 72.90625 
L 38.28125 8.296875 
L 54.390625 8.296875 
L 54.390625 0 
L 12.40625 0 
z
" id="DejaVuSans-31"/>
       <path d="M 8.203125 72.90625 
L 55.078125 72.90625 
L 55.078125 68.703125 
L 28.609375 0 
L 18.3125 0 
L 43.21875 64.59375 
L 8.203125 64.59375 
z
" id="DejaVuSans-37"/>
       <path d="M 10.796875 72.90625 
L 49.515625 72.90625 
L 49.515625 64.59375 
L 19.828125 64.59375 
L 19.828125 46.734375 
Q 21.96875 47.46875 24.109375 47.828125 
Q 26.265625 48.1875 28.421875 48.1875 
Q 40.625 48.1875 47.75 41.5 
Q 54.890625 34.8125 54.890625 23.390625 
Q 54.890625 11.625 47.5625 5.09375 
Q 40.234375 -1.421875 26.90625 -1.421875 
Q 22.3125 -1.421875 17.546875 -0.640625 
Q 12.796875 0.140625 7.71875 1.703125 
L 7.71875 11.625 
Q 12.109375 9.234375 16.796875 8.0625 
Q 21.484375 6.890625 26.703125 6.890625 
Q 35.15625 6.890625 40.078125 11.328125 
Q 45.015625 15.765625 45.015625 23.390625 
Q 45.015625 31 40.078125 35.4375 
Q 35.15625 39.890625 26.703125 39.890625 
Q 22.75 39.890625 18.8125 39.015625 
Q 14.890625 38.140625 10.796875 36.28125 
z
" id="DejaVuSans-35"/>
       <path d="M 31.78125 66.40625 
Q 24.171875 66.40625 20.328125 58.90625 
Q 16.5 51.421875 16.5 36.375 
Q 16.5 21.390625 20.328125 13.890625 
Q 24.171875 6.390625 31.78125 6.390625 
Q 39.453125 6.390625 43.28125 13.890625 
Q 47.125 21.390625 47.125 36.375 
Q 47.125 51.421875 43.28125 58.90625 
Q 39.453125 66.40625 31.78125 66.40625 
z
M 31.78125 74.21875 
Q 44.046875 74.21875 50.515625 64.515625 
Q 56.984375 54.828125 56.984375 36.375 
Q 56.984375 17.96875 50.515625 8.265625 
Q 44.046875 -1.421875 31.78125 -1.421875 
Q 19.53125 -1.421875 13.0625 8.265625 
Q 6.59375 17.96875 6.59375 36.375 
Q 6.59375 54.828125 13.0625 64.515625 
Q 19.53125 74.21875 31.78125 74.21875 
z
" id="DejaVuSans-30"/>
      </defs>
      <g transform="translate(29.100891 172.270101)scale(0.1 -0.1)">
       <use xlink:href="#DejaVuSans-31"/>
       <use x="63.623047" xlink:href="#DejaVuSans-37"/>
       <use x="127.246094" xlink:href="#DejaVuSans-35"/>
       <use x="190.869141" xlink:href="#DejaVuSans-30"/>
      </g>
     </g>
    </g>
    <g id="xtick_2">
     <g id="line2d_3">
      <path clip-path="url(#pfd17a3815a)" d="M 83.949122 157.671663 
L 83.949122 12.263352 
" style="fill:none;stroke:#dddddd;stroke-linecap:square;stroke-width:0.8;"/>
     </g>
     <g id="line2d_4">
      <g>
       <use style="stroke:#000000;stroke-width:0.8;" x="83.949122" xlink:href="#m9cbe48d3d3" y="157.671663"/>
      </g>
     </g>
     <g id="text_2">
      <!-- 1800 -->
      <defs>
       <path d="M 31.78125 34.625 
Q 24.75 34.625 20.71875 30.859375 
Q 16.703125 27.09375 16.703125 20.515625 
Q 16.703125 13.921875 20.71875 10.15625 
Q 24.75 6.390625 31.78125 6.390625 
Q 38.8125 6.390625 42.859375 10.171875 
Q 46.921875 13.96875 46.921875 20.515625 
Q 46.921875 27.09375 42.890625 30.859375 
Q 38.875 34.625 31.78125 34.625 
z
M 21.921875 38.8125 
Q 15.578125 40.375 12.03125 44.71875 
Q 8.5 49.078125 8.5 55.328125 
Q 8.5 64.0625 14.71875 69.140625 
Q 20.953125 74.21875 31.78125 74.21875 
Q 42.671875 74.21875 48.875 69.140625 
Q 55.078125 64.0625 55.078125 55.328125 
Q 55.078125 49.078125 51.53125 44.71875 
Q 48 40.375 41.703125 38.8125 
Q 48.828125 37.15625 52.796875 32.3125 
Q 56.78125 27.484375 56.78125 20.515625 
Q 56.78125 9.90625 50.3125 4.234375 
Q 43.84375 -1.421875 31.78125 -1.421875 
Q 19.734375 -1.421875 13.25 4.234375 
Q 6.78125 9.90625 6.78125 20.515625 
Q 6.78125 27.484375 10.78125 32.3125 
Q 14.796875 37.15625 21.921875 38.8125 
z
M 18.3125 54.390625 
Q 18.3125 48.734375 21.84375 45.5625 
Q 25.390625 42.390625 31.78125 42.390625 
Q 38.140625 42.390625 41.71875 45.5625 
Q 45.3125 48.734375 45.3125 54.390625 
Q 45.3125 60.0625 41.71875 63.234375 
Q 38.140625 66.40625 31.78125 66.40625 
Q 25.390625 66.40625 21.84375 63.234375 
Q 18.3125 60.0625 18.3125 54.390625 
z
" id="DejaVuSans-38"/>
      </defs>
      <g transform="translate(71.224122 172.270101)scale(0.1 -0.1)">
       <use xlink:href="#DejaVuSans-31"/>
       <use x="63.623047" xlink:href="#DejaVuSans-38"/>
       <use x="127.246094" xlink:href="#DejaVuSans-30"/>
       <use x="190.869141" xlink:href="#DejaVuSans-30"/>
      </g>
     </g>
    </g>
    <g id="xtick_3">
     <g id="line2d_5">
      <path clip-path="url(#pfd17a3815a)" d="M 126.072353 157.671663 
L 126.072353 12.263352 
" style="fill:none;stroke:#dddddd;stroke-linecap:square;stroke-width:0.8;"/>
     </g>
     <g id="line2d_6">
      <g>
       <use style="stroke:#000000;stroke-width:0.8;" x="126.072353" xlink:href="#m9cbe48d3d3" y="157.671663"/>
      </g>
     </g>
     <g id="text_3">
      <!-- 1850 -->
      <g transform="translate(113.347353 172.270101)scale(0.1 -0.1)">
       <use xlink:href="#DejaVuSans-31"/>
       <use x="63.623047" xlink:href="#DejaVuSans-38"/>
       <use x="127.246094" xlink:href="#DejaVuSans-35"/>
       <use x="190.869141" xlink:href="#DejaVuSans-30"/>
      </g>
     </g>
    </g>
    <g id="xtick_4">
     <g id="line2d_7">
      <path clip-path="url(#pfd17a3815a)" d="M 168.195584 157.671663 
L 168.195584 12.263352 
" style="fill:none;stroke:#dddddd;stroke-linecap:square;stroke-width:0.8;"/>
     </g>
     <g id="line2d_8">
      <g>
       <use style="stroke:#000000;stroke-width:0.8;" x="168.195584" xlink:href="#m9cbe48d3d3" y="157.671663"/>
      </g>
     </g>
     <g id="text_4">
      <!-- 1900 -->
      <defs>
       <path d="M 10.984375 1.515625 
L 10.984375 10.5 
Q 14.703125 8.734375 18.5 7.8125 
Q 22.3125 6.890625 25.984375 6.890625 
Q 35.75 6.890625 40.890625 13.453125 
Q 46.046875 20.015625 46.78125 33.40625 
Q 43.953125 29.203125 39.59375 26.953125 
Q 35.25 24.703125 29.984375 24.703125 
Q 19.046875 24.703125 12.671875 31.3125 
Q 6.296875 37.9375 6.296875 49.421875 
Q 6.296875 60.640625 12.9375 67.421875 
Q 19.578125 74.21875 30.609375 74.21875 
Q 43.265625 74.21875 49.921875 64.515625 
Q 56.59375 54.828125 56.59375 36.375 
Q 56.59375 19.140625 48.40625 8.859375 
Q 40.234375 -1.421875 26.421875 -1.421875 
Q 22.703125 -1.421875 18.890625 -0.6875 
Q 15.09375 0.046875 10.984375 1.515625 
z
M 30.609375 32.421875 
Q 37.25 32.421875 41.125 36.953125 
Q 45.015625 41.5 45.015625 49.421875 
Q 45.015625 57.28125 41.125 61.84375 
Q 37.25 66.40625 30.609375 66.40625 
Q 23.96875 66.40625 20.09375 61.84375 
Q 16.21875 57.28125 16.21875 49.421875 
Q 16.21875 41.5 20.09375 36.953125 
Q 23.96875 32.421875 30.609375 32.421875 
z
" id="DejaVuSans-39"/>
      </defs>
      <g transform="translate(155.470584 172.270101)scale(0.1 -0.1)">
       <use xlink:href="#DejaVuSans-31"/>
       <use x="63.623047" xlink:href="#DejaVuSans-39"/>
       <use x="127.246094" xlink:href="#DejaVuSans-30"/>
       <use x="190.869141" xlink:href="#DejaVuSans-30"/>
      </g>
     </g>
    </g>
    <g id="xtick_5">
     <g id="line2d_9">
      <path clip-path="url(#pfd17a3815a)" d="M 210.318815 157.671663 
L 210.318815 12.263352 
" style="fill:none;stroke:#dddddd;stroke-linecap:square;stroke-width:0.8;"/>
     </g>
     <g id="line2d_10">
      <g>
       <use style="stroke:#000000;stroke-width:0.8;" x="210.318815" xlink:href="#m9cbe48d3d3" y="157.671663"/>
      </g>
     </g>
     <g id="text_5">
      <!-- 1950 -->
      <g transform="translate(197.593815 172.270101)scale(0.1 -0.1)">
       <use xlink:href="#DejaVuSans-31"/>
       <use x="63.623047" xlink:href="#DejaVuSans-39"/>
       <use x="127.246094" xlink:href="#DejaVuSans-35"/>
       <use x="190.869141" xlink:href="#DejaVuSans-30"/>
      </g>
     </g>
    </g>
    <g id="xtick_6">
     <g id="line2d_11">
      <path clip-path="url(#pfd17a3815a)" d="M 252.442046 157.671663 
L 252.442046 12.263352 
" style="fill:none;stroke:#dddddd;stroke-linecap:square;stroke-width:0.8;"/>
     </g>
     <g id="line2d_12">
      <g>
       <use style="stroke:#000000;stroke-width:0.8;" x="252.442046" xlink:href="#m9cbe48d3d3" y="157.671663"/>
      </g>
     </g>
     <g id="text_6">
      <!-- 2000 -->
      <defs>
       <path d="M 19.1875 8.296875 
L 53.609375 8.296875 
L 53.609375 0 
L 7.328125 0 
L 7.328125 8.296875 
Q 12.9375 14.109375 22.625 23.890625 
Q 32.328125 33.6875 34.8125 36.53125 
Q 39.546875 41.84375 41.421875 45.53125 
Q 43.3125 49.21875 43.3125 52.78125 
Q 43.3125 58.59375 39.234375 62.25 
Q 35.15625 65.921875 28.609375 65.921875 
Q 23.96875 65.921875 18.8125 64.3125 
Q 13.671875 62.703125 7.8125 59.421875 
L 7.8125 69.390625 
Q 13.765625 71.78125 18.9375 73 
Q 24.125 74.21875 28.421875 74.21875 
Q 39.75 74.21875 46.484375 68.546875 
Q 53.21875 62.890625 53.21875 53.421875 
Q 53.21875 48.921875 51.53125 44.890625 
Q 49.859375 40.875 45.40625 35.40625 
Q 44.1875 33.984375 37.640625 27.21875 
Q 31.109375 20.453125 19.1875 8.296875 
z
" id="DejaVuSans-32"/>
      </defs>
      <g transform="translate(239.717046 172.270101)scale(0.1 -0.1)">
       <use xlink:href="#DejaVuSans-32"/>
       <use x="63.623047" xlink:href="#DejaVuSans-30"/>
       <use x="127.246094" xlink:href="#DejaVuSans-30"/>
       <use x="190.869141" xlink:href="#DejaVuSans-30"/>
      </g>
     </g>
    </g>
    <g id="xtick_7">
     <g id="line2d_13">
      <path clip-path="url(#pfd17a3815a)" d="M 33.401244 157.671663 
L 33.401244 12.263352 
" style="fill:none;stroke:#dddddd;stroke-linecap:square;stroke-width:0.8;"/>
     </g>
     <g id="line2d_14">
      <defs>
       <path d="M 0 0 
L 0 2 
" id="med01086274" style="stroke:#000000;stroke-width:0.6;"/>
      </defs>
      <g>
       <use style="stroke:#000000;stroke-width:0.6;" x="33.401244" xlink:href="#med01086274" y="157.671663"/>
      </g>
     </g>
    </g>
    <g id="xtick_8">
     <g id="line2d_15">
      <path clip-path="url(#pfd17a3815a)" d="M 50.250537 157.671663 
L 50.250537 12.263352 
" style="fill:none;stroke:#dddddd;stroke-linecap:square;stroke-width:0.8;"/>
     </g>
     <g id="line2d_16">
      <g>
       <use style="stroke:#000000;stroke-width:0.6;" x="50.250537" xlink:href="#med01086274" y="157.671663"/>
      </g>
     </g>
    </g>
    <g id="xtick_9">
     <g id="line2d_17">
      <path clip-path="url(#pfd17a3815a)" d="M 58.675183 157.671663 
L 58.675183 12.263352 
" style="fill:none;stroke:#dddddd;stroke-linecap:square;stroke-width:0.8;"/>
     </g>
     <g id="line2d_18">
      <g>
       <use style="stroke:#000000;stroke-width:0.6;" x="58.675183" xlink:href="#med01086274" y="157.671663"/>
      </g>
     </g>
    </g>
    <g id="xtick_10">
     <g id="line2d_19">
      <path clip-path="url(#pfd17a3815a)" d="M 67.099829 157.671663 
L 67.099829 12.263352 
" style="fill:none;stroke:#dddddd;stroke-linecap:square;stroke-width:0.8;"/>
     </g>
     <g id="line2d_20">
      <g>
       <use style="stroke:#000000;stroke-width:0.6;" x="67.099829" xlink:href="#med01086274" y="157.671663"/>
      </g>
     </g>
    </g>
    <g id="xtick_11">
     <g id="line2d_21">
      <path clip-path="url(#pfd17a3815a)" d="M 75.524476 157.671663 
L 75.524476 12.263352 
" style="fill:none;stroke:#dddddd;stroke-linecap:square;stroke-width:0.8;"/>
     </g>
     <g id="line2d_22">
      <g>
       <use style="stroke:#000000;stroke-width:0.6;" x="75.524476" xlink:href="#med01086274" y="157.671663"/>
      </g>
     </g>
    </g>
    <g id="xtick_12">
     <g id="line2d_23">
      <path clip-path="url(#pfd17a3815a)" d="M 92.373768 157.671663 
L 92.373768 12.263352 
" style="fill:none;stroke:#dddddd;stroke-linecap:square;stroke-width:0.8;"/>
     </g>
     <g id="line2d_24">
      <g>
       <use style="stroke:#000000;stroke-width:0.6;" x="92.373768" xlink:href="#med01086274" y="157.671663"/>
      </g>
     </g>
    </g>
    <g id="xtick_13">
     <g id="line2d_25">
      <path clip-path="url(#pfd17a3815a)" d="M 100.798414 157.671663 
L 100.798414 12.263352 
" style="fill:none;stroke:#dddddd;stroke-linecap:square;stroke-width:0.8;"/>
     </g>
     <g id="line2d_26">
      <g>
       <use style="stroke:#000000;stroke-width:0.6;" x="100.798414" xlink:href="#med01086274" y="157.671663"/>
      </g>
     </g>
    </g>
    <g id="xtick_14">
     <g id="line2d_27">
      <path clip-path="url(#pfd17a3815a)" d="M 109.22306 157.671663 
L 109.22306 12.263352 
" style="fill:none;stroke:#dddddd;stroke-linecap:square;stroke-width:0.8;"/>
     </g>
     <g id="line2d_28">
      <g>
       <use style="stroke:#000000;stroke-width:0.6;" x="109.22306" xlink:href="#med01086274" y="157.671663"/>
      </g>
     </g>
    </g>
    <g id="xtick_15">
     <g id="line2d_29">
      <path clip-path="url(#pfd17a3815a)" d="M 117.647707 157.671663 
L 117.647707 12.263352 
" style="fill:none;stroke:#dddddd;stroke-linecap:square;stroke-width:0.8;"/>
     </g>
     <g id="line2d_30">
      <g>
       <use style="stroke:#000000;stroke-width:0.6;" x="117.647707" xlink:href="#med01086274" y="157.671663"/>
      </g>
     </g>
    </g>
    <g id="xtick_16">
     <g id="line2d_31">
      <path clip-path="url(#pfd17a3815a)" d="M 134.496999 157.671663 
L 134.496999 12.263352 
" style="fill:none;stroke:#dddddd;stroke-linecap:square;stroke-width:0.8;"/>
     </g>
     <g id="line2d_32">
      <g>
       <use style="stroke:#000000;stroke-width:0.6;" x="134.496999" xlink:href="#med01086274" y="157.671663"/>
      </g>
     </g>
    </g>
    <g id="xtick_17">
     <g id="line2d_33">
      <path clip-path="url(#pfd17a3815a)" d="M 142.921645 157.671663 
L 142.921645 12.263352 
" style="fill:none;stroke:#dddddd;stroke-linecap:square;stroke-width:0.8;"/>
     </g>
     <g id="line2d_34">
      <g>
       <use style="stroke:#000000;stroke-width:0.6;" x="142.921645" xlink:href="#med01086274" y="157.671663"/>
      </g>
     </g>
    </g>
    <g id="xtick_18">
     <g id="line2d_35">
      <path clip-path="url(#pfd17a3815a)" d="M 151.346292 157.671663 
L 151.346292 12.263352 
" style="fill:none;stroke:#dddddd;stroke-linecap:square;stroke-width:0.8;"/>
     </g>
     <g id="line2d_36">
      <g>
       <use style="stroke:#000000;stroke-width:0.6;" x="151.346292" xlink:href="#med01086274" y="157.671663"/>
      </g>
     </g>
    </g>
    <g id="xtick_19">
     <g id="line2d_37">
      <path clip-path="url(#pfd17a3815a)" d="M 159.770938 157.671663 
L 159.770938 12.263352 
" style="fill:none;stroke:#dddddd;stroke-linecap:square;stroke-width:0.8;"/>
     </g>
     <g id="line2d_38">
      <g>
       <use style="stroke:#000000;stroke-width:0.6;" x="159.770938" xlink:href="#med01086274" y="157.671663"/>
      </g>
     </g>
    </g>
    <g id="xtick_20">
     <g id="line2d_39">
      <path clip-path="url(#pfd17a3815a)" d="M 176.62023 157.671663 
L 176.62023 12.263352 
" style="fill:none;stroke:#dddddd;stroke-linecap:square;stroke-width:0.8;"/>
     </g>
     <g id="line2d_40">
      <g>
       <use style="stroke:#000000;stroke-width:0.6;" x="176.62023" xlink:href="#med01086274" y="157.671663"/>
      </g>
     </g>
    </g>
    <g id="xtick_21">
     <g id="line2d_41">
      <path clip-path="url(#pfd17a3815a)" d="M 185.044876 157.671663 
L 185.044876 12.263352 
" style="fill:none;stroke:#dddddd;stroke-linecap:square;stroke-width:0.8;"/>
     </g>
     <g id="line2d_42">
      <g>
       <use style="stroke:#000000;stroke-width:0.6;" x="185.044876" xlink:href="#med01086274" y="157.671663"/>
      </g>
     </g>
    </g>
    <g id="xtick_22">
     <g id="line2d_43">
      <path clip-path="url(#pfd17a3815a)" d="M 193.469523 157.671663 
L 193.469523 12.263352 
" style="fill:none;stroke:#dddddd;stroke-linecap:square;stroke-width:0.8;"/>
     </g>
     <g id="line2d_44">
      <g>
       <use style="stroke:#000000;stroke-width:0.6;" x="193.469523" xlink:href="#med01086274" y="157.671663"/>
      </g>
     </g>
    </g>
    <g id="xtick_23">
     <g id="line2d_45">
      <path clip-path="url(#pfd17a3815a)" d="M 201.894169 157.671663 
L 201.894169 12.263352 
" style="fill:none;stroke:#dddddd;stroke-linecap:square;stroke-width:0.8;"/>
     </g>
     <g id="line2d_46">
      <g>
       <use style="stroke:#000000;stroke-width:0.6;" x="201.894169" xlink:href="#med01086274" y="157.671663"/>
      </g>
     </g>
    </g>
    <g id="xtick_24">
     <g id="line2d_47">
      <path clip-path="url(#pfd17a3815a)" d="M 218.743461 157.671663 
L 218.743461 12.263352 
" style="fill:none;stroke:#dddddd;stroke-linecap:square;stroke-width:0.8;"/>
     </g>
     <g id="line2d_48">
      <g>
       <use style="stroke:#000000;stroke-width:0.6;" x="218.743461" xlink:href="#med01086274" y="157.671663"/>
      </g>
     </g>
    </g>
    <g id="xtick_25">
     <g id="line2d_49">
      <path clip-path="url(#pfd17a3815a)" d="M 227.168107 157.671663 
L 227.168107 12.263352 
" style="fill:none;stroke:#dddddd;stroke-linecap:square;stroke-width:0.8;"/>
     </g>
     <g id="line2d_50">
      <g>
       <use style="stroke:#000000;stroke-width:0.6;" x="227.168107" xlink:href="#med01086274" y="157.671663"/>
      </g>
     </g>
    </g>
    <g id="xtick_26">
     <g id="line2d_51">
      <path clip-path="url(#pfd17a3815a)" d="M 235.592754 157.671663 
L 235.592754 12.263352 
" style="fill:none;stroke:#dddddd;stroke-linecap:square;stroke-width:0.8;"/>
     </g>
     <g id="line2d_52">
      <g>
       <use style="stroke:#000000;stroke-width:0.6;" x="235.592754" xlink:href="#med01086274" y="157.671663"/>
      </g>
     </g>
    </g>
    <g id="xtick_27">
     <g id="line2d_53">
      <path clip-path="url(#pfd17a3815a)" d="M 244.0174 157.671663 
L 244.0174 12.263352 
" style="fill:none;stroke:#dddddd;stroke-linecap:square;stroke-width:0.8;"/>
     </g>
     <g id="line2d_54">
      <g>
       <use style="stroke:#000000;stroke-width:0.6;" x="244.0174" xlink:href="#med01086274" y="157.671663"/>
      </g>
     </g>
    </g>
    <g id="xtick_28">
     <g id="line2d_55">
      <path clip-path="url(#pfd17a3815a)" d="M 260.866692 157.671663 
L 260.866692 12.263352 
" style="fill:none;stroke:#dddddd;stroke-linecap:square;stroke-width:0.8;"/>
     </g>
     <g id="line2d_56">
      <g>
       <use style="stroke:#000000;stroke-width:0.6;" x="260.866692" xlink:href="#med01086274" y="157.671663"/>
      </g>
     </g>
    </g>
    <g id="xtick_29">
     <g id="line2d_57">
      <path clip-path="url(#pfd17a3815a)" d="M 269.291339 157.671663 
L 269.291339 12.263352 
" style="fill:none;stroke:#dddddd;stroke-linecap:square;stroke-width:0.8;"/>
     </g>
     <g id="line2d_58">
      <g>
       <use style="stroke:#000000;stroke-width:0.6;" x="269.291339" xlink:href="#med01086274" y="157.671663"/>
      </g>
     </g>
    </g>
   </g>
   <g id="matplotlib.axis_2">
    <g id="ytick_1">
     <g id="line2d_59">
      <path clip-path="url(#pfd17a3815a)" d="M 28.346457 154.82052 
L 269.291339 154.82052 
" style="fill:none;stroke:#dddddd;stroke-linecap:square;stroke-width:0.8;"/>
     </g>
     <g id="line2d_60">
      <defs>
       <path d="M 0 0 
L -3.5 0 
" id="m5947ddbfd2" style="stroke:#000000;stroke-width:0.8;"/>
      </defs>
      <g>
       <use style="stroke:#000000;stroke-width:0.8;" x="28.346457" xlink:href="#m5947ddbfd2" y="154.82052"/>
      </g>
     </g>
     <g id="text_7">
      <!-- 0.5 -->
      <defs>
       <path d="M 10.6875 12.40625 
L 21 12.40625 
L 21 0 
L 10.6875 0 
z
" id="DejaVuSans-2e"/>
      </defs>
      <g transform="translate(5.443332 158.619739)scale(0.1 -0.1)">
       <use xlink:href="#DejaVuSans-30"/>
       <use x="63.623047" xlink:href="#DejaVuSans-2e"/>
       <use x="95.410156" xlink:href="#DejaVuSans-35"/>
      </g>
     </g>
    </g>
    <g id="ytick_2">
     <g id="line2d_61">
      <path clip-path="url(#pfd17a3815a)" d="M 28.346457 140.564803 
L 269.291339 140.564803 
" style="fill:none;stroke:#dddddd;stroke-linecap:square;stroke-width:0.8;"/>
     </g>
     <g id="line2d_62">
      <g>
       <use style="stroke:#000000;stroke-width:0.8;" x="28.346457" xlink:href="#m5947ddbfd2" y="140.564803"/>
      </g>
     </g>
     <g id="text_8">
      <!-- 1.0 -->
      <g transform="translate(5.443332 144.364022)scale(0.1 -0.1)">
       <use xlink:href="#DejaVuSans-31"/>
       <use x="63.623047" xlink:href="#DejaVuSans-2e"/>
       <use x="95.410156" xlink:href="#DejaVuSans-30"/>
      </g>
     </g>
    </g>
    <g id="ytick_3">
     <g id="line2d_63">
      <path clip-path="url(#pfd17a3815a)" d="M 28.346457 126.309086 
L 269.291339 126.309086 
" style="fill:none;stroke:#dddddd;stroke-linecap:square;stroke-width:0.8;"/>
     </g>
     <g id="line2d_64">
      <g>
       <use style="stroke:#000000;stroke-width:0.8;" x="28.346457" xlink:href="#m5947ddbfd2" y="126.309086"/>
      </g>
     </g>
     <g id="text_9">
      <!-- 1.5 -->
      <g transform="translate(5.443332 130.108305)scale(0.1 -0.1)">
       <use xlink:href="#DejaVuSans-31"/>
       <use x="63.623047" xlink:href="#DejaVuSans-2e"/>
       <use x="95.410156" xlink:href="#DejaVuSans-35"/>
      </g>
     </g>
    </g>
    <g id="ytick_4">
     <g id="line2d_65">
      <path clip-path="url(#pfd17a3815a)" d="M 28.346457 112.053369 
L 269.291339 112.053369 
" style="fill:none;stroke:#dddddd;stroke-linecap:square;stroke-width:0.8;"/>
     </g>
     <g id="line2d_66">
      <g>
       <use style="stroke:#000000;stroke-width:0.8;" x="28.346457" xlink:href="#m5947ddbfd2" y="112.053369"/>
      </g>
     </g>
     <g id="text_10">
      <!-- 2.0 -->
      <g transform="translate(5.443332 115.852588)scale(0.1 -0.1)">
       <use xlink:href="#DejaVuSans-32"/>
       <use x="63.623047" xlink:href="#DejaVuSans-2e"/>
       <use x="95.410156" xlink:href="#DejaVuSans-30"/>
      </g>
     </g>
    </g>
    <g id="ytick_5">
     <g id="line2d_67">
      <path clip-path="url(#pfd17a3815a)" d="M 28.346457 97.797653 
L 269.291339 97.797653 
" style="fill:none;stroke:#dddddd;stroke-linecap:square;stroke-width:0.8;"/>
     </g>
     <g id="line2d_68">
      <g>
       <use style="stroke:#000000;stroke-width:0.8;" x="28.346457" xlink:href="#m5947ddbfd2" y="97.797653"/>
      </g>
     </g>
     <g id="text_11">
      <!-- 2.5 -->
      <g transform="translate(5.443332 101.596871)scale(0.1 -0.1)">
       <use xlink:href="#DejaVuSans-32"/>
       <use x="63.623047" xlink:href="#DejaVuSans-2e"/>
       <use x="95.410156" xlink:href="#DejaVuSans-35"/>
      </g>
     </g>
    </g>
    <g id="ytick_6">
     <g id="line2d_69">
      <path clip-path="url(#pfd17a3815a)" d="M 28.346457 83.541936 
L 269.291339 83.541936 
" style="fill:none;stroke:#dddddd;stroke-linecap:square;stroke-width:0.8;"/>
     </g>
     <g id="line2d_70">
      <g>
       <use style="stroke:#000000;stroke-width:0.8;" x="28.346457" xlink:href="#m5947ddbfd2" y="83.541936"/>
      </g>
     </g>
     <g id="text_12">
      <!-- 3.0 -->
      <defs>
       <path d="M 40.578125 39.3125 
Q 47.65625 37.796875 51.625 33 
Q 55.609375 28.21875 55.609375 21.1875 
Q 55.609375 10.40625 48.1875 4.484375 
Q 40.765625 -1.421875 27.09375 -1.421875 
Q 22.515625 -1.421875 17.65625 -0.515625 
Q 12.796875 0.390625 7.625 2.203125 
L 7.625 11.71875 
Q 11.71875 9.328125 16.59375 8.109375 
Q 21.484375 6.890625 26.8125 6.890625 
Q 36.078125 6.890625 40.9375 10.546875 
Q 45.796875 14.203125 45.796875 21.1875 
Q 45.796875 27.640625 41.28125 31.265625 
Q 36.765625 34.90625 28.71875 34.90625 
L 20.21875 34.90625 
L 20.21875 43.015625 
L 29.109375 43.015625 
Q 36.375 43.015625 40.234375 45.921875 
Q 44.09375 48.828125 44.09375 54.296875 
Q 44.09375 59.90625 40.109375 62.90625 
Q 36.140625 65.921875 28.71875 65.921875 
Q 24.65625 65.921875 20.015625 65.03125 
Q 15.375 64.15625 9.8125 62.3125 
L 9.8125 71.09375 
Q 15.4375 72.65625 20.34375 73.4375 
Q 25.25 74.21875 29.59375 74.21875 
Q 40.828125 74.21875 47.359375 69.109375 
Q 53.90625 64.015625 53.90625 55.328125 
Q 53.90625 49.265625 50.4375 45.09375 
Q 46.96875 40.921875 40.578125 39.3125 
z
" id="DejaVuSans-33"/>
      </defs>
      <g transform="translate(5.443332 87.341154)scale(0.1 -0.1)">
       <use xlink:href="#DejaVuSans-33"/>
       <use x="63.623047" xlink:href="#DejaVuSans-2e"/>
       <use x="95.410156" xlink:href="#DejaVuSans-30"/>
      </g>
     </g>
    </g>
    <g id="ytick_7">
     <g id="line2d_71">
      <path clip-path="url(#pfd17a3815a)" d="M 28.346457 69.286219 
L 269.291339 69.286219 
" style="fill:none;stroke:#dddddd;stroke-linecap:square;stroke-width:0.8;"/>
     </g>
     <g id="line2d_72">
      <g>
       <use style="stroke:#000000;stroke-width:0.8;" x="28.346457" xlink:href="#m5947ddbfd2" y="69.286219"/>
      </g>
     </g>
     <g id="text_13">
      <!-- 3.5 -->
      <g transform="translate(5.443332 73.085438)scale(0.1 -0.1)">
       <use xlink:href="#DejaVuSans-33"/>
       <use x="63.623047" xlink:href="#DejaVuSans-2e"/>
       <use x="95.410156" xlink:href="#DejaVuSans-35"/>
      </g>
     </g>
    </g>
    <g id="ytick_8">
     <g id="line2d_73">
      <path clip-path="url(#pfd17a3815a)" d="M 28.346457 55.030502 
L 269.291339 55.030502 
" style="fill:none;stroke:#dddddd;stroke-linecap:square;stroke-width:0.8;"/>
     </g>
     <g id="line2d_74">
      <g>
       <use style="stroke:#000000;stroke-width:0.8;" x="28.346457" xlink:href="#m5947ddbfd2" y="55.030502"/>
      </g>
     </g>
     <g id="text_14">
      <!-- 4.0 -->
      <defs>
       <path d="M 37.796875 64.3125 
L 12.890625 25.390625 
L 37.796875 25.390625 
z
M 35.203125 72.90625 
L 47.609375 72.90625 
L 47.609375 25.390625 
L 58.015625 25.390625 
L 58.015625 17.1875 
L 47.609375 17.1875 
L 47.609375 0 
L 37.796875 0 
L 37.796875 17.1875 
L 4.890625 17.1875 
L 4.890625 26.703125 
z
" id="DejaVuSans-34"/>
      </defs>
      <g transform="translate(5.443332 58.829721)scale(0.1 -0.1)">
       <use xlink:href="#DejaVuSans-34"/>
       <use x="63.623047" xlink:href="#DejaVuSans-2e"/>
       <use x="95.410156" xlink:href="#DejaVuSans-30"/>
      </g>
     </g>
    </g>
    <g id="ytick_9">
     <g id="line2d_75">
      <path clip-path="url(#pfd17a3815a)" d="M 28.346457 40.774785 
L 269.291339 40.774785 
" style="fill:none;stroke:#dddddd;stroke-linecap:square;stroke-width:0.8;"/>
     </g>
     <g id="line2d_76">
      <g>
       <use style="stroke:#000000;stroke-width:0.8;" x="28.346457" xlink:href="#m5947ddbfd2" y="40.774785"/>
      </g>
     </g>
     <g id="text_15">
      <!-- 4.5 -->
      <g transform="translate(5.443332 44.574004)scale(0.1 -0.1)">
       <use xlink:href="#DejaVuSans-34"/>
       <use x="63.623047" xlink:href="#DejaVuSans-2e"/>
       <use x="95.410156" xlink:href="#DejaVuSans-35"/>
      </g>
     </g>
    </g>
    <g id="ytick_10">
     <g id="line2d_77">
      <path clip-path="url(#pfd17a3815a)" d="M 28.346457 26.519068 
L 269.291339 26.519068 
" style="fill:none;stroke:#dddddd;stroke-linecap:square;stroke-width:0.8;"/>
     </g>
     <g id="line2d_78">
      <g>
       <use style="stroke:#000000;stroke-width:0.8;" x="28.346457" xlink:href="#m5947ddbfd2" y="26.519068"/>
      </g>
     </g>
     <g id="text_16">
      <!-- 5.0 -->
      <g transform="translate(5.443332 30.318287)scale(0.1 -0.1)">
       <use xlink:href="#DejaVuSans-35"/>
       <use x="63.623047" xlink:href="#DejaVuSans-2e"/>
       <use x="95.410156" xlink:href="#DejaVuSans-30"/>
      </g>
     </g>
    </g>
    <g id="ytick_11">
     <g id="line2d_79">
      <path clip-path="url(#pfd17a3815a)" d="M 28.346457 12.263352 
L 269.291339 12.263352 
" style="fill:none;stroke:#dddddd;stroke-linecap:square;stroke-width:0.8;"/>
     </g>
     <g id="line2d_80">
      <g>
       <use style="stroke:#000000;stroke-width:0.8;" x="28.346457" xlink:href="#m5947ddbfd2" y="12.263352"/>
      </g>
     </g>
     <g id="text_17">
      <!-- 5.5 -->
      <g transform="translate(5.443332 16.06257)scale(0.1 -0.1)">
       <use xlink:href="#DejaVuSans-35"/>
       <use x="63.623047" xlink:href="#DejaVuSans-2e"/>
       <use x="95.410156" xlink:href="#DejaVuSans-35"/>
      </g>
     </g>
    </g>
    <g id="ytick_12">
     <g id="line2d_81">
      <path clip-path="url(#pfd17a3815a)" d="M 28.346457 154.82052 
L 269.291339 154.82052 
" style="fill:none;stroke:#dddddd;stroke-linecap:square;stroke-width:0.8;"/>
     </g>
     <g id="line2d_82">
      <defs>
       <path d="M 0 0 
L -2 0 
" id="m64fda6edb0" style="stroke:#000000;stroke-width:0.6;"/>
      </defs>
      <g>
       <use style="stroke:#000000;stroke-width:0.6;" x="28.346457" xlink:href="#m64fda6edb0" y="154.82052"/>
      </g>
     </g>
    </g>
    <g id="ytick_13">
     <g id="line2d_83">
      <path clip-path="url(#pfd17a3815a)" d="M 28.346457 147.692661 
L 269.291339 147.692661 
" style="fill:none;stroke:#dddddd;stroke-linecap:square;stroke-width:0.8;"/>
     </g>
     <g id="line2d_84">
      <g>
       <use style="stroke:#000000;stroke-width:0.6;" x="28.346457" xlink:href="#m64fda6edb0" y="147.692661"/>
      </g>
     </g>
    </g>
    <g id="ytick_14">
     <g id="line2d_85">
      <path clip-path="url(#pfd17a3815a)" d="M 28.346457 140.564803 
L 269.291339 140.564803 
" style="fill:none;stroke:#dddddd;stroke-linecap:square;stroke-width:0.8;"/>
     </g>
     <g id="line2d_86">
      <g>
       <use style="stroke:#000000;stroke-width:0.6;" x="28.346457" xlink:href="#m64fda6edb0" y="140.564803"/>
      </g>
     </g>
    </g>
    <g id="ytick_15">
     <g id="line2d_87">
      <path clip-path="url(#pfd17a3815a)" d="M 28.346457 133.436945 
L 269.291339 133.436945 
" style="fill:none;stroke:#dddddd;stroke-linecap:square;stroke-width:0.8;"/>
     </g>
     <g id="line2d_88">
      <g>
       <use style="stroke:#000000;stroke-width:0.6;" x="28.346457" xlink:href="#m64fda6edb0" y="133.436945"/>
      </g>
     </g>
    </g>
    <g id="ytick_16">
     <g id="line2d_89">
      <path clip-path="url(#pfd17a3815a)" d="M 28.346457 126.309086 
L 269.291339 126.309086 
" style="fill:none;stroke:#dddddd;stroke-linecap:square;stroke-width:0.8;"/>
     </g>
     <g id="line2d_90">
      <g>
       <use style="stroke:#000000;stroke-width:0.6;" x="28.346457" xlink:href="#m64fda6edb0" y="126.309086"/>
      </g>
     </g>
    </g>
    <g id="ytick_17">
     <g id="line2d_91">
      <path clip-path="url(#pfd17a3815a)" d="M 28.346457 119.181228 
L 269.291339 119.181228 
" style="fill:none;stroke:#dddddd;stroke-linecap:square;stroke-width:0.8;"/>
     </g>
     <g id="line2d_92">
      <g>
       <use style="stroke:#000000;stroke-width:0.6;" x="28.346457" xlink:href="#m64fda6edb0" y="119.181228"/>
      </g>
     </g>
    </g>
    <g id="ytick_18">
     <g id="line2d_93">
      <path clip-path="url(#pfd17a3815a)" d="M 28.346457 112.053369 
L 269.291339 112.053369 
" style="fill:none;stroke:#dddddd;stroke-linecap:square;stroke-width:0.8;"/>
     </g>
     <g id="line2d_94">
      <g>
       <use style="stroke:#000000;stroke-width:0.6;" x="28.346457" xlink:href="#m64fda6edb0" y="112.053369"/>
      </g>
     </g>
    </g>
    <g id="ytick_19">
     <g id="line2d_95">
      <path clip-path="url(#pfd17a3815a)" d="M 28.346457 104.925511 
L 269.291339 104.925511 
" style="fill:none;stroke:#dddddd;stroke-linecap:square;stroke-width:0.8;"/>
     </g>
     <g id="line2d_96">
      <g>
       <use style="stroke:#000000;stroke-width:0.6;" x="28.346457" xlink:href="#m64fda6edb0" y="104.925511"/>
      </g>
     </g>
    </g>
    <g id="ytick_20">
     <g id="line2d_97">
      <path clip-path="url(#pfd17a3815a)" d="M 28.346457 97.797653 
L 269.291339 97.797653 
" style="fill:none;stroke:#dddddd;stroke-linecap:square;stroke-width:0.8;"/>
     </g>
     <g id="line2d_98">
      <g>
       <use style="stroke:#000000;stroke-width:0.6;" x="28.346457" xlink:href="#m64fda6edb0" y="97.797653"/>
      </g>
     </g>
    </g>
    <g id="ytick_21">
     <g id="line2d_99">
      <path clip-path="url(#pfd17a3815a)" d="M 28.346457 90.669794 
L 269.291339 90.669794 
" style="fill:none;stroke:#dddddd;stroke-linecap:square;stroke-width:0.8;"/>
     </g>
     <g id="line2d_100">
      <g>
       <use style="stroke:#000000;stroke-width:0.6;" x="28.346457" xlink:href="#m64fda6edb0" y="90.669794"/>
      </g>
     </g>
    </g>
    <g id="ytick_22">
     <g id="line2d_101">
      <path clip-path="url(#pfd17a3815a)" d="M 28.346457 83.541936 
L 269.291339 83.541936 
" style="fill:none;stroke:#dddddd;stroke-linecap:square;stroke-width:0.8;"/>
     </g>
     <g id="line2d_102">
      <g>
       <use style="stroke:#000000;stroke-width:0.6;" x="28.346457" xlink:href="#m64fda6edb0" y="83.541936"/>
      </g>
     </g>
    </g>
    <g id="ytick_23">
     <g id="line2d_103">
      <path clip-path="url(#pfd17a3815a)" d="M 28.346457 76.414077 
L 269.291339 76.414077 
" style="fill:none;stroke:#dddddd;stroke-linecap:square;stroke-width:0.8;"/>
     </g>
     <g id="line2d_104">
      <g>
       <use style="stroke:#000000;stroke-width:0.6;" x="28.346457" xlink:href="#m64fda6edb0" y="76.414077"/>
      </g>
     </g>
    </g>
    <g id="ytick_24">
     <g id="line2d_105">
      <path clip-path="url(#pfd17a3815a)" d="M 28.346457 69.286219 
L 269.291339 69.286219 
" style="fill:none;stroke:#dddddd;stroke-linecap:square;stroke-width:0.8;"/>
     </g>
     <g id="line2d_106">
      <g>
       <use style="stroke:#000000;stroke-width:0.6;" x="28.346457" xlink:href="#m64fda6edb0" y="69.286219"/>
      </g>
     </g>
    </g>
    <g id="ytick_25">
     <g id="line2d_107">
      <path clip-path="url(#pfd17a3815a)" d="M 28.346457 62.15836 
L 269.291339 62.15836 
" style="fill:none;stroke:#dddddd;stroke-linecap:square;stroke-width:0.8;"/>
     </g>
     <g id="line2d_108">
      <g>
       <use style="stroke:#000000;stroke-width:0.6;" x="28.346457" xlink:href="#m64fda6edb0" y="62.15836"/>
      </g>
     </g>
    </g>
    <g id="ytick_26">
     <g id="line2d_109">
      <path clip-path="url(#pfd17a3815a)" d="M 28.346457 55.030502 
L 269.291339 55.030502 
" style="fill:none;stroke:#dddddd;stroke-linecap:square;stroke-width:0.8;"/>
     </g>
     <g id="line2d_110">
      <g>
       <use style="stroke:#000000;stroke-width:0.6;" x="28.346457" xlink:href="#m64fda6edb0" y="55.030502"/>
      </g>
     </g>
    </g>
    <g id="ytick_27">
     <g id="line2d_111">
      <path clip-path="url(#pfd17a3815a)" d="M 28.346457 47.902644 
L 269.291339 47.902644 
" style="fill:none;stroke:#dddddd;stroke-linecap:square;stroke-width:0.8;"/>
     </g>
     <g id="line2d_112">
      <g>
       <use style="stroke:#000000;stroke-width:0.6;" x="28.346457" xlink:href="#m64fda6edb0" y="47.902644"/>
      </g>
     </g>
    </g>
    <g id="ytick_28">
     <g id="line2d_113">
      <path clip-path="url(#pfd17a3815a)" d="M 28.346457 40.774785 
L 269.291339 40.774785 
" style="fill:none;stroke:#dddddd;stroke-linecap:square;stroke-width:0.8;"/>
     </g>
     <g id="line2d_114">
      <g>
       <use style="stroke:#000000;stroke-width:0.6;" x="28.346457" xlink:href="#m64fda6edb0" y="40.774785"/>
      </g>
     </g>
    </g>
    <g id="ytick_29">
     <g id="line2d_115">
      <path clip-path="url(#pfd17a3815a)" d="M 28.346457 33.646927 
L 269.291339 33.646927 
" style="fill:none;stroke:#dddddd;stroke-linecap:square;stroke-width:0.8;"/>
     </g>
     <g id="line2d_116">
      <g>
       <use style="stroke:#000000;stroke-width:0.6;" x="28.346457" xlink:href="#m64fda6edb0" y="33.646927"/>
      </g>
     </g>
    </g>
    <g id="ytick_30">
     <g id="line2d_117">
      <path clip-path="url(#pfd17a3815a)" d="M 28.346457 26.519068 
L 269.291339 26.519068 
" style="fill:none;stroke:#dddddd;stroke-linecap:square;stroke-width:0.8;"/>
     </g>
     <g id="line2d_118">
      <g>
       <use style="stroke:#000000;stroke-width:0.6;" x="28.346457" xlink:href="#m64fda6edb0" y="26.519068"/>
      </g>
     </g>
    </g>
    <g id="ytick_31">
     <g id="line2d_119">
      <path clip-path="url(#pfd17a3815a)" d="M 28.346457 19.39121 
L 269.291339 19.39121 
" style="fill:none;stroke:#dddddd;stroke-linecap:square;stroke-width:0.8;"/>
     </g>
     <g id="line2d_120">
      <g>
       <use style="stroke:#000000;stroke-width:0.6;" x="28.346457" xlink:href="#m64fda6edb0" y="19.39121"/>
      </g>
     </g>
    </g>
    <g id="ytick_32">
     <g id="line2d_121">
      <path clip-path="url(#pfd17a3815a)" d="M 28.346457 12.263352 
L 269.291339 12.263352 
" style="fill:none;stroke:#dddddd;stroke-linecap:square;stroke-width:0.8;"/>
     </g>
     <g id="line2d_122">
      <g>
       <use style="stroke:#000000;stroke-width:0.6;" x="28.346457" xlink:href="#m64fda6edb0" y="12.263352"/>
      </g>
     </g>
    </g>
   </g>
   <g id="line2d_123">
    <path clip-path="url(#pfd17a3815a)" d="M 29.188921 151.510086 
L 30.031386 151.336508 
L 30.873851 151.199967 
L 33.401244 150.892528 
L 34.243709 150.985618 
L 35.086174 151.347628 
L 35.928638 151.587922 
L 36.771103 151.522517 
L 39.298497 150.975297 
L 43.51082 150.518002 
L 52.777931 148.638186 
L 54.46286 148.54253 
L 56.147789 148.35253 
L 59.517648 147.669539 
L 60.360112 147.58332 
L 62.045042 148.081928 
L 63.729971 147.770355 
L 67.099829 147.101135 
L 69.627223 146.634289 
L 71.312152 146.542938 
L 72.154617 146.541085 
L 74.682011 146.277668 
L 76.36694 145.996887 
L 78.894334 145.274806 
L 83.106657 144.120778 
L 83.949122 143.943436 
L 87.31898 143.764926 
L 89.003909 143.410444 
L 90.688839 143.135679 
L 92.373768 143.516335 
L 94.058697 143.406481 
L 96.586091 143.279747 
L 97.428556 143.073923 
L 99.95595 141.950829 
L 101.640879 141.219597 
L 105.010737 139.557066 
L 107.538131 138.103753 
L 115.120313 134.611388 
L 119.332636 133.081863 
L 124.387424 130.366891 
L 126.072353 129.612164 
L 129.442211 127.830428 
L 132.81207 125.444848 
L 135.339464 123.211233 
L 136.181928 122.913317 
L 137.024393 122.463778 
L 139.551787 120.556733 
L 141.236716 120.00997 
L 142.079181 119.773068 
L 142.921645 119.675759 
L 144.606575 119.137206 
L 146.291504 118.424877 
L 148.818898 116.647759 
L 151.346292 114.480633 
L 152.188756 114.240681 
L 153.031221 114.259784 
L 153.873685 114.422071 
L 154.71615 114.285473 
L 157.243544 113.045083 
L 158.086008 112.783376 
L 158.928473 112.656842 
L 160.613402 111.936416 
L 161.455867 111.457338 
L 163.140796 110.78558 
L 164.825725 109.278409 
L 166.510655 107.565157 
L 168.195584 105.838704 
L 169.880513 104.445749 
L 170.722978 103.952045 
L 171.565442 103.745366 
L 174.092836 102.791943 
L 174.935301 102.556439 
L 175.777766 101.84525 
L 176.62023 101.305927 
L 177.462695 100.922449 
L 179.147624 99.645821 
L 181.675018 97.533551 
L 185.044876 94.482514 
L 185.887341 93.433864 
L 187.57227 91.895786 
L 188.414735 91.547005 
L 190.099664 90.5178 
L 190.942129 90.074475 
L 192.627058 89.515167 
L 193.469523 89.252405 
L 195.996916 87.805621 
L 201.894169 84.570942 
L 204.421563 82.985364 
L 206.106492 81.401183 
L 206.948957 80.483543 
L 209.47635 77.312216 
L 214.531138 71.831549 
L 216.216067 69.97363 
L 218.743461 67.355795 
L 222.11332 64.152222 
L 224.640714 61.636658 
L 227.168107 58.930267 
L 228.853037 57.374912 
L 229.695501 56.506396 
L 231.380431 55.101068 
L 233.06536 54.026843 
L 235.592754 52.78095 
L 241.490006 50.026147 
L 243.174935 48.738428 
L 244.0174 48.384031 
L 244.859865 47.907491 
L 250.757117 43.124156 
L 251.599582 42.333534 
L 252.442046 41.387867 
L 256.654369 37.742224 
L 257.496834 36.776941 
L 258.339298 35.610395 
L 260.024228 32.242682 
L 261.709157 28.791287 
L 264.236551 23.409726 
L 265.079015 21.791816 
L 266.763945 19.15408 
L 266.763945 19.15408 
" style="fill:none;stroke:#ff0000;stroke-linecap:square;stroke-width:1.4;"/>
   </g>
   <g id="patch_3">
    <path d="M 28.346457 157.671663 
L 28.346457 12.263352 
" style="fill:none;stroke:#000000;stroke-linecap:square;stroke-linejoin:miter;stroke-width:0.8;"/>
   </g>
   <g id="patch_4">
    <path d="M 269.291339 157.671663 
L 269.291339 12.263352 
" style="fill:none;stroke:#000000;stroke-linecap:square;stroke-linejoin:miter;stroke-width:0.8;"/>
   </g>
   <g id="patch_5">
    <path d="M 28.346457 157.671663 
L 269.291339 157.671663 
" style="fill:none;stroke:#000000;stroke-linecap:square;stroke-linejoin:miter;stroke-width:0.8;"/>
   </g>
   <g id="patch_6">
    <path d="M 28.346457 12.263352 
L 269.291339 12.263352 
" style="fill:none;stroke:#000000;stroke-linecap:square;stroke-linejoin:miter;stroke-width:0.8;"/>
   </g>
  </g>
 </g>
 <defs>
  <clipPath id="pfd17a3815a">
   <rect height="145.408312" width="240.944882" x="28.346457" y="12.263352"/>
  </clipPath>
 </defs>
</svg>
