<?xml version="1.0" encoding="utf-8" standalone="no"?>
<!DOCTYPE svg PUBLIC "-//W3C//DTD SVG 1.1//EN"
  "http://www.w3.org/Graphics/SVG/1.1/DTD/svg11.dtd">
<!-- Created with matplotlib (http://matplotlib.org/) -->
<svg height="255pt" version="1.1" viewBox="0 0 283 255" width="283pt" xmlns="http://www.w3.org/2000/svg" xmlns:xlink="http://www.w3.org/1999/xlink">
 <defs>
  <style type="text/css">
*{stroke-linecap:butt;stroke-linejoin:round;}
  </style>
 </defs>
 <g id="figure_1">
  <g id="patch_1">
   <path d="M 0 255.11811 
L 283.464567 255.11811 
L 283.464567 0 
L 0 0 
z
" style="fill:#ffffff;"/>
  </g>
  <g id="axes_1">
   <g id="patch_2">
    <path d="M 45.354331 216.850394 
L 255.11811 216.850394 
L 255.11811 30.614173 
L 45.354331 30.614173 
z
" style="fill:#ffffff;"/>
   </g>
   <g id="patch_3">
    <path clip-path="url(#pe9c4f06d2c)" d="M 150.23622 217.914601 
L 75.022795 217.914601 
L 75.022795 215.786187 
L 150.23622 215.786187 
z
" style="fill:#490a3d;"/>
   </g>
   <g id="patch_4">
    <path clip-path="url(#pe9c4f06d2c)" d="M 150.23622 216.140922 
L 73.835008 216.140922 
L 73.835008 214.012508 
L 150.23622 214.012508 
z
" style="fill:#490a3d;"/>
   </g>
   <g id="patch_5">
    <path clip-path="url(#pe9c4f06d2c)" d="M 150.23622 214.367244 
L 72.98022 214.367244 
L 72.98022 212.23883 
L 150.23622 212.23883 
z
" style="fill:#490a3d;"/>
   </g>
   <g id="patch_6">
    <path clip-path="url(#pe9c4f06d2c)" d="M 150.23622 212.593566 
L 72.143787 212.593566 
L 72.143787 210.465152 
L 150.23622 210.465152 
z
" style="fill:#490a3d;"/>
   </g>
   <g id="patch_7">
    <path clip-path="url(#pe9c4f06d2c)" d="M 150.23622 210.819888 
L 70.090724 210.819888 
L 70.090724 208.691474 
L 150.23622 208.691474 
z
" style="fill:#490a3d;"/>
   </g>
   <g id="patch_8">
    <path clip-path="url(#pe9c4f06d2c)" d="M 150.23622 209.046209 
L 69.626622 209.046209 
L 69.626622 206.917795 
L 150.23622 206.917795 
z
" style="fill:#490a3d;"/>
   </g>
   <g id="patch_9">
    <path clip-path="url(#pe9c4f06d2c)" d="M 150.23622 207.272531 
L 67.161898 207.272531 
L 67.161898 205.144117 
L 150.23622 205.144117 
z
" style="fill:#490a3d;"/>
   </g>
   <g id="patch_10">
    <path clip-path="url(#pe9c4f06d2c)" d="M 150.23622 205.498853 
L 65.916425 205.498853 
L 65.916425 203.370439 
L 150.23622 203.370439 
z
" style="fill:#490a3d;"/>
   </g>
   <g id="patch_11">
    <path clip-path="url(#pe9c4f06d2c)" d="M 150.23622 203.725174 
L 67.484409 203.725174 
L 67.484409 201.59676 
L 150.23622 201.59676 
z
" style="fill:#490a3d;"/>
   </g>
   <g id="patch_12">
    <path clip-path="url(#pe9c4f06d2c)" d="M 150.23622 201.951496 
L 69.167764 201.951496 
L 69.167764 199.823082 
L 150.23622 199.823082 
z
" style="fill:#490a3d;"/>
   </g>
   <g id="patch_13">
    <path clip-path="url(#pe9c4f06d2c)" d="M 150.23622 200.177818 
L 68.735126 200.177818 
L 68.735126 198.049404 
L 150.23622 198.049404 
z
" style="fill:#490a3d;"/>
   </g>
   <g id="patch_14">
    <path clip-path="url(#pe9c4f06d2c)" d="M 150.23622 198.404139 
L 70.37915 198.404139 
L 70.37915 196.275726 
L 150.23622 196.275726 
z
" style="fill:#490a3d;"/>
   </g>
   <g id="patch_15">
    <path clip-path="url(#pe9c4f06d2c)" d="M 150.23622 196.630461 
L 70.156276 196.630461 
L 70.156276 194.502047 
L 150.23622 194.502047 
z
" style="fill:#490a3d;"/>
   </g>
   <g id="patch_16">
    <path clip-path="url(#pe9c4f06d2c)" d="M 150.23622 194.856783 
L 70.722638 194.856783 
L 70.722638 192.728369 
L 150.23622 192.728369 
z
" style="fill:#490a3d;"/>
   </g>
   <g id="patch_17">
    <path clip-path="url(#pe9c4f06d2c)" d="M 150.23622 193.083105 
L 71.983843 193.083105 
L 71.983843 190.954691 
L 150.23622 190.954691 
z
" style="fill:#490a3d;"/>
   </g>
   <g id="patch_18">
    <path clip-path="url(#pe9c4f06d2c)" d="M 150.23622 191.309426 
L 70.730504 191.309426 
L 70.730504 189.181012 
L 150.23622 189.181012 
z
" style="fill:#490a3d;"/>
   </g>
   <g id="patch_19">
    <path clip-path="url(#pe9c4f06d2c)" d="M 150.23622 189.535748 
L 67.450323 189.535748 
L 67.450323 187.407334 
L 150.23622 187.407334 
z
" style="fill:#490a3d;"/>
   </g>
   <g id="patch_20">
    <path clip-path="url(#pe9c4f06d2c)" d="M 150.23622 187.76207 
L 67.342819 187.76207 
L 67.342819 185.633656 
L 150.23622 185.633656 
z
" style="fill:#490a3d;"/>
   </g>
   <g id="patch_21">
    <path clip-path="url(#pe9c4f06d2c)" d="M 150.23622 185.988391 
L 67.694173 185.988391 
L 67.694173 183.859978 
L 150.23622 183.859978 
z
" style="fill:#490a3d;"/>
   </g>
   <g id="patch_22">
    <path clip-path="url(#pe9c4f06d2c)" d="M 150.23622 184.214713 
L 66.144543 184.214713 
L 66.144543 182.086299 
L 150.23622 182.086299 
z
" style="fill:#490a3d;"/>
   </g>
   <g id="patch_23">
    <path clip-path="url(#pe9c4f06d2c)" d="M 150.23622 182.441035 
L 64.159654 182.441035 
L 64.159654 180.312621 
L 150.23622 180.312621 
z
" style="fill:#490a3d;"/>
   </g>
   <g id="patch_24">
    <path clip-path="url(#pe9c4f06d2c)" d="M 150.23622 180.667357 
L 64.775835 180.667357 
L 64.775835 178.538943 
L 150.23622 178.538943 
z
" style="fill:#490a3d;"/>
   </g>
   <g id="patch_25">
    <path clip-path="url(#pe9c4f06d2c)" d="M 150.23622 178.893678 
L 63.939402 178.893678 
L 63.939402 176.765264 
L 150.23622 176.765264 
z
" style="fill:#490a3d;"/>
   </g>
   <g id="patch_26">
    <path clip-path="url(#pe9c4f06d2c)" d="M 150.23622 177.12 
L 62.819787 177.12 
L 62.819787 174.991586 
L 150.23622 174.991586 
z
" style="fill:#490a3d;"/>
   </g>
   <g id="patch_27">
    <path clip-path="url(#pe9c4f06d2c)" d="M 150.23622 175.346322 
L 60.900449 175.346322 
L 60.900449 173.217908 
L 150.23622 173.217908 
z
" style="fill:#490a3d;"/>
   </g>
   <g id="patch_28">
    <path clip-path="url(#pe9c4f06d2c)" d="M 150.23622 173.572643 
L 57.363307 173.572643 
L 57.363307 171.444229 
L 150.23622 171.444229 
z
" style="fill:#490a3d;"/>
   </g>
   <g id="patch_29">
    <path clip-path="url(#pe9c4f06d2c)" d="M 150.23622 171.798965 
L 54.051661 171.798965 
L 54.051661 169.670551 
L 150.23622 169.670551 
z
" style="fill:#490a3d;"/>
   </g>
   <g id="patch_30">
    <path clip-path="url(#pe9c4f06d2c)" d="M 150.23622 170.025287 
L 54.513142 170.025287 
L 54.513142 167.896873 
L 150.23622 167.896873 
z
" style="fill:#490a3d;"/>
   </g>
   <g id="patch_31">
    <path clip-path="url(#pe9c4f06d2c)" d="M 150.23622 168.251609 
L 54.266669 168.251609 
L 54.266669 166.123195 
L 150.23622 166.123195 
z
" style="fill:#490a3d;"/>
   </g>
   <g id="patch_32">
    <path clip-path="url(#pe9c4f06d2c)" d="M 150.23622 166.47793 
L 56.76548 166.47793 
L 56.76548 164.349516 
L 150.23622 164.349516 
z
" style="fill:#490a3d;"/>
   </g>
   <g id="patch_33">
    <path clip-path="url(#pe9c4f06d2c)" d="M 150.23622 164.704252 
L 58.163031 164.704252 
L 58.163031 162.575838 
L 150.23622 162.575838 
z
" style="fill:#490a3d;"/>
   </g>
   <g id="patch_34">
    <path clip-path="url(#pe9c4f06d2c)" d="M 150.23622 162.930574 
L 59.471433 162.930574 
L 59.471433 160.80216 
L 150.23622 160.80216 
z
" style="fill:#490a3d;"/>
   </g>
   <g id="patch_35">
    <path clip-path="url(#pe9c4f06d2c)" d="M 150.23622 161.156895 
L 59.985354 161.156895 
L 59.985354 159.028481 
L 150.23622 159.028481 
z
" style="fill:#490a3d;"/>
   </g>
   <g id="patch_36">
    <path clip-path="url(#pe9c4f06d2c)" d="M 150.23622 159.383217 
L 61.579559 159.383217 
L 61.579559 157.254803 
L 150.23622 157.254803 
z
" style="fill:#490a3d;"/>
   </g>
   <g id="patch_37">
    <path clip-path="url(#pe9c4f06d2c)" d="M 150.23622 157.609539 
L 60.376039 157.609539 
L 60.376039 155.481125 
L 150.23622 155.481125 
z
" style="fill:#490a3d;"/>
   </g>
   <g id="patch_38">
    <path clip-path="url(#pe9c4f06d2c)" d="M 150.23622 155.835861 
L 61.708039 155.835861 
L 61.708039 153.707447 
L 150.23622 153.707447 
z
" style="fill:#490a3d;"/>
   </g>
   <g id="patch_39">
    <path clip-path="url(#pe9c4f06d2c)" d="M 150.23622 154.062182 
L 61.152165 154.062182 
L 61.152165 151.933768 
L 150.23622 151.933768 
z
" style="fill:#490a3d;"/>
   </g>
   <g id="patch_40">
    <path clip-path="url(#pe9c4f06d2c)" d="M 150.23622 152.288504 
L 62.279646 152.288504 
L 62.279646 150.16009 
L 150.23622 150.16009 
z
" style="fill:#490a3d;"/>
   </g>
   <g id="patch_41">
    <path clip-path="url(#pe9c4f06d2c)" d="M 150.23622 150.514826 
L 63.05315 150.514826 
L 63.05315 148.386412 
L 150.23622 148.386412 
z
" style="fill:#490a3d;"/>
   </g>
   <g id="patch_42">
    <path clip-path="url(#pe9c4f06d2c)" d="M 150.23622 148.741147 
L 64.93578 148.741147 
L 64.93578 146.612733 
L 150.23622 146.612733 
z
" style="fill:#490a3d;"/>
   </g>
   <g id="patch_43">
    <path clip-path="url(#pe9c4f06d2c)" d="M 150.23622 146.967469 
L 63.07937 146.967469 
L 63.07937 144.839055 
L 150.23622 144.839055 
z
" style="fill:#490a3d;"/>
   </g>
   <g id="patch_44">
    <path clip-path="url(#pe9c4f06d2c)" d="M 150.23622 145.193791 
L 60.147921 145.193791 
L 60.147921 143.065377 
L 150.23622 143.065377 
z
" style="fill:#490a3d;"/>
   </g>
   <g id="patch_45">
    <path clip-path="url(#pe9c4f06d2c)" d="M 150.23622 143.420112 
L 56.217472 143.420112 
L 56.217472 141.291699 
L 150.23622 141.291699 
z
" style="fill:#490a3d;"/>
   </g>
   <g id="patch_46">
    <path clip-path="url(#pe9c4f06d2c)" d="M 150.23622 141.646434 
L 56.768102 141.646434 
L 56.768102 139.51802 
L 150.23622 139.51802 
z
" style="fill:#490a3d;"/>
   </g>
   <g id="patch_47">
    <path clip-path="url(#pe9c4f06d2c)" d="M 150.23622 139.872756 
L 53.20474 139.872756 
L 53.20474 137.744342 
L 150.23622 137.744342 
z
" style="fill:#490a3d;"/>
   </g>
   <g id="patch_48">
    <path clip-path="url(#pe9c4f06d2c)" d="M 150.23622 138.099078 
L 52.787835 138.099078 
L 52.787835 135.970664 
L 150.23622 135.970664 
z
" style="fill:#490a3d;"/>
   </g>
   <g id="patch_49">
    <path clip-path="url(#pe9c4f06d2c)" d="M 150.23622 136.325399 
L 54.017575 136.325399 
L 54.017575 134.196985 
L 150.23622 134.196985 
z
" style="fill:#490a3d;"/>
   </g>
   <g id="patch_50">
    <path clip-path="url(#pe9c4f06d2c)" d="M 150.23622 134.551721 
L 52.111346 134.551721 
L 52.111346 132.423307 
L 150.23622 132.423307 
z
" style="fill:#490a3d;"/>
   </g>
   <g id="patch_51">
    <path clip-path="url(#pe9c4f06d2c)" d="M 150.23622 132.778043 
L 53.115591 132.778043 
L 53.115591 130.649629 
L 150.23622 130.649629 
z
" style="fill:#490a3d;"/>
   </g>
   <g id="patch_52">
    <path clip-path="url(#pe9c4f06d2c)" d="M 150.23622 131.004364 
L 55.596047 131.004364 
L 55.596047 128.875951 
L 150.23622 128.875951 
z
" style="fill:#490a3d;"/>
   </g>
   <g id="patch_53">
    <path clip-path="url(#pe9c4f06d2c)" d="M 150.23622 129.230686 
L 56.998843 129.230686 
L 56.998843 127.102272 
L 150.23622 127.102272 
z
" style="fill:#490a3d;"/>
   </g>
   <g id="patch_54">
    <path clip-path="url(#pe9c4f06d2c)" d="M 150.23622 127.457008 
L 58.317732 127.457008 
L 58.317732 125.328594 
L 150.23622 125.328594 
z
" style="fill:#490a3d;"/>
   </g>
   <g id="patch_55">
    <path clip-path="url(#pe9c4f06d2c)" d="M 150.23622 125.68333 
L 59.906693 125.68333 
L 59.906693 123.554916 
L 150.23622 123.554916 
z
" style="fill:#490a3d;"/>
   </g>
   <g id="patch_56">
    <path clip-path="url(#pe9c4f06d2c)" d="M 150.23622 123.909651 
L 62.662465 123.909651 
L 62.662465 121.781237 
L 150.23622 121.781237 
z
" style="fill:#490a3d;"/>
   </g>
   <g id="patch_57">
    <path clip-path="url(#pe9c4f06d2c)" d="M 150.23622 122.135973 
L 65.575559 122.135973 
L 65.575559 120.007559 
L 150.23622 120.007559 
z
" style="fill:#490a3d;"/>
   </g>
   <g id="patch_58">
    <path clip-path="url(#pe9c4f06d2c)" d="M 150.23622 120.362295 
L 66.726638 120.362295 
L 66.726638 118.233881 
L 150.23622 118.233881 
z
" style="fill:#490a3d;"/>
   </g>
   <g id="patch_59">
    <path clip-path="url(#pe9c4f06d2c)" d="M 150.23622 118.588616 
L 67.833142 118.588616 
L 67.833142 116.460202 
L 150.23622 116.460202 
z
" style="fill:#490a3d;"/>
   </g>
   <g id="patch_60">
    <path clip-path="url(#pe9c4f06d2c)" d="M 150.23622 116.814938 
L 68.035039 116.814938 
L 68.035039 114.686524 
L 150.23622 114.686524 
z
" style="fill:#490a3d;"/>
   </g>
   <g id="patch_61">
    <path clip-path="url(#pe9c4f06d2c)" d="M 150.23622 115.04126 
L 68.315598 115.04126 
L 68.315598 112.912846 
L 150.23622 112.912846 
z
" style="fill:#490a3d;"/>
   </g>
   <g id="patch_62">
    <path clip-path="url(#pe9c4f06d2c)" d="M 150.23622 113.267582 
L 70.035661 113.267582 
L 70.035661 111.139168 
L 150.23622 111.139168 
z
" style="fill:#490a3d;"/>
   </g>
   <g id="patch_63">
    <path clip-path="url(#pe9c4f06d2c)" d="M 150.23622 111.493903 
L 68.934402 111.493903 
L 68.934402 109.365489 
L 150.23622 109.365489 
z
" style="fill:#490a3d;"/>
   </g>
   <g id="patch_64">
    <path clip-path="url(#pe9c4f06d2c)" d="M 150.23622 109.720225 
L 71.333575 109.720225 
L 71.333575 107.591811 
L 150.23622 107.591811 
z
" style="fill:#490a3d;"/>
   </g>
   <g id="patch_65">
    <path clip-path="url(#pe9c4f06d2c)" d="M 150.23622 107.946547 
L 72.977598 107.946547 
L 72.977598 105.818133 
L 150.23622 105.818133 
z
" style="fill:#490a3d;"/>
   </g>
   <g id="patch_66">
    <path clip-path="url(#pe9c4f06d2c)" d="M 150.23622 106.172868 
L 73.924157 106.172868 
L 73.924157 104.044454 
L 150.23622 104.044454 
z
" style="fill:#490a3d;"/>
   </g>
   <g id="patch_67">
    <path clip-path="url(#pe9c4f06d2c)" d="M 150.23622 104.39919 
L 75.678307 104.39919 
L 75.678307 102.270776 
L 150.23622 102.270776 
z
" style="fill:#490a3d;"/>
   </g>
   <g id="patch_68">
    <path clip-path="url(#pe9c4f06d2c)" d="M 150.23622 102.625512 
L 79.949622 102.625512 
L 79.949622 100.497098 
L 150.23622 100.497098 
z
" style="fill:#490a3d;"/>
   </g>
   <g id="patch_69">
    <path clip-path="url(#pe9c4f06d2c)" d="M 150.23622 100.851834 
L 78.60189 100.851834 
L 78.60189 98.72342 
L 150.23622 98.72342 
z
" style="fill:#490a3d;"/>
   </g>
   <g id="patch_70">
    <path clip-path="url(#pe9c4f06d2c)" d="M 150.23622 99.078155 
L 78.74348 99.078155 
L 78.74348 96.949741 
L 150.23622 96.949741 
z
" style="fill:#490a3d;"/>
   </g>
   <g id="patch_71">
    <path clip-path="url(#pe9c4f06d2c)" d="M 150.23622 97.304477 
L 78.575669 97.304477 
L 78.575669 95.176063 
L 150.23622 95.176063 
z
" style="fill:#490a3d;"/>
   </g>
   <g id="patch_72">
    <path clip-path="url(#pe9c4f06d2c)" d="M 150.23622 95.530799 
L 76.748102 95.530799 
L 76.748102 93.402385 
L 150.23622 93.402385 
z
" style="fill:#490a3d;"/>
   </g>
   <g id="patch_73">
    <path clip-path="url(#pe9c4f06d2c)" d="M 150.23622 93.75712 
L 75.046394 93.75712 
L 75.046394 91.628706 
L 150.23622 91.628706 
z
" style="fill:#490a3d;"/>
   </g>
   <g id="patch_74">
    <path clip-path="url(#pe9c4f06d2c)" d="M 150.23622 91.983442 
L 83.332063 91.983442 
L 83.332063 89.855028 
L 150.23622 89.855028 
z
" style="fill:#490a3d;"/>
   </g>
   <g id="patch_75">
    <path clip-path="url(#pe9c4f06d2c)" d="M 150.23622 90.209764 
L 87.057992 90.209764 
L 87.057992 88.08135 
L 150.23622 88.08135 
z
" style="fill:#490a3d;"/>
   </g>
   <g id="patch_76">
    <path clip-path="url(#pe9c4f06d2c)" d="M 150.23622 88.436085 
L 94.638331 88.436085 
L 94.638331 86.307672 
L 150.23622 86.307672 
z
" style="fill:#490a3d;"/>
   </g>
   <g id="patch_77">
    <path clip-path="url(#pe9c4f06d2c)" d="M 150.23622 86.662407 
L 99.095811 86.662407 
L 99.095811 84.533993 
L 150.23622 84.533993 
z
" style="fill:#490a3d;"/>
   </g>
   <g id="patch_78">
    <path clip-path="url(#pe9c4f06d2c)" d="M 150.23622 84.888729 
L 105.997039 84.888729 
L 105.997039 82.760315 
L 150.23622 82.760315 
z
" style="fill:#490a3d;"/>
   </g>
   <g id="patch_79">
    <path clip-path="url(#pe9c4f06d2c)" d="M 150.23622 83.115051 
L 105.260244 83.115051 
L 105.260244 80.986637 
L 150.23622 80.986637 
z
" style="fill:#490a3d;"/>
   </g>
   <g id="patch_80">
    <path clip-path="url(#pe9c4f06d2c)" d="M 150.23622 81.341372 
L 107.255622 81.341372 
L 107.255622 79.212958 
L 150.23622 79.212958 
z
" style="fill:#490a3d;"/>
   </g>
   <g id="patch_81">
    <path clip-path="url(#pe9c4f06d2c)" d="M 150.23622 79.567694 
L 109.940598 79.567694 
L 109.940598 77.43928 
L 150.23622 77.43928 
z
" style="fill:#490a3d;"/>
   </g>
   <g id="patch_82">
    <path clip-path="url(#pe9c4f06d2c)" d="M 150.23622 77.794016 
L 112.761921 77.794016 
L 112.761921 75.665602 
L 150.23622 75.665602 
z
" style="fill:#490a3d;"/>
   </g>
   <g id="patch_83">
    <path clip-path="url(#pe9c4f06d2c)" d="M 150.23622 76.020337 
L 115.208291 76.020337 
L 115.208291 73.891924 
L 150.23622 73.891924 
z
" style="fill:#490a3d;"/>
   </g>
   <g id="patch_84">
    <path clip-path="url(#pe9c4f06d2c)" d="M 150.23622 74.246659 
L 117.387213 74.246659 
L 117.387213 72.118245 
L 150.23622 72.118245 
z
" style="fill:#490a3d;"/>
   </g>
   <g id="patch_85">
    <path clip-path="url(#pe9c4f06d2c)" d="M 150.23622 72.472981 
L 119.303929 72.472981 
L 119.303929 70.344567 
L 150.23622 70.344567 
z
" style="fill:#490a3d;"/>
   </g>
   <g id="patch_86">
    <path clip-path="url(#pe9c4f06d2c)" d="M 150.23622 70.699303 
L 120.866669 70.699303 
L 120.866669 68.570889 
L 150.23622 68.570889 
z
" style="fill:#490a3d;"/>
   </g>
   <g id="patch_87">
    <path clip-path="url(#pe9c4f06d2c)" d="M 150.23622 68.925624 
L 120.394701 68.925624 
L 120.394701 66.79721 
L 150.23622 66.79721 
z
" style="fill:#490a3d;"/>
   </g>
   <g id="patch_88">
    <path clip-path="url(#pe9c4f06d2c)" d="M 150.23622 67.151946 
L 122.078055 67.151946 
L 122.078055 65.023532 
L 150.23622 65.023532 
z
" style="fill:#490a3d;"/>
   </g>
   <g id="patch_89">
    <path clip-path="url(#pe9c4f06d2c)" d="M 150.23622 65.378268 
L 123.816472 65.378268 
L 123.816472 63.249854 
L 150.23622 63.249854 
z
" style="fill:#490a3d;"/>
   </g>
   <g id="patch_90">
    <path clip-path="url(#pe9c4f06d2c)" d="M 150.23622 63.604589 
L 127.00226 63.604589 
L 127.00226 61.476175 
L 150.23622 61.476175 
z
" style="fill:#490a3d;"/>
   </g>
   <g id="patch_91">
    <path clip-path="url(#pe9c4f06d2c)" d="M 150.23622 61.830911 
L 128.394567 61.830911 
L 128.394567 59.702497 
L 150.23622 59.702497 
z
" style="fill:#490a3d;"/>
   </g>
   <g id="patch_92">
    <path clip-path="url(#pe9c4f06d2c)" d="M 150.23622 60.057233 
L 131.184425 60.057233 
L 131.184425 57.928819 
L 150.23622 57.928819 
z
" style="fill:#490a3d;"/>
   </g>
   <g id="patch_93">
    <path clip-path="url(#pe9c4f06d2c)" d="M 150.23622 58.283555 
L 132.781252 58.283555 
L 132.781252 56.155141 
L 150.23622 56.155141 
z
" style="fill:#490a3d;"/>
   </g>
   <g id="patch_94">
    <path clip-path="url(#pe9c4f06d2c)" d="M 150.23622 56.509876 
L 135.670748 56.509876 
L 135.670748 54.381462 
L 150.23622 54.381462 
z
" style="fill:#490a3d;"/>
   </g>
   <g id="patch_95">
    <path clip-path="url(#pe9c4f06d2c)" d="M 150.23622 54.736198 
L 137.479961 54.736198 
L 137.479961 52.607784 
L 150.23622 52.607784 
z
" style="fill:#490a3d;"/>
   </g>
   <g id="patch_96">
    <path clip-path="url(#pe9c4f06d2c)" d="M 150.23622 52.96252 
L 139.968283 52.96252 
L 139.968283 50.834106 
L 150.23622 50.834106 
z
" style="fill:#490a3d;"/>
   </g>
   <g id="patch_97">
    <path clip-path="url(#pe9c4f06d2c)" d="M 150.23622 51.188841 
L 141.677858 51.188841 
L 141.677858 49.060427 
L 150.23622 49.060427 
z
" style="fill:#490a3d;"/>
   </g>
   <g id="patch_98">
    <path clip-path="url(#pe9c4f06d2c)" d="M 150.23622 49.415163 
L 143.481827 49.415163 
L 143.481827 47.286749 
L 150.23622 47.286749 
z
" style="fill:#490a3d;"/>
   </g>
   <g id="patch_99">
    <path clip-path="url(#pe9c4f06d2c)" d="M 150.23622 47.641485 
L 145.175669 47.641485 
L 145.175669 45.513071 
L 150.23622 45.513071 
z
" style="fill:#490a3d;"/>
   </g>
   <g id="patch_100">
    <path clip-path="url(#pe9c4f06d2c)" d="M 150.23622 45.867807 
L 147.142205 45.867807 
L 147.142205 43.739393 
L 150.23622 43.739393 
z
" style="fill:#490a3d;"/>
   </g>
   <g id="patch_101">
    <path clip-path="url(#pe9c4f06d2c)" d="M 150.23622 44.094128 
L 148.09663 44.094128 
L 148.09663 41.965714 
L 150.23622 41.965714 
z
" style="fill:#490a3d;"/>
   </g>
   <g id="patch_102">
    <path clip-path="url(#pe9c4f06d2c)" d="M 150.23622 42.32045 
L 148.849157 42.32045 
L 148.849157 40.192036 
L 150.23622 40.192036 
z
" style="fill:#490a3d;"/>
   </g>
   <g id="patch_103">
    <path clip-path="url(#pe9c4f06d2c)" d="M 150.23622 40.546772 
L 149.378811 40.546772 
L 149.378811 38.418358 
L 150.23622 38.418358 
z
" style="fill:#490a3d;"/>
   </g>
   <g id="patch_104">
    <path clip-path="url(#pe9c4f06d2c)" d="M 150.23622 38.773093 
L 149.703945 38.773093 
L 149.703945 36.644679 
L 150.23622 36.644679 
z
" style="fill:#490a3d;"/>
   </g>
   <g id="patch_105">
    <path clip-path="url(#pe9c4f06d2c)" d="M 150.23622 36.999415 
L 149.942551 36.999415 
L 149.942551 34.871001 
L 150.23622 34.871001 
z
" style="fill:#490a3d;"/>
   </g>
   <g id="patch_106">
    <path clip-path="url(#pe9c4f06d2c)" d="M 150.23622 35.225737 
L 150.063165 35.225737 
L 150.063165 33.097323 
L 150.23622 33.097323 
z
" style="fill:#490a3d;"/>
   </g>
   <g id="patch_107">
    <path clip-path="url(#pe9c4f06d2c)" d="M 150.23622 33.452058 
L 150.123472 33.452058 
L 150.123472 31.323645 
L 150.23622 31.323645 
z
" style="fill:#490a3d;"/>
   </g>
   <g id="patch_108">
    <path clip-path="url(#pe9c4f06d2c)" d="M 150.23622 31.67838 
L 150.12085 31.67838 
L 150.12085 29.549966 
L 150.23622 29.549966 
z
" style="fill:#490a3d;"/>
   </g>
   <g id="patch_109">
    <path clip-path="url(#pe9c4f06d2c)" d="M 150.23622 217.914601 
L 230.601969 217.914601 
L 230.601969 215.786187 
L 150.23622 215.786187 
z
" style="fill:#bd1550;"/>
   </g>
   <g id="patch_110">
    <path clip-path="url(#pe9c4f06d2c)" d="M 150.23622 216.140922 
L 231.157843 216.140922 
L 231.157843 214.012508 
L 150.23622 214.012508 
z
" style="fill:#bd1550;"/>
   </g>
   <g id="patch_111">
    <path clip-path="url(#pe9c4f06d2c)" d="M 150.23622 214.367244 
L 231.802866 214.367244 
L 231.802866 212.23883 
L 150.23622 212.23883 
z
" style="fill:#bd1550;"/>
   </g>
   <g id="patch_112">
    <path clip-path="url(#pe9c4f06d2c)" d="M 150.23622 212.593566 
L 231.582614 212.593566 
L 231.582614 210.465152 
L 150.23622 210.465152 
z
" style="fill:#bd1550;"/>
   </g>
   <g id="patch_113">
    <path clip-path="url(#pe9c4f06d2c)" d="M 150.23622 210.819888 
L 234.700228 210.819888 
L 234.700228 208.691474 
L 150.23622 208.691474 
z
" style="fill:#bd1550;"/>
   </g>
   <g id="patch_114">
    <path clip-path="url(#pe9c4f06d2c)" d="M 150.23622 209.046209 
L 235.54715 209.046209 
L 235.54715 206.917795 
L 150.23622 206.917795 
z
" style="fill:#bd1550;"/>
   </g>
   <g id="patch_115">
    <path clip-path="url(#pe9c4f06d2c)" d="M 150.23622 207.272531 
L 237.697228 207.272531 
L 237.697228 205.144117 
L 150.23622 205.144117 
z
" style="fill:#bd1550;"/>
   </g>
   <g id="patch_116">
    <path clip-path="url(#pe9c4f06d2c)" d="M 150.23622 205.498853 
L 239.204906 205.498853 
L 239.204906 203.370439 
L 150.23622 203.370439 
z
" style="fill:#bd1550;"/>
   </g>
   <g id="patch_117">
    <path clip-path="url(#pe9c4f06d2c)" d="M 150.23622 203.725174 
L 237.90437 203.725174 
L 237.90437 201.59676 
L 150.23622 201.59676 
z
" style="fill:#bd1550;"/>
   </g>
   <g id="patch_118">
    <path clip-path="url(#pe9c4f06d2c)" d="M 150.23622 201.951496 
L 235.429157 201.951496 
L 235.429157 199.823082 
L 150.23622 199.823082 
z
" style="fill:#bd1550;"/>
   </g>
   <g id="patch_119">
    <path clip-path="url(#pe9c4f06d2c)" d="M 150.23622 200.177818 
L 235.680874 200.177818 
L 235.680874 198.049404 
L 150.23622 198.049404 
z
" style="fill:#bd1550;"/>
   </g>
   <g id="patch_120">
    <path clip-path="url(#pe9c4f06d2c)" d="M 150.23622 198.404139 
L 233.480976 198.404139 
L 233.480976 196.275726 
L 150.23622 196.275726 
z
" style="fill:#bd1550;"/>
   </g>
   <g id="patch_121">
    <path clip-path="url(#pe9c4f06d2c)" d="M 150.23622 196.630461 
L 234.021118 196.630461 
L 234.021118 194.502047 
L 150.23622 194.502047 
z
" style="fill:#bd1550;"/>
   </g>
   <g id="patch_122">
    <path clip-path="url(#pe9c4f06d2c)" d="M 150.23622 194.856783 
L 233.470488 194.856783 
L 233.470488 192.728369 
L 150.23622 192.728369 
z
" style="fill:#bd1550;"/>
   </g>
   <g id="patch_123">
    <path clip-path="url(#pe9c4f06d2c)" d="M 150.23622 193.083105 
L 231.844819 193.083105 
L 231.844819 190.954691 
L 150.23622 190.954691 
z
" style="fill:#bd1550;"/>
   </g>
   <g id="patch_124">
    <path clip-path="url(#pe9c4f06d2c)" d="M 150.23622 191.309426 
L 234.123378 191.309426 
L 234.123378 189.181012 
L 150.23622 189.181012 
z
" style="fill:#bd1550;"/>
   </g>
   <g id="patch_125">
    <path clip-path="url(#pe9c4f06d2c)" d="M 150.23622 189.535748 
L 238.591346 189.535748 
L 238.591346 187.407334 
L 150.23622 187.407334 
z
" style="fill:#bd1550;"/>
   </g>
   <g id="patch_126">
    <path clip-path="url(#pe9c4f06d2c)" d="M 150.23622 187.76207 
L 239.758157 187.76207 
L 239.758157 185.633656 
L 150.23622 185.633656 
z
" style="fill:#bd1550;"/>
   </g>
   <g id="patch_127">
    <path clip-path="url(#pe9c4f06d2c)" d="M 150.23622 185.988391 
L 238.491709 185.988391 
L 238.491709 183.859978 
L 150.23622 183.859978 
z
" style="fill:#bd1550;"/>
   </g>
   <g id="patch_128">
    <path clip-path="url(#pe9c4f06d2c)" d="M 150.23622 184.214713 
L 240.615567 184.214713 
L 240.615567 182.086299 
L 150.23622 182.086299 
z
" style="fill:#bd1550;"/>
   </g>
   <g id="patch_129">
    <path clip-path="url(#pe9c4f06d2c)" d="M 150.23622 182.441035 
L 242.558504 182.441035 
L 242.558504 180.312621 
L 150.23622 180.312621 
z
" style="fill:#bd1550;"/>
   </g>
   <g id="patch_130">
    <path clip-path="url(#pe9c4f06d2c)" d="M 150.23622 180.667357 
L 242.558504 180.667357 
L 242.558504 178.538943 
L 150.23622 178.538943 
z
" style="fill:#bd1550;"/>
   </g>
   <g id="patch_131">
    <path clip-path="url(#pe9c4f06d2c)" d="M 150.23622 178.893678 
L 242.359228 178.893678 
L 242.359228 176.765264 
L 150.23622 176.765264 
z
" style="fill:#bd1550;"/>
   </g>
   <g id="patch_132">
    <path clip-path="url(#pe9c4f06d2c)" d="M 150.23622 177.12 
L 243.182551 177.12 
L 243.182551 174.991586 
L 150.23622 174.991586 
z
" style="fill:#bd1550;"/>
   </g>
   <g id="patch_133">
    <path clip-path="url(#pe9c4f06d2c)" d="M 150.23622 175.346322 
L 246.090402 175.346322 
L 246.090402 173.217908 
L 150.23622 173.217908 
z
" style="fill:#bd1550;"/>
   </g>
   <g id="patch_134">
    <path clip-path="url(#pe9c4f06d2c)" d="M 150.23622 173.572643 
L 247.710827 173.572643 
L 247.710827 171.444229 
L 150.23622 171.444229 
z
" style="fill:#bd1550;"/>
   </g>
   <g id="patch_135">
    <path clip-path="url(#pe9c4f06d2c)" d="M 150.23622 171.798965 
L 249.543638 171.798965 
L 249.543638 169.670551 
L 150.23622 169.670551 
z
" style="fill:#bd1550;"/>
   </g>
   <g id="patch_136">
    <path clip-path="url(#pe9c4f06d2c)" d="M 150.23622 170.025287 
L 249.561992 170.025287 
L 249.561992 167.896873 
L 150.23622 167.896873 
z
" style="fill:#bd1550;"/>
   </g>
   <g id="patch_137">
    <path clip-path="url(#pe9c4f06d2c)" d="M 150.23622 168.251609 
L 249.058559 168.251609 
L 249.058559 166.123195 
L 150.23622 166.123195 
z
" style="fill:#bd1550;"/>
   </g>
   <g id="patch_138">
    <path clip-path="url(#pe9c4f06d2c)" d="M 150.23622 166.47793 
L 245.836063 166.47793 
L 245.836063 164.349516 
L 150.23622 164.349516 
z
" style="fill:#bd1550;"/>
   </g>
   <g id="patch_139">
    <path clip-path="url(#pe9c4f06d2c)" d="M 150.23622 164.704252 
L 247.320142 164.704252 
L 247.320142 162.575838 
L 150.23622 162.575838 
z
" style="fill:#bd1550;"/>
   </g>
   <g id="patch_140">
    <path clip-path="url(#pe9c4f06d2c)" d="M 150.23622 162.930574 
L 245.820331 162.930574 
L 245.820331 160.80216 
L 150.23622 160.80216 
z
" style="fill:#bd1550;"/>
   </g>
   <g id="patch_141">
    <path clip-path="url(#pe9c4f06d2c)" d="M 150.23622 161.156895 
L 245.091402 161.156895 
L 245.091402 159.028481 
L 150.23622 159.028481 
z
" style="fill:#bd1550;"/>
   </g>
   <g id="patch_142">
    <path clip-path="url(#pe9c4f06d2c)" d="M 150.23622 159.383217 
L 245.736425 159.383217 
L 245.736425 157.254803 
L 150.23622 157.254803 
z
" style="fill:#bd1550;"/>
   </g>
   <g id="patch_143">
    <path clip-path="url(#pe9c4f06d2c)" d="M 150.23622 157.609539 
L 246.12711 157.609539 
L 246.12711 155.481125 
L 150.23622 155.481125 
z
" style="fill:#bd1550;"/>
   </g>
   <g id="patch_144">
    <path clip-path="url(#pe9c4f06d2c)" d="M 150.23622 155.835861 
L 243.279567 155.835861 
L 243.279567 153.707447 
L 150.23622 153.707447 
z
" style="fill:#bd1550;"/>
   </g>
   <g id="patch_145">
    <path clip-path="url(#pe9c4f06d2c)" d="M 150.23622 154.062182 
L 245.647276 154.062182 
L 245.647276 151.933768 
L 150.23622 151.933768 
z
" style="fill:#bd1550;"/>
   </g>
   <g id="patch_146">
    <path clip-path="url(#pe9c4f06d2c)" d="M 150.23622 152.288504 
L 244.294299 152.288504 
L 244.294299 150.16009 
L 150.23622 150.16009 
z
" style="fill:#bd1550;"/>
   </g>
   <g id="patch_147">
    <path clip-path="url(#pe9c4f06d2c)" d="M 150.23622 150.514826 
L 243.832819 150.514826 
L 243.832819 148.386412 
L 150.23622 148.386412 
z
" style="fill:#bd1550;"/>
   </g>
   <g id="patch_148">
    <path clip-path="url(#pe9c4f06d2c)" d="M 150.23622 148.741147 
L 241.053449 148.741147 
L 241.053449 146.612733 
L 150.23622 146.612733 
z
" style="fill:#bd1550;"/>
   </g>
   <g id="patch_149">
    <path clip-path="url(#pe9c4f06d2c)" d="M 150.23622 146.967469 
L 243.560126 146.967469 
L 243.560126 144.839055 
L 150.23622 144.839055 
z
" style="fill:#bd1550;"/>
   </g>
   <g id="patch_150">
    <path clip-path="url(#pe9c4f06d2c)" d="M 150.23622 145.193791 
L 245.33263 145.193791 
L 245.33263 143.065377 
L 150.23622 143.065377 
z
" style="fill:#bd1550;"/>
   </g>
   <g id="patch_151">
    <path clip-path="url(#pe9c4f06d2c)" d="M 150.23622 143.420112 
L 249.131976 143.420112 
L 249.131976 141.291699 
L 150.23622 141.291699 
z
" style="fill:#bd1550;"/>
   </g>
   <g id="patch_152">
    <path clip-path="url(#pe9c4f06d2c)" d="M 150.23622 141.646434 
L 250.272567 141.646434 
L 250.272567 139.51802 
L 150.23622 139.51802 
z
" style="fill:#bd1550;"/>
   </g>
   <g id="patch_153">
    <path clip-path="url(#pe9c4f06d2c)" d="M 150.23622 139.872756 
L 252.949677 139.872756 
L 252.949677 137.744342 
L 150.23622 137.744342 
z
" style="fill:#bd1550;"/>
   </g>
   <g id="patch_154">
    <path clip-path="url(#pe9c4f06d2c)" d="M 150.23622 138.099078 
L 252.648142 138.099078 
L 252.648142 135.970664 
L 150.23622 135.970664 
z
" style="fill:#bd1550;"/>
   </g>
   <g id="patch_155">
    <path clip-path="url(#pe9c4f06d2c)" d="M 150.23622 136.325399 
L 251.80122 136.325399 
L 251.80122 134.196985 
L 150.23622 134.196985 
z
" style="fill:#bd1550;"/>
   </g>
   <g id="patch_156">
    <path clip-path="url(#pe9c4f06d2c)" d="M 150.23622 134.551721 
L 253.694339 134.551721 
L 253.694339 132.423307 
L 150.23622 132.423307 
z
" style="fill:#bd1550;"/>
   </g>
   <g id="patch_157">
    <path clip-path="url(#pe9c4f06d2c)" d="M 150.23622 132.778043 
L 252.726803 132.778043 
L 252.726803 130.649629 
L 150.23622 130.649629 
z
" style="fill:#bd1550;"/>
   </g>
   <g id="patch_158">
    <path clip-path="url(#pe9c4f06d2c)" d="M 150.23622 131.004364 
L 249.779622 131.004364 
L 249.779622 128.875951 
L 150.23622 128.875951 
z
" style="fill:#bd1550;"/>
   </g>
   <g id="patch_159">
    <path clip-path="url(#pe9c4f06d2c)" d="M 150.23622 129.230686 
L 250.015606 129.230686 
L 250.015606 127.102272 
L 150.23622 127.102272 
z
" style="fill:#bd1550;"/>
   </g>
   <g id="patch_160">
    <path clip-path="url(#pe9c4f06d2c)" d="M 150.23622 127.457008 
L 248.135598 127.457008 
L 248.135598 125.328594 
L 150.23622 125.328594 
z
" style="fill:#bd1550;"/>
   </g>
   <g id="patch_161">
    <path clip-path="url(#pe9c4f06d2c)" d="M 150.23622 125.68333 
L 246.234614 125.68333 
L 246.234614 123.554916 
L 150.23622 123.554916 
z
" style="fill:#bd1550;"/>
   </g>
   <g id="patch_162">
    <path clip-path="url(#pe9c4f06d2c)" d="M 150.23622 123.909651 
L 241.281567 123.909651 
L 241.281567 121.781237 
L 150.23622 121.781237 
z
" style="fill:#bd1550;"/>
   </g>
   <g id="patch_163">
    <path clip-path="url(#pe9c4f06d2c)" d="M 150.23622 122.135973 
L 239.501197 122.135973 
L 239.501197 120.007559 
L 150.23622 120.007559 
z
" style="fill:#bd1550;"/>
   </g>
   <g id="patch_164">
    <path clip-path="url(#pe9c4f06d2c)" d="M 150.23622 120.362295 
L 237.508441 120.362295 
L 237.508441 118.233881 
L 150.23622 118.233881 
z
" style="fill:#bd1550;"/>
   </g>
   <g id="patch_165">
    <path clip-path="url(#pe9c4f06d2c)" d="M 150.23622 118.588616 
L 236.438646 118.588616 
L 236.438646 116.460202 
L 150.23622 116.460202 
z
" style="fill:#bd1550;"/>
   </g>
   <g id="patch_166">
    <path clip-path="url(#pe9c4f06d2c)" d="M 150.23622 116.814938 
L 236.394071 116.814938 
L 236.394071 114.686524 
L 150.23622 114.686524 
z
" style="fill:#bd1550;"/>
   </g>
   <g id="patch_167">
    <path clip-path="url(#pe9c4f06d2c)" d="M 150.23622 115.04126 
L 234.739559 115.04126 
L 234.739559 112.912846 
L 150.23622 112.912846 
z
" style="fill:#bd1550;"/>
   </g>
   <g id="patch_168">
    <path clip-path="url(#pe9c4f06d2c)" d="M 150.23622 113.267582 
L 232.379717 113.267582 
L 232.379717 111.139168 
L 150.23622 111.139168 
z
" style="fill:#bd1550;"/>
   </g>
   <g id="patch_169">
    <path clip-path="url(#pe9c4f06d2c)" d="M 150.23622 111.493903 
L 232.673386 111.493903 
L 232.673386 109.365489 
L 150.23622 109.365489 
z
" style="fill:#bd1550;"/>
   </g>
   <g id="patch_170">
    <path clip-path="url(#pe9c4f06d2c)" d="M 150.23622 109.720225 
L 230.295189 109.720225 
L 230.295189 107.591811 
L 150.23622 107.591811 
z
" style="fill:#bd1550;"/>
   </g>
   <g id="patch_171">
    <path clip-path="url(#pe9c4f06d2c)" d="M 150.23622 107.946547 
L 227.783268 107.946547 
L 227.783268 105.818133 
L 150.23622 105.818133 
z
" style="fill:#bd1550;"/>
   </g>
   <g id="patch_172">
    <path clip-path="url(#pe9c4f06d2c)" d="M 150.23622 106.172868 
L 226.267724 106.172868 
L 226.267724 104.044454 
L 150.23622 104.044454 
z
" style="fill:#bd1550;"/>
   </g>
   <g id="patch_173">
    <path clip-path="url(#pe9c4f06d2c)" d="M 150.23622 104.39919 
L 225.145488 104.39919 
L 225.145488 102.270776 
L 150.23622 102.270776 
z
" style="fill:#bd1550;"/>
   </g>
   <g id="patch_174">
    <path clip-path="url(#pe9c4f06d2c)" d="M 150.23622 102.625512 
L 221.728961 102.625512 
L 221.728961 100.497098 
L 150.23622 100.497098 
z
" style="fill:#bd1550;"/>
   </g>
   <g id="patch_175">
    <path clip-path="url(#pe9c4f06d2c)" d="M 150.23622 100.851834 
L 222.153732 100.851834 
L 222.153732 98.72342 
L 150.23622 98.72342 
z
" style="fill:#bd1550;"/>
   </g>
   <g id="patch_176">
    <path clip-path="url(#pe9c4f06d2c)" d="M 150.23622 99.078155 
L 221.694874 99.078155 
L 221.694874 96.949741 
L 150.23622 96.949741 
z
" style="fill:#bd1550;"/>
   </g>
   <g id="patch_177">
    <path clip-path="url(#pe9c4f06d2c)" d="M 150.23622 97.304477 
L 222.082937 97.304477 
L 222.082937 95.176063 
L 150.23622 95.176063 
z
" style="fill:#bd1550;"/>
   </g>
   <g id="patch_178">
    <path clip-path="url(#pe9c4f06d2c)" d="M 150.23622 95.530799 
L 221.967567 95.530799 
L 221.967567 93.402385 
L 150.23622 93.402385 
z
" style="fill:#bd1550;"/>
   </g>
   <g id="patch_179">
    <path clip-path="url(#pe9c4f06d2c)" d="M 150.23622 93.75712 
L 223.480488 93.75712 
L 223.480488 91.628706 
L 150.23622 91.628706 
z
" style="fill:#bd1550;"/>
   </g>
   <g id="patch_180">
    <path clip-path="url(#pe9c4f06d2c)" d="M 150.23622 91.983442 
L 214.059472 91.983442 
L 214.059472 89.855028 
L 150.23622 89.855028 
z
" style="fill:#bd1550;"/>
   </g>
   <g id="patch_181">
    <path clip-path="url(#pe9c4f06d2c)" d="M 150.23622 90.209764 
L 210.619346 90.209764 
L 210.619346 88.08135 
L 150.23622 88.08135 
z
" style="fill:#bd1550;"/>
   </g>
   <g id="patch_182">
    <path clip-path="url(#pe9c4f06d2c)" d="M 150.23622 88.436085 
L 202.551307 88.436085 
L 202.551307 86.307672 
L 150.23622 86.307672 
z
" style="fill:#bd1550;"/>
   </g>
   <g id="patch_183">
    <path clip-path="url(#pe9c4f06d2c)" d="M 150.23622 86.662407 
L 196.929638 86.662407 
L 196.929638 84.533993 
L 150.23622 84.533993 
z
" style="fill:#bd1550;"/>
   </g>
   <g id="patch_184">
    <path clip-path="url(#pe9c4f06d2c)" d="M 150.23622 84.888729 
L 189.386008 84.888729 
L 189.386008 82.760315 
L 150.23622 82.760315 
z
" style="fill:#bd1550;"/>
   </g>
   <g id="patch_185">
    <path clip-path="url(#pe9c4f06d2c)" d="M 150.23622 83.115051 
L 189.656079 83.115051 
L 189.656079 80.986637 
L 150.23622 80.986637 
z
" style="fill:#bd1550;"/>
   </g>
   <g id="patch_186">
    <path clip-path="url(#pe9c4f06d2c)" d="M 150.23622 81.341372 
L 186.656457 81.341372 
L 186.656457 79.212958 
L 150.23622 79.212958 
z
" style="fill:#bd1550;"/>
   </g>
   <g id="patch_187">
    <path clip-path="url(#pe9c4f06d2c)" d="M 150.23622 79.567694 
L 183.882331 79.567694 
L 183.882331 77.43928 
L 150.23622 77.43928 
z
" style="fill:#bd1550;"/>
   </g>
   <g id="patch_188">
    <path clip-path="url(#pe9c4f06d2c)" d="M 150.23622 77.794016 
L 180.560197 77.794016 
L 180.560197 75.665602 
L 150.23622 75.665602 
z
" style="fill:#bd1550;"/>
   </g>
   <g id="patch_189">
    <path clip-path="url(#pe9c4f06d2c)" d="M 150.23622 76.020337 
L 177.914551 76.020337 
L 177.914551 73.891924 
L 150.23622 73.891924 
z
" style="fill:#bd1550;"/>
   </g>
   <g id="patch_190">
    <path clip-path="url(#pe9c4f06d2c)" d="M 150.23622 74.246659 
L 174.74974 74.246659 
L 174.74974 72.118245 
L 150.23622 72.118245 
z
" style="fill:#bd1550;"/>
   </g>
   <g id="patch_191">
    <path clip-path="url(#pe9c4f06d2c)" d="M 150.23622 72.472981 
L 172.979858 72.472981 
L 172.979858 70.344567 
L 150.23622 70.344567 
z
" style="fill:#bd1550;"/>
   </g>
   <g id="patch_192">
    <path clip-path="url(#pe9c4f06d2c)" d="M 150.23622 70.699303 
L 171.257173 70.699303 
L 171.257173 68.570889 
L 150.23622 68.570889 
z
" style="fill:#bd1550;"/>
   </g>
   <g id="patch_193">
    <path clip-path="url(#pe9c4f06d2c)" d="M 150.23622 68.925624 
L 170.530866 68.925624 
L 170.530866 66.79721 
L 150.23622 66.79721 
z
" style="fill:#bd1550;"/>
   </g>
   <g id="patch_194">
    <path clip-path="url(#pe9c4f06d2c)" d="M 150.23622 67.151946 
L 168.147425 67.151946 
L 168.147425 65.023532 
L 150.23622 65.023532 
z
" style="fill:#bd1550;"/>
   </g>
   <g id="patch_195">
    <path clip-path="url(#pe9c4f06d2c)" d="M 150.23622 65.378268 
L 166.597795 65.378268 
L 166.597795 63.249854 
L 150.23622 63.249854 
z
" style="fill:#bd1550;"/>
   </g>
   <g id="patch_196">
    <path clip-path="url(#pe9c4f06d2c)" d="M 150.23622 63.604589 
L 163.726654 63.604589 
L 163.726654 61.476175 
L 150.23622 61.476175 
z
" style="fill:#bd1550;"/>
   </g>
   <g id="patch_197">
    <path clip-path="url(#pe9c4f06d2c)" d="M 150.23622 61.830911 
L 162.06952 61.830911 
L 162.06952 59.702497 
L 150.23622 59.702497 
z
" style="fill:#bd1550;"/>
   </g>
   <g id="patch_198">
    <path clip-path="url(#pe9c4f06d2c)" d="M 150.23622 60.057233 
L 160.116094 60.057233 
L 160.116094 57.928819 
L 150.23622 57.928819 
z
" style="fill:#bd1550;"/>
   </g>
   <g id="patch_199">
    <path clip-path="url(#pe9c4f06d2c)" d="M 150.23622 58.283555 
L 158.742142 58.283555 
L 158.742142 56.155141 
L 150.23622 56.155141 
z
" style="fill:#bd1550;"/>
   </g>
   <g id="patch_200">
    <path clip-path="url(#pe9c4f06d2c)" d="M 150.23622 56.509876 
L 157.182024 56.509876 
L 157.182024 54.381462 
L 150.23622 54.381462 
z
" style="fill:#bd1550;"/>
   </g>
   <g id="patch_201">
    <path clip-path="url(#pe9c4f06d2c)" d="M 150.23622 54.736198 
L 155.459339 54.736198 
L 155.459339 52.607784 
L 150.23622 52.607784 
z
" style="fill:#bd1550;"/>
   </g>
   <g id="patch_202">
    <path clip-path="url(#pe9c4f06d2c)" d="M 150.23622 52.96252 
L 154.127339 52.96252 
L 154.127339 50.834106 
L 150.23622 50.834106 
z
" style="fill:#bd1550;"/>
   </g>
   <g id="patch_203">
    <path clip-path="url(#pe9c4f06d2c)" d="M 150.23622 51.188841 
L 153.149315 51.188841 
L 153.149315 49.060427 
L 150.23622 49.060427 
z
" style="fill:#bd1550;"/>
   </g>
   <g id="patch_204">
    <path clip-path="url(#pe9c4f06d2c)" d="M 150.23622 49.415163 
L 152.134583 49.415163 
L 152.134583 47.286749 
L 150.23622 47.286749 
z
" style="fill:#bd1550;"/>
   </g>
   <g id="patch_205">
    <path clip-path="url(#pe9c4f06d2c)" d="M 150.23622 47.641485 
L 151.67048 47.641485 
L 151.67048 45.513071 
L 150.23622 45.513071 
z
" style="fill:#bd1550;"/>
   </g>
   <g id="patch_206">
    <path clip-path="url(#pe9c4f06d2c)" d="M 150.23622 45.867807 
L 150.999236 45.867807 
L 150.999236 43.739393 
L 150.23622 43.739393 
z
" style="fill:#bd1550;"/>
   </g>
   <g id="patch_207">
    <path clip-path="url(#pe9c4f06d2c)" d="M 150.23622 44.094128 
L 150.778984 44.094128 
L 150.778984 41.965714 
L 150.23622 41.965714 
z
" style="fill:#bd1550;"/>
   </g>
   <g id="patch_208">
    <path clip-path="url(#pe9c4f06d2c)" d="M 150.23622 42.32045 
L 150.56922 42.32045 
L 150.56922 40.192036 
L 150.23622 40.192036 
z
" style="fill:#bd1550;"/>
   </g>
   <g id="patch_209">
    <path clip-path="url(#pe9c4f06d2c)" d="M 150.23622 40.546772 
L 150.401409 40.546772 
L 150.401409 38.418358 
L 150.23622 38.418358 
z
" style="fill:#bd1550;"/>
   </g>
   <g id="patch_210">
    <path clip-path="url(#pe9c4f06d2c)" d="M 150.23622 38.773093 
L 150.327992 38.773093 
L 150.327992 36.644679 
L 150.23622 36.644679 
z
" style="fill:#bd1550;"/>
   </g>
   <g id="patch_211">
    <path clip-path="url(#pe9c4f06d2c)" d="M 150.23622 36.999415 
L 150.29915 36.999415 
L 150.29915 34.871001 
L 150.23622 34.871001 
z
" style="fill:#bd1550;"/>
   </g>
   <g id="patch_212">
    <path clip-path="url(#pe9c4f06d2c)" d="M 150.23622 35.225737 
L 150.259819 35.225737 
L 150.259819 33.097323 
L 150.23622 33.097323 
z
" style="fill:#bd1550;"/>
   </g>
   <g id="patch_213">
    <path clip-path="url(#pe9c4f06d2c)" d="M 150.23622 33.452058 
L 150.257197 33.452058 
L 150.257197 31.323645 
L 150.23622 31.323645 
z
" style="fill:#bd1550;"/>
   </g>
   <g id="patch_214">
    <path clip-path="url(#pe9c4f06d2c)" d="M 150.23622 31.67838 
L 150.265063 31.67838 
L 150.265063 29.549966 
L 150.23622 29.549966 
z
" style="fill:#bd1550;"/>
   </g>
   <g id="matplotlib.axis_1">
    <g id="xtick_1">
     <g id="line2d_1">
      <path clip-path="url(#pe9c4f06d2c)" d="M 45.354331 216.850394 
L 45.354331 30.614173 
" style="fill:none;opacity:0.5;stroke:#8a9b0f;stroke-linecap:square;stroke-width:0.8;"/>
     </g>
     <g id="line2d_2">
      <defs>
       <path d="M 0 0 
L 0 3.5 
" id="mab16bba50d" style="stroke:#000000;stroke-width:0.8;"/>
      </defs>
      <g>
       <use style="stroke:#000000;stroke-width:0.8;" x="45.354331" xlink:href="#mab16bba50d" y="216.850394"/>
      </g>
     </g>
     <g id="text_1">
      <!-- 40 -->
      <defs>
       <path d="M 37.796875 64.3125 
L 12.890625 25.390625 
L 37.796875 25.390625 
z
M 35.203125 72.90625 
L 47.609375 72.90625 
L 47.609375 25.390625 
L 58.015625 25.390625 
L 58.015625 17.1875 
L 47.609375 17.1875 
L 47.609375 0 
L 37.796875 0 
L 37.796875 17.1875 
L 4.890625 17.1875 
L 4.890625 26.703125 
z
" id="DejaVuSans-34"/>
       <path d="M 31.78125 66.40625 
Q 24.171875 66.40625 20.328125 58.90625 
Q 16.5 51.421875 16.5 36.375 
Q 16.5 21.390625 20.328125 13.890625 
Q 24.171875 6.390625 31.78125 6.390625 
Q 39.453125 6.390625 43.28125 13.890625 
Q 47.125 21.390625 47.125 36.375 
Q 47.125 51.421875 43.28125 58.90625 
Q 39.453125 66.40625 31.78125 66.40625 
z
M 31.78125 74.21875 
Q 44.046875 74.21875 50.515625 64.515625 
Q 56.984375 54.828125 56.984375 36.375 
Q 56.984375 17.96875 50.515625 8.265625 
Q 44.046875 -1.421875 31.78125 -1.421875 
Q 19.53125 -1.421875 13.0625 8.265625 
Q 6.59375 17.96875 6.59375 36.375 
Q 6.59375 54.828125 13.0625 64.515625 
Q 19.53125 74.21875 31.78125 74.21875 
z
" id="DejaVuSans-30"/>
      </defs>
      <g transform="translate(38.991831 231.448831)scale(0.1 -0.1)">
       <use xlink:href="#DejaVuSans-34"/>
       <use x="63.623047" xlink:href="#DejaVuSans-30"/>
      </g>
     </g>
    </g>
    <g id="xtick_2">
     <g id="line2d_3">
      <path clip-path="url(#pe9c4f06d2c)" d="M 71.574803 216.850394 
L 71.574803 30.614173 
" style="fill:none;opacity:0.5;stroke:#8a9b0f;stroke-linecap:square;stroke-width:0.8;"/>
     </g>
     <g id="line2d_4">
      <g>
       <use style="stroke:#000000;stroke-width:0.8;" x="71.574803" xlink:href="#mab16bba50d" y="216.850394"/>
      </g>
     </g>
     <g id="text_2">
      <!-- 30 -->
      <defs>
       <path d="M 40.578125 39.3125 
Q 47.65625 37.796875 51.625 33 
Q 55.609375 28.21875 55.609375 21.1875 
Q 55.609375 10.40625 48.1875 4.484375 
Q 40.765625 -1.421875 27.09375 -1.421875 
Q 22.515625 -1.421875 17.65625 -0.515625 
Q 12.796875 0.390625 7.625 2.203125 
L 7.625 11.71875 
Q 11.71875 9.328125 16.59375 8.109375 
Q 21.484375 6.890625 26.8125 6.890625 
Q 36.078125 6.890625 40.9375 10.546875 
Q 45.796875 14.203125 45.796875 21.1875 
Q 45.796875 27.640625 41.28125 31.265625 
Q 36.765625 34.90625 28.71875 34.90625 
L 20.21875 34.90625 
L 20.21875 43.015625 
L 29.109375 43.015625 
Q 36.375 43.015625 40.234375 45.921875 
Q 44.09375 48.828125 44.09375 54.296875 
Q 44.09375 59.90625 40.109375 62.90625 
Q 36.140625 65.921875 28.71875 65.921875 
Q 24.65625 65.921875 20.015625 65.03125 
Q 15.375 64.15625 9.8125 62.3125 
L 9.8125 71.09375 
Q 15.4375 72.65625 20.34375 73.4375 
Q 25.25 74.21875 29.59375 74.21875 
Q 40.828125 74.21875 47.359375 69.109375 
Q 53.90625 64.015625 53.90625 55.328125 
Q 53.90625 49.265625 50.4375 45.09375 
Q 46.96875 40.921875 40.578125 39.3125 
z
" id="DejaVuSans-33"/>
      </defs>
      <g transform="translate(65.212303 231.448831)scale(0.1 -0.1)">
       <use xlink:href="#DejaVuSans-33"/>
       <use x="63.623047" xlink:href="#DejaVuSans-30"/>
      </g>
     </g>
    </g>
    <g id="xtick_3">
     <g id="line2d_5">
      <path clip-path="url(#pe9c4f06d2c)" d="M 97.795276 216.850394 
L 97.795276 30.614173 
" style="fill:none;opacity:0.5;stroke:#8a9b0f;stroke-linecap:square;stroke-width:0.8;"/>
     </g>
     <g id="line2d_6">
      <g>
       <use style="stroke:#000000;stroke-width:0.8;" x="97.795276" xlink:href="#mab16bba50d" y="216.850394"/>
      </g>
     </g>
     <g id="text_3">
      <!-- 20 -->
      <defs>
       <path d="M 19.1875 8.296875 
L 53.609375 8.296875 
L 53.609375 0 
L 7.328125 0 
L 7.328125 8.296875 
Q 12.9375 14.109375 22.625 23.890625 
Q 32.328125 33.6875 34.8125 36.53125 
Q 39.546875 41.84375 41.421875 45.53125 
Q 43.3125 49.21875 43.3125 52.78125 
Q 43.3125 58.59375 39.234375 62.25 
Q 35.15625 65.921875 28.609375 65.921875 
Q 23.96875 65.921875 18.8125 64.3125 
Q 13.671875 62.703125 7.8125 59.421875 
L 7.8125 69.390625 
Q 13.765625 71.78125 18.9375 73 
Q 24.125 74.21875 28.421875 74.21875 
Q 39.75 74.21875 46.484375 68.546875 
Q 53.21875 62.890625 53.21875 53.421875 
Q 53.21875 48.921875 51.53125 44.890625 
Q 49.859375 40.875 45.40625 35.40625 
Q 44.1875 33.984375 37.640625 27.21875 
Q 31.109375 20.453125 19.1875 8.296875 
z
" id="DejaVuSans-32"/>
      </defs>
      <g transform="translate(91.432776 231.448831)scale(0.1 -0.1)">
       <use xlink:href="#DejaVuSans-32"/>
       <use x="63.623047" xlink:href="#DejaVuSans-30"/>
      </g>
     </g>
    </g>
    <g id="xtick_4">
     <g id="line2d_7">
      <path clip-path="url(#pe9c4f06d2c)" d="M 124.015748 216.850394 
L 124.015748 30.614173 
" style="fill:none;opacity:0.5;stroke:#8a9b0f;stroke-linecap:square;stroke-width:0.8;"/>
     </g>
     <g id="line2d_8">
      <g>
       <use style="stroke:#000000;stroke-width:0.8;" x="124.015748" xlink:href="#mab16bba50d" y="216.850394"/>
      </g>
     </g>
     <g id="text_4">
      <!-- 10 -->
      <defs>
       <path d="M 12.40625 8.296875 
L 28.515625 8.296875 
L 28.515625 63.921875 
L 10.984375 60.40625 
L 10.984375 69.390625 
L 28.421875 72.90625 
L 38.28125 72.90625 
L 38.28125 8.296875 
L 54.390625 8.296875 
L 54.390625 0 
L 12.40625 0 
z
" id="DejaVuSans-31"/>
      </defs>
      <g transform="translate(117.653248 231.448831)scale(0.1 -0.1)">
       <use xlink:href="#DejaVuSans-31"/>
       <use x="63.623047" xlink:href="#DejaVuSans-30"/>
      </g>
     </g>
    </g>
    <g id="xtick_5">
     <g id="line2d_9">
      <path clip-path="url(#pe9c4f06d2c)" d="M 150.23622 216.850394 
L 150.23622 30.614173 
" style="fill:none;opacity:0.5;stroke:#8a9b0f;stroke-linecap:square;stroke-width:0.8;"/>
     </g>
     <g id="line2d_10">
      <g>
       <use style="stroke:#000000;stroke-width:0.8;" x="150.23622" xlink:href="#mab16bba50d" y="216.850394"/>
      </g>
     </g>
     <g id="text_5">
      <!-- 0 -->
      <g transform="translate(147.05497 231.448831)scale(0.1 -0.1)">
       <use xlink:href="#DejaVuSans-30"/>
      </g>
     </g>
    </g>
    <g id="xtick_6">
     <g id="line2d_11">
      <path clip-path="url(#pe9c4f06d2c)" d="M 176.456693 216.850394 
L 176.456693 30.614173 
" style="fill:none;opacity:0.5;stroke:#8a9b0f;stroke-linecap:square;stroke-width:0.8;"/>
     </g>
     <g id="line2d_12">
      <g>
       <use style="stroke:#000000;stroke-width:0.8;" x="176.456693" xlink:href="#mab16bba50d" y="216.850394"/>
      </g>
     </g>
     <g id="text_6">
      <!-- 10 -->
      <g transform="translate(170.094193 231.448831)scale(0.1 -0.1)">
       <use xlink:href="#DejaVuSans-31"/>
       <use x="63.623047" xlink:href="#DejaVuSans-30"/>
      </g>
     </g>
    </g>
    <g id="xtick_7">
     <g id="line2d_13">
      <path clip-path="url(#pe9c4f06d2c)" d="M 202.677165 216.850394 
L 202.677165 30.614173 
" style="fill:none;opacity:0.5;stroke:#8a9b0f;stroke-linecap:square;stroke-width:0.8;"/>
     </g>
     <g id="line2d_14">
      <g>
       <use style="stroke:#000000;stroke-width:0.8;" x="202.677165" xlink:href="#mab16bba50d" y="216.850394"/>
      </g>
     </g>
     <g id="text_7">
      <!-- 20 -->
      <g transform="translate(196.314665 231.448831)scale(0.1 -0.1)">
       <use xlink:href="#DejaVuSans-32"/>
       <use x="63.623047" xlink:href="#DejaVuSans-30"/>
      </g>
     </g>
    </g>
    <g id="xtick_8">
     <g id="line2d_15">
      <path clip-path="url(#pe9c4f06d2c)" d="M 228.897638 216.850394 
L 228.897638 30.614173 
" style="fill:none;opacity:0.5;stroke:#8a9b0f;stroke-linecap:square;stroke-width:0.8;"/>
     </g>
     <g id="line2d_16">
      <g>
       <use style="stroke:#000000;stroke-width:0.8;" x="228.897638" xlink:href="#mab16bba50d" y="216.850394"/>
      </g>
     </g>
     <g id="text_8">
      <!-- 30 -->
      <g transform="translate(222.535138 231.448831)scale(0.1 -0.1)">
       <use xlink:href="#DejaVuSans-33"/>
       <use x="63.623047" xlink:href="#DejaVuSans-30"/>
      </g>
     </g>
    </g>
    <g id="text_9">
     <!-- Population in thousands -->
     <defs>
      <path d="M 19.671875 64.796875 
L 19.671875 37.40625 
L 32.078125 37.40625 
Q 38.96875 37.40625 42.71875 40.96875 
Q 46.484375 44.53125 46.484375 51.125 
Q 46.484375 57.671875 42.71875 61.234375 
Q 38.96875 64.796875 32.078125 64.796875 
z
M 9.8125 72.90625 
L 32.078125 72.90625 
Q 44.34375 72.90625 50.609375 67.359375 
Q 56.890625 61.8125 56.890625 51.125 
Q 56.890625 40.328125 50.609375 34.8125 
Q 44.34375 29.296875 32.078125 29.296875 
L 19.671875 29.296875 
L 19.671875 0 
L 9.8125 0 
z
" id="DejaVuSans-50"/>
      <path d="M 30.609375 48.390625 
Q 23.390625 48.390625 19.1875 42.75 
Q 14.984375 37.109375 14.984375 27.296875 
Q 14.984375 17.484375 19.15625 11.84375 
Q 23.34375 6.203125 30.609375 6.203125 
Q 37.796875 6.203125 41.984375 11.859375 
Q 46.1875 17.53125 46.1875 27.296875 
Q 46.1875 37.015625 41.984375 42.703125 
Q 37.796875 48.390625 30.609375 48.390625 
z
M 30.609375 56 
Q 42.328125 56 49.015625 48.375 
Q 55.71875 40.765625 55.71875 27.296875 
Q 55.71875 13.875 49.015625 6.21875 
Q 42.328125 -1.421875 30.609375 -1.421875 
Q 18.84375 -1.421875 12.171875 6.21875 
Q 5.515625 13.875 5.515625 27.296875 
Q 5.515625 40.765625 12.171875 48.375 
Q 18.84375 56 30.609375 56 
z
" id="DejaVuSans-6f"/>
      <path d="M 18.109375 8.203125 
L 18.109375 -20.796875 
L 9.078125 -20.796875 
L 9.078125 54.6875 
L 18.109375 54.6875 
L 18.109375 46.390625 
Q 20.953125 51.265625 25.265625 53.625 
Q 29.59375 56 35.59375 56 
Q 45.5625 56 51.78125 48.09375 
Q 58.015625 40.1875 58.015625 27.296875 
Q 58.015625 14.40625 51.78125 6.484375 
Q 45.5625 -1.421875 35.59375 -1.421875 
Q 29.59375 -1.421875 25.265625 0.953125 
Q 20.953125 3.328125 18.109375 8.203125 
z
M 48.6875 27.296875 
Q 48.6875 37.203125 44.609375 42.84375 
Q 40.53125 48.484375 33.40625 48.484375 
Q 26.265625 48.484375 22.1875 42.84375 
Q 18.109375 37.203125 18.109375 27.296875 
Q 18.109375 17.390625 22.1875 11.75 
Q 26.265625 6.109375 33.40625 6.109375 
Q 40.53125 6.109375 44.609375 11.75 
Q 48.6875 17.390625 48.6875 27.296875 
z
" id="DejaVuSans-70"/>
      <path d="M 8.5 21.578125 
L 8.5 54.6875 
L 17.484375 54.6875 
L 17.484375 21.921875 
Q 17.484375 14.15625 20.5 10.265625 
Q 23.53125 6.390625 29.59375 6.390625 
Q 36.859375 6.390625 41.078125 11.03125 
Q 45.3125 15.671875 45.3125 23.6875 
L 45.3125 54.6875 
L 54.296875 54.6875 
L 54.296875 0 
L 45.3125 0 
L 45.3125 8.40625 
Q 42.046875 3.421875 37.71875 1 
Q 33.40625 -1.421875 27.6875 -1.421875 
Q 18.265625 -1.421875 13.375 4.4375 
Q 8.5 10.296875 8.5 21.578125 
z
M 31.109375 56 
z
" id="DejaVuSans-75"/>
      <path d="M 9.421875 75.984375 
L 18.40625 75.984375 
L 18.40625 0 
L 9.421875 0 
z
" id="DejaVuSans-6c"/>
      <path d="M 34.28125 27.484375 
Q 23.390625 27.484375 19.1875 25 
Q 14.984375 22.515625 14.984375 16.5 
Q 14.984375 11.71875 18.140625 8.90625 
Q 21.296875 6.109375 26.703125 6.109375 
Q 34.1875 6.109375 38.703125 11.40625 
Q 43.21875 16.703125 43.21875 25.484375 
L 43.21875 27.484375 
z
M 52.203125 31.203125 
L 52.203125 0 
L 43.21875 0 
L 43.21875 8.296875 
Q 40.140625 3.328125 35.546875 0.953125 
Q 30.953125 -1.421875 24.3125 -1.421875 
Q 15.921875 -1.421875 10.953125 3.296875 
Q 6 8.015625 6 15.921875 
Q 6 25.140625 12.171875 29.828125 
Q 18.359375 34.515625 30.609375 34.515625 
L 43.21875 34.515625 
L 43.21875 35.40625 
Q 43.21875 41.609375 39.140625 45 
Q 35.0625 48.390625 27.6875 48.390625 
Q 23 48.390625 18.546875 47.265625 
Q 14.109375 46.140625 10.015625 43.890625 
L 10.015625 52.203125 
Q 14.9375 54.109375 19.578125 55.046875 
Q 24.21875 56 28.609375 56 
Q 40.484375 56 46.34375 49.84375 
Q 52.203125 43.703125 52.203125 31.203125 
z
" id="DejaVuSans-61"/>
      <path d="M 18.3125 70.21875 
L 18.3125 54.6875 
L 36.8125 54.6875 
L 36.8125 47.703125 
L 18.3125 47.703125 
L 18.3125 18.015625 
Q 18.3125 11.328125 20.140625 9.421875 
Q 21.96875 7.515625 27.59375 7.515625 
L 36.8125 7.515625 
L 36.8125 0 
L 27.59375 0 
Q 17.1875 0 13.234375 3.875 
Q 9.28125 7.765625 9.28125 18.015625 
L 9.28125 47.703125 
L 2.6875 47.703125 
L 2.6875 54.6875 
L 9.28125 54.6875 
L 9.28125 70.21875 
z
" id="DejaVuSans-74"/>
      <path d="M 9.421875 54.6875 
L 18.40625 54.6875 
L 18.40625 0 
L 9.421875 0 
z
M 9.421875 75.984375 
L 18.40625 75.984375 
L 18.40625 64.59375 
L 9.421875 64.59375 
z
" id="DejaVuSans-69"/>
      <path d="M 54.890625 33.015625 
L 54.890625 0 
L 45.90625 0 
L 45.90625 32.71875 
Q 45.90625 40.484375 42.875 44.328125 
Q 39.84375 48.1875 33.796875 48.1875 
Q 26.515625 48.1875 22.3125 43.546875 
Q 18.109375 38.921875 18.109375 30.90625 
L 18.109375 0 
L 9.078125 0 
L 9.078125 54.6875 
L 18.109375 54.6875 
L 18.109375 46.1875 
Q 21.34375 51.125 25.703125 53.5625 
Q 30.078125 56 35.796875 56 
Q 45.21875 56 50.046875 50.171875 
Q 54.890625 44.34375 54.890625 33.015625 
z
" id="DejaVuSans-6e"/>
      <path id="DejaVuSans-20"/>
      <path d="M 54.890625 33.015625 
L 54.890625 0 
L 45.90625 0 
L 45.90625 32.71875 
Q 45.90625 40.484375 42.875 44.328125 
Q 39.84375 48.1875 33.796875 48.1875 
Q 26.515625 48.1875 22.3125 43.546875 
Q 18.109375 38.921875 18.109375 30.90625 
L 18.109375 0 
L 9.078125 0 
L 9.078125 75.984375 
L 18.109375 75.984375 
L 18.109375 46.1875 
Q 21.34375 51.125 25.703125 53.5625 
Q 30.078125 56 35.796875 56 
Q 45.21875 56 50.046875 50.171875 
Q 54.890625 44.34375 54.890625 33.015625 
z
" id="DejaVuSans-68"/>
      <path d="M 44.28125 53.078125 
L 44.28125 44.578125 
Q 40.484375 46.53125 36.375 47.5 
Q 32.28125 48.484375 27.875 48.484375 
Q 21.1875 48.484375 17.84375 46.4375 
Q 14.5 44.390625 14.5 40.28125 
Q 14.5 37.15625 16.890625 35.375 
Q 19.28125 33.59375 26.515625 31.984375 
L 29.59375 31.296875 
Q 39.15625 29.25 43.1875 25.515625 
Q 47.21875 21.78125 47.21875 15.09375 
Q 47.21875 7.46875 41.1875 3.015625 
Q 35.15625 -1.421875 24.609375 -1.421875 
Q 20.21875 -1.421875 15.453125 -0.5625 
Q 10.6875 0.296875 5.421875 2 
L 5.421875 11.28125 
Q 10.40625 8.6875 15.234375 7.390625 
Q 20.0625 6.109375 24.8125 6.109375 
Q 31.15625 6.109375 34.5625 8.28125 
Q 37.984375 10.453125 37.984375 14.40625 
Q 37.984375 18.0625 35.515625 20.015625 
Q 33.0625 21.96875 24.703125 23.78125 
L 21.578125 24.515625 
Q 13.234375 26.265625 9.515625 29.90625 
Q 5.8125 33.546875 5.8125 39.890625 
Q 5.8125 47.609375 11.28125 51.796875 
Q 16.75 56 26.8125 56 
Q 31.78125 56 36.171875 55.265625 
Q 40.578125 54.546875 44.28125 53.078125 
z
" id="DejaVuSans-73"/>
      <path d="M 45.40625 46.390625 
L 45.40625 75.984375 
L 54.390625 75.984375 
L 54.390625 0 
L 45.40625 0 
L 45.40625 8.203125 
Q 42.578125 3.328125 38.25 0.953125 
Q 33.9375 -1.421875 27.875 -1.421875 
Q 17.96875 -1.421875 11.734375 6.484375 
Q 5.515625 14.40625 5.515625 27.296875 
Q 5.515625 40.1875 11.734375 48.09375 
Q 17.96875 56 27.875 56 
Q 33.9375 56 38.25 53.625 
Q 42.578125 51.265625 45.40625 46.390625 
z
M 14.796875 27.296875 
Q 14.796875 17.390625 18.875 11.75 
Q 22.953125 6.109375 30.078125 6.109375 
Q 37.203125 6.109375 41.296875 11.75 
Q 45.40625 17.390625 45.40625 27.296875 
Q 45.40625 37.203125 41.296875 42.84375 
Q 37.203125 48.484375 30.078125 48.484375 
Q 22.953125 48.484375 18.875 42.84375 
Q 14.796875 37.203125 14.796875 27.296875 
z
" id="DejaVuSans-64"/>
     </defs>
     <g transform="translate(78.050595 246.646644)scale(0.12 -0.12)">
      <use xlink:href="#DejaVuSans-50"/>
      <use x="60.255859" xlink:href="#DejaVuSans-6f"/>
      <use x="121.4375" xlink:href="#DejaVuSans-70"/>
      <use x="184.914062" xlink:href="#DejaVuSans-75"/>
      <use x="248.292969" xlink:href="#DejaVuSans-6c"/>
      <use x="276.076172" xlink:href="#DejaVuSans-61"/>
      <use x="337.355469" xlink:href="#DejaVuSans-74"/>
      <use x="376.564453" xlink:href="#DejaVuSans-69"/>
      <use x="404.347656" xlink:href="#DejaVuSans-6f"/>
      <use x="465.529297" xlink:href="#DejaVuSans-6e"/>
      <use x="528.908203" xlink:href="#DejaVuSans-20"/>
      <use x="560.695312" xlink:href="#DejaVuSans-69"/>
      <use x="588.478516" xlink:href="#DejaVuSans-6e"/>
      <use x="651.857422" xlink:href="#DejaVuSans-20"/>
      <use x="683.644531" xlink:href="#DejaVuSans-74"/>
      <use x="722.853516" xlink:href="#DejaVuSans-68"/>
      <use x="786.232422" xlink:href="#DejaVuSans-6f"/>
      <use x="847.414062" xlink:href="#DejaVuSans-75"/>
      <use x="910.792969" xlink:href="#DejaVuSans-73"/>
      <use x="962.892578" xlink:href="#DejaVuSans-61"/>
      <use x="1024.171875" xlink:href="#DejaVuSans-6e"/>
      <use x="1087.550781" xlink:href="#DejaVuSans-64"/>
      <use x="1151.027344" xlink:href="#DejaVuSans-73"/>
     </g>
    </g>
   </g>
   <g id="matplotlib.axis_2">
    <g id="ytick_1">
     <g id="line2d_17">
      <path clip-path="url(#pe9c4f06d2c)" d="M 45.354331 216.850394 
L 255.11811 216.850394 
" style="fill:none;opacity:0.5;stroke:#8a9b0f;stroke-linecap:square;stroke-width:0.8;"/>
     </g>
     <g id="line2d_18">
      <defs>
       <path d="M 0 0 
L -3.5 0 
" id="macfbe29b34" style="stroke:#000000;stroke-width:0.8;"/>
      </defs>
      <g>
       <use style="stroke:#000000;stroke-width:0.8;" x="45.354331" xlink:href="#macfbe29b34" y="216.850394"/>
      </g>
     </g>
     <g id="text_10">
      <!-- 0 -->
      <g transform="translate(31.991831 220.649612)scale(0.1 -0.1)">
       <use xlink:href="#DejaVuSans-30"/>
      </g>
     </g>
    </g>
    <g id="ytick_2">
     <g id="line2d_19">
      <path clip-path="url(#pe9c4f06d2c)" d="M 45.354331 199.113611 
L 255.11811 199.113611 
" style="fill:none;opacity:0.5;stroke:#8a9b0f;stroke-linecap:square;stroke-width:0.8;"/>
     </g>
     <g id="line2d_20">
      <g>
       <use style="stroke:#000000;stroke-width:0.8;" x="45.354331" xlink:href="#macfbe29b34" y="199.113611"/>
      </g>
     </g>
     <g id="text_11">
      <!-- 10 -->
      <g transform="translate(25.629331 202.91283)scale(0.1 -0.1)">
       <use xlink:href="#DejaVuSans-31"/>
       <use x="63.623047" xlink:href="#DejaVuSans-30"/>
      </g>
     </g>
    </g>
    <g id="ytick_3">
     <g id="line2d_21">
      <path clip-path="url(#pe9c4f06d2c)" d="M 45.354331 181.376828 
L 255.11811 181.376828 
" style="fill:none;opacity:0.5;stroke:#8a9b0f;stroke-linecap:square;stroke-width:0.8;"/>
     </g>
     <g id="line2d_22">
      <g>
       <use style="stroke:#000000;stroke-width:0.8;" x="45.354331" xlink:href="#macfbe29b34" y="181.376828"/>
      </g>
     </g>
     <g id="text_12">
      <!-- 20 -->
      <g transform="translate(25.629331 185.176047)scale(0.1 -0.1)">
       <use xlink:href="#DejaVuSans-32"/>
       <use x="63.623047" xlink:href="#DejaVuSans-30"/>
      </g>
     </g>
    </g>
    <g id="ytick_4">
     <g id="line2d_23">
      <path clip-path="url(#pe9c4f06d2c)" d="M 45.354331 163.640045 
L 255.11811 163.640045 
" style="fill:none;opacity:0.5;stroke:#8a9b0f;stroke-linecap:square;stroke-width:0.8;"/>
     </g>
     <g id="line2d_24">
      <g>
       <use style="stroke:#000000;stroke-width:0.8;" x="45.354331" xlink:href="#macfbe29b34" y="163.640045"/>
      </g>
     </g>
     <g id="text_13">
      <!-- 30 -->
      <g transform="translate(25.629331 167.439264)scale(0.1 -0.1)">
       <use xlink:href="#DejaVuSans-33"/>
       <use x="63.623047" xlink:href="#DejaVuSans-30"/>
      </g>
     </g>
    </g>
    <g id="ytick_5">
     <g id="line2d_25">
      <path clip-path="url(#pe9c4f06d2c)" d="M 45.354331 145.903262 
L 255.11811 145.903262 
" style="fill:none;opacity:0.5;stroke:#8a9b0f;stroke-linecap:square;stroke-width:0.8;"/>
     </g>
     <g id="line2d_26">
      <g>
       <use style="stroke:#000000;stroke-width:0.8;" x="45.354331" xlink:href="#macfbe29b34" y="145.903262"/>
      </g>
     </g>
     <g id="text_14">
      <!-- 40 -->
      <g transform="translate(25.629331 149.702481)scale(0.1 -0.1)">
       <use xlink:href="#DejaVuSans-34"/>
       <use x="63.623047" xlink:href="#DejaVuSans-30"/>
      </g>
     </g>
    </g>
    <g id="ytick_6">
     <g id="line2d_27">
      <path clip-path="url(#pe9c4f06d2c)" d="M 45.354331 128.166479 
L 255.11811 128.166479 
" style="fill:none;opacity:0.5;stroke:#8a9b0f;stroke-linecap:square;stroke-width:0.8;"/>
     </g>
     <g id="line2d_28">
      <g>
       <use style="stroke:#000000;stroke-width:0.8;" x="45.354331" xlink:href="#macfbe29b34" y="128.166479"/>
      </g>
     </g>
     <g id="text_15">
      <!-- 50 -->
      <defs>
       <path d="M 10.796875 72.90625 
L 49.515625 72.90625 
L 49.515625 64.59375 
L 19.828125 64.59375 
L 19.828125 46.734375 
Q 21.96875 47.46875 24.109375 47.828125 
Q 26.265625 48.1875 28.421875 48.1875 
Q 40.625 48.1875 47.75 41.5 
Q 54.890625 34.8125 54.890625 23.390625 
Q 54.890625 11.625 47.5625 5.09375 
Q 40.234375 -1.421875 26.90625 -1.421875 
Q 22.3125 -1.421875 17.546875 -0.640625 
Q 12.796875 0.140625 7.71875 1.703125 
L 7.71875 11.625 
Q 12.109375 9.234375 16.796875 8.0625 
Q 21.484375 6.890625 26.703125 6.890625 
Q 35.15625 6.890625 40.078125 11.328125 
Q 45.015625 15.765625 45.015625 23.390625 
Q 45.015625 31 40.078125 35.4375 
Q 35.15625 39.890625 26.703125 39.890625 
Q 22.75 39.890625 18.8125 39.015625 
Q 14.890625 38.140625 10.796875 36.28125 
z
" id="DejaVuSans-35"/>
      </defs>
      <g transform="translate(25.629331 131.965698)scale(0.1 -0.1)">
       <use xlink:href="#DejaVuSans-35"/>
       <use x="63.623047" xlink:href="#DejaVuSans-30"/>
      </g>
     </g>
    </g>
    <g id="ytick_7">
     <g id="line2d_29">
      <path clip-path="url(#pe9c4f06d2c)" d="M 45.354331 110.429696 
L 255.11811 110.429696 
" style="fill:none;opacity:0.5;stroke:#8a9b0f;stroke-linecap:square;stroke-width:0.8;"/>
     </g>
     <g id="line2d_30">
      <g>
       <use style="stroke:#000000;stroke-width:0.8;" x="45.354331" xlink:href="#macfbe29b34" y="110.429696"/>
      </g>
     </g>
     <g id="text_16">
      <!-- 60 -->
      <defs>
       <path d="M 33.015625 40.375 
Q 26.375 40.375 22.484375 35.828125 
Q 18.609375 31.296875 18.609375 23.390625 
Q 18.609375 15.53125 22.484375 10.953125 
Q 26.375 6.390625 33.015625 6.390625 
Q 39.65625 6.390625 43.53125 10.953125 
Q 47.40625 15.53125 47.40625 23.390625 
Q 47.40625 31.296875 43.53125 35.828125 
Q 39.65625 40.375 33.015625 40.375 
z
M 52.59375 71.296875 
L 52.59375 62.3125 
Q 48.875 64.0625 45.09375 64.984375 
Q 41.3125 65.921875 37.59375 65.921875 
Q 27.828125 65.921875 22.671875 59.328125 
Q 17.53125 52.734375 16.796875 39.40625 
Q 19.671875 43.65625 24.015625 45.921875 
Q 28.375 48.1875 33.59375 48.1875 
Q 44.578125 48.1875 50.953125 41.515625 
Q 57.328125 34.859375 57.328125 23.390625 
Q 57.328125 12.15625 50.6875 5.359375 
Q 44.046875 -1.421875 33.015625 -1.421875 
Q 20.359375 -1.421875 13.671875 8.265625 
Q 6.984375 17.96875 6.984375 36.375 
Q 6.984375 53.65625 15.1875 63.9375 
Q 23.390625 74.21875 37.203125 74.21875 
Q 40.921875 74.21875 44.703125 73.484375 
Q 48.484375 72.75 52.59375 71.296875 
z
" id="DejaVuSans-36"/>
      </defs>
      <g transform="translate(25.629331 114.228915)scale(0.1 -0.1)">
       <use xlink:href="#DejaVuSans-36"/>
       <use x="63.623047" xlink:href="#DejaVuSans-30"/>
      </g>
     </g>
    </g>
    <g id="ytick_8">
     <g id="line2d_31">
      <path clip-path="url(#pe9c4f06d2c)" d="M 45.354331 92.692913 
L 255.11811 92.692913 
" style="fill:none;opacity:0.5;stroke:#8a9b0f;stroke-linecap:square;stroke-width:0.8;"/>
     </g>
     <g id="line2d_32">
      <g>
       <use style="stroke:#000000;stroke-width:0.8;" x="45.354331" xlink:href="#macfbe29b34" y="92.692913"/>
      </g>
     </g>
     <g id="text_17">
      <!-- 70 -->
      <defs>
       <path d="M 8.203125 72.90625 
L 55.078125 72.90625 
L 55.078125 68.703125 
L 28.609375 0 
L 18.3125 0 
L 43.21875 64.59375 
L 8.203125 64.59375 
z
" id="DejaVuSans-37"/>
      </defs>
      <g transform="translate(25.629331 96.492132)scale(0.1 -0.1)">
       <use xlink:href="#DejaVuSans-37"/>
       <use x="63.623047" xlink:href="#DejaVuSans-30"/>
      </g>
     </g>
    </g>
    <g id="ytick_9">
     <g id="line2d_33">
      <path clip-path="url(#pe9c4f06d2c)" d="M 45.354331 74.95613 
L 255.11811 74.95613 
" style="fill:none;opacity:0.5;stroke:#8a9b0f;stroke-linecap:square;stroke-width:0.8;"/>
     </g>
     <g id="line2d_34">
      <g>
       <use style="stroke:#000000;stroke-width:0.8;" x="45.354331" xlink:href="#macfbe29b34" y="74.95613"/>
      </g>
     </g>
     <g id="text_18">
      <!-- 80 -->
      <defs>
       <path d="M 31.78125 34.625 
Q 24.75 34.625 20.71875 30.859375 
Q 16.703125 27.09375 16.703125 20.515625 
Q 16.703125 13.921875 20.71875 10.15625 
Q 24.75 6.390625 31.78125 6.390625 
Q 38.8125 6.390625 42.859375 10.171875 
Q 46.921875 13.96875 46.921875 20.515625 
Q 46.921875 27.09375 42.890625 30.859375 
Q 38.875 34.625 31.78125 34.625 
z
M 21.921875 38.8125 
Q 15.578125 40.375 12.03125 44.71875 
Q 8.5 49.078125 8.5 55.328125 
Q 8.5 64.0625 14.71875 69.140625 
Q 20.953125 74.21875 31.78125 74.21875 
Q 42.671875 74.21875 48.875 69.140625 
Q 55.078125 64.0625 55.078125 55.328125 
Q 55.078125 49.078125 51.53125 44.71875 
Q 48 40.375 41.703125 38.8125 
Q 48.828125 37.15625 52.796875 32.3125 
Q 56.78125 27.484375 56.78125 20.515625 
Q 56.78125 9.90625 50.3125 4.234375 
Q 43.84375 -1.421875 31.78125 -1.421875 
Q 19.734375 -1.421875 13.25 4.234375 
Q 6.78125 9.90625 6.78125 20.515625 
Q 6.78125 27.484375 10.78125 32.3125 
Q 14.796875 37.15625 21.921875 38.8125 
z
M 18.3125 54.390625 
Q 18.3125 48.734375 21.84375 45.5625 
Q 25.390625 42.390625 31.78125 42.390625 
Q 38.140625 42.390625 41.71875 45.5625 
Q 45.3125 48.734375 45.3125 54.390625 
Q 45.3125 60.0625 41.71875 63.234375 
Q 38.140625 66.40625 31.78125 66.40625 
Q 25.390625 66.40625 21.84375 63.234375 
Q 18.3125 60.0625 18.3125 54.390625 
z
" id="DejaVuSans-38"/>
      </defs>
      <g transform="translate(25.629331 78.755349)scale(0.1 -0.1)">
       <use xlink:href="#DejaVuSans-38"/>
       <use x="63.623047" xlink:href="#DejaVuSans-30"/>
      </g>
     </g>
    </g>
    <g id="ytick_10">
     <g id="line2d_35">
      <path clip-path="url(#pe9c4f06d2c)" d="M 45.354331 57.219348 
L 255.11811 57.219348 
" style="fill:none;opacity:0.5;stroke:#8a9b0f;stroke-linecap:square;stroke-width:0.8;"/>
     </g>
     <g id="line2d_36">
      <g>
       <use style="stroke:#000000;stroke-width:0.8;" x="45.354331" xlink:href="#macfbe29b34" y="57.219348"/>
      </g>
     </g>
     <g id="text_19">
      <!-- 90 -->
      <defs>
       <path d="M 10.984375 1.515625 
L 10.984375 10.5 
Q 14.703125 8.734375 18.5 7.8125 
Q 22.3125 6.890625 25.984375 6.890625 
Q 35.75 6.890625 40.890625 13.453125 
Q 46.046875 20.015625 46.78125 33.40625 
Q 43.953125 29.203125 39.59375 26.953125 
Q 35.25 24.703125 29.984375 24.703125 
Q 19.046875 24.703125 12.671875 31.3125 
Q 6.296875 37.9375 6.296875 49.421875 
Q 6.296875 60.640625 12.9375 67.421875 
Q 19.578125 74.21875 30.609375 74.21875 
Q 43.265625 74.21875 49.921875 64.515625 
Q 56.59375 54.828125 56.59375 36.375 
Q 56.59375 19.140625 48.40625 8.859375 
Q 40.234375 -1.421875 26.421875 -1.421875 
Q 22.703125 -1.421875 18.890625 -0.6875 
Q 15.09375 0.046875 10.984375 1.515625 
z
M 30.609375 32.421875 
Q 37.25 32.421875 41.125 36.953125 
Q 45.015625 41.5 45.015625 49.421875 
Q 45.015625 57.28125 41.125 61.84375 
Q 37.25 66.40625 30.609375 66.40625 
Q 23.96875 66.40625 20.09375 61.84375 
Q 16.21875 57.28125 16.21875 49.421875 
Q 16.21875 41.5 20.09375 36.953125 
Q 23.96875 32.421875 30.609375 32.421875 
z
" id="DejaVuSans-39"/>
      </defs>
      <g transform="translate(25.629331 61.018566)scale(0.1 -0.1)">
       <use xlink:href="#DejaVuSans-39"/>
       <use x="63.623047" xlink:href="#DejaVuSans-30"/>
      </g>
     </g>
    </g>
    <g id="ytick_11">
     <g id="line2d_37">
      <path clip-path="url(#pe9c4f06d2c)" d="M 45.354331 39.482565 
L 255.11811 39.482565 
" style="fill:none;opacity:0.5;stroke:#8a9b0f;stroke-linecap:square;stroke-width:0.8;"/>
     </g>
     <g id="line2d_38">
      <g>
       <use style="stroke:#000000;stroke-width:0.8;" x="45.354331" xlink:href="#macfbe29b34" y="39.482565"/>
      </g>
     </g>
     <g id="text_20">
      <!-- 100 -->
      <g transform="translate(19.266831 43.281783)scale(0.1 -0.1)">
       <use xlink:href="#DejaVuSans-31"/>
       <use x="63.623047" xlink:href="#DejaVuSans-30"/>
       <use x="127.246094" xlink:href="#DejaVuSans-30"/>
      </g>
     </g>
    </g>
    <g id="text_21">
     <!-- Age in years -->
     <defs>
      <path d="M 34.1875 63.1875 
L 20.796875 26.90625 
L 47.609375 26.90625 
z
M 28.609375 72.90625 
L 39.796875 72.90625 
L 67.578125 0 
L 57.328125 0 
L 50.6875 18.703125 
L 17.828125 18.703125 
L 11.1875 0 
L 0.78125 0 
z
" id="DejaVuSans-41"/>
      <path d="M 45.40625 27.984375 
Q 45.40625 37.75 41.375 43.109375 
Q 37.359375 48.484375 30.078125 48.484375 
Q 22.859375 48.484375 18.828125 43.109375 
Q 14.796875 37.75 14.796875 27.984375 
Q 14.796875 18.265625 18.828125 12.890625 
Q 22.859375 7.515625 30.078125 7.515625 
Q 37.359375 7.515625 41.375 12.890625 
Q 45.40625 18.265625 45.40625 27.984375 
z
M 54.390625 6.78125 
Q 54.390625 -7.171875 48.1875 -13.984375 
Q 42 -20.796875 29.203125 -20.796875 
Q 24.46875 -20.796875 20.265625 -20.09375 
Q 16.0625 -19.390625 12.109375 -17.921875 
L 12.109375 -9.1875 
Q 16.0625 -11.328125 19.921875 -12.34375 
Q 23.78125 -13.375 27.78125 -13.375 
Q 36.625 -13.375 41.015625 -8.765625 
Q 45.40625 -4.15625 45.40625 5.171875 
L 45.40625 9.625 
Q 42.625 4.78125 38.28125 2.390625 
Q 33.9375 0 27.875 0 
Q 17.828125 0 11.671875 7.65625 
Q 5.515625 15.328125 5.515625 27.984375 
Q 5.515625 40.671875 11.671875 48.328125 
Q 17.828125 56 27.875 56 
Q 33.9375 56 38.28125 53.609375 
Q 42.625 51.21875 45.40625 46.390625 
L 45.40625 54.6875 
L 54.390625 54.6875 
z
" id="DejaVuSans-67"/>
      <path d="M 56.203125 29.59375 
L 56.203125 25.203125 
L 14.890625 25.203125 
Q 15.484375 15.921875 20.484375 11.0625 
Q 25.484375 6.203125 34.421875 6.203125 
Q 39.59375 6.203125 44.453125 7.46875 
Q 49.3125 8.734375 54.109375 11.28125 
L 54.109375 2.78125 
Q 49.265625 0.734375 44.1875 -0.34375 
Q 39.109375 -1.421875 33.890625 -1.421875 
Q 20.796875 -1.421875 13.15625 6.1875 
Q 5.515625 13.8125 5.515625 26.8125 
Q 5.515625 40.234375 12.765625 48.109375 
Q 20.015625 56 32.328125 56 
Q 43.359375 56 49.78125 48.890625 
Q 56.203125 41.796875 56.203125 29.59375 
z
M 47.21875 32.234375 
Q 47.125 39.59375 43.09375 43.984375 
Q 39.0625 48.390625 32.421875 48.390625 
Q 24.90625 48.390625 20.390625 44.140625 
Q 15.875 39.890625 15.1875 32.171875 
z
" id="DejaVuSans-65"/>
      <path d="M 32.171875 -5.078125 
Q 28.375 -14.84375 24.75 -17.8125 
Q 21.140625 -20.796875 15.09375 -20.796875 
L 7.90625 -20.796875 
L 7.90625 -13.28125 
L 13.1875 -13.28125 
Q 16.890625 -13.28125 18.9375 -11.515625 
Q 21 -9.765625 23.484375 -3.21875 
L 25.09375 0.875 
L 2.984375 54.6875 
L 12.5 54.6875 
L 29.59375 11.921875 
L 46.6875 54.6875 
L 56.203125 54.6875 
z
" id="DejaVuSans-79"/>
      <path d="M 41.109375 46.296875 
Q 39.59375 47.171875 37.8125 47.578125 
Q 36.03125 48 33.890625 48 
Q 26.265625 48 22.1875 43.046875 
Q 18.109375 38.09375 18.109375 28.8125 
L 18.109375 0 
L 9.078125 0 
L 9.078125 54.6875 
L 18.109375 54.6875 
L 18.109375 46.1875 
Q 20.953125 51.171875 25.484375 53.578125 
Q 30.03125 56 36.53125 56 
Q 37.453125 56 38.578125 55.875 
Q 39.703125 55.765625 41.0625 55.515625 
z
" id="DejaVuSans-72"/>
     </defs>
     <g transform="translate(12.771206 161.132908)rotate(-90)scale(0.12 -0.12)">
      <use xlink:href="#DejaVuSans-41"/>
      <use x="68.408203" xlink:href="#DejaVuSans-67"/>
      <use x="131.884766" xlink:href="#DejaVuSans-65"/>
      <use x="193.408203" xlink:href="#DejaVuSans-20"/>
      <use x="225.195312" xlink:href="#DejaVuSans-69"/>
      <use x="252.978516" xlink:href="#DejaVuSans-6e"/>
      <use x="316.357422" xlink:href="#DejaVuSans-20"/>
      <use x="348.144531" xlink:href="#DejaVuSans-79"/>
      <use x="407.324219" xlink:href="#DejaVuSans-65"/>
      <use x="468.847656" xlink:href="#DejaVuSans-61"/>
      <use x="530.126953" xlink:href="#DejaVuSans-72"/>
      <use x="571.240234" xlink:href="#DejaVuSans-73"/>
     </g>
    </g>
   </g>
   <g id="patch_215">
    <path d="M 45.354331 216.850394 
L 45.354331 30.614173 
" style="fill:none;stroke:#000000;stroke-linecap:square;stroke-linejoin:miter;stroke-width:0.8;"/>
   </g>
   <g id="patch_216">
    <path d="M 255.11811 216.850394 
L 255.11811 30.614173 
" style="fill:none;stroke:#000000;stroke-linecap:square;stroke-linejoin:miter;stroke-width:0.8;"/>
   </g>
   <g id="patch_217">
    <path d="M 45.354331 216.850394 
L 255.11811 216.850394 
" style="fill:none;stroke:#000000;stroke-linecap:square;stroke-linejoin:miter;stroke-width:0.8;"/>
   </g>
   <g id="patch_218">
    <path d="M 45.354331 30.614173 
L 255.11811 30.614173 
" style="fill:none;stroke:#000000;stroke-linecap:square;stroke-linejoin:miter;stroke-width:0.8;"/>
   </g>
   <g id="legend_1">
    <g id="patch_219">
     <path d="M 50.154331 44.532298 
L 74.154331 44.532298 
L 74.154331 36.132298 
L 50.154331 36.132298 
z
" style="fill:#490a3d;"/>
    </g>
    <g id="text_22">
     <!-- Women -->
     <defs>
      <path d="M 3.328125 72.90625 
L 13.28125 72.90625 
L 28.609375 11.28125 
L 43.890625 72.90625 
L 54.984375 72.90625 
L 70.3125 11.28125 
L 85.59375 72.90625 
L 95.609375 72.90625 
L 77.296875 0 
L 64.890625 0 
L 49.515625 63.28125 
L 33.984375 0 
L 21.578125 0 
z
" id="DejaVuSans-57"/>
      <path d="M 52 44.1875 
Q 55.375 50.25 60.0625 53.125 
Q 64.75 56 71.09375 56 
Q 79.640625 56 84.28125 50.015625 
Q 88.921875 44.046875 88.921875 33.015625 
L 88.921875 0 
L 79.890625 0 
L 79.890625 32.71875 
Q 79.890625 40.578125 77.09375 44.375 
Q 74.3125 48.1875 68.609375 48.1875 
Q 61.625 48.1875 57.5625 43.546875 
Q 53.515625 38.921875 53.515625 30.90625 
L 53.515625 0 
L 44.484375 0 
L 44.484375 32.71875 
Q 44.484375 40.625 41.703125 44.40625 
Q 38.921875 48.1875 33.109375 48.1875 
Q 26.21875 48.1875 22.15625 43.53125 
Q 18.109375 38.875 18.109375 30.90625 
L 18.109375 0 
L 9.078125 0 
L 9.078125 54.6875 
L 18.109375 54.6875 
L 18.109375 46.1875 
Q 21.1875 51.21875 25.484375 53.609375 
Q 29.78125 56 35.6875 56 
Q 41.65625 56 45.828125 52.96875 
Q 50 49.953125 52 44.1875 
z
" id="DejaVuSans-6d"/>
     </defs>
     <g transform="translate(83.754331 44.532298)scale(0.12 -0.12)">
      <use xlink:href="#DejaVuSans-57"/>
      <use x="98.798828" xlink:href="#DejaVuSans-6f"/>
      <use x="159.980469" xlink:href="#DejaVuSans-6d"/>
      <use x="257.392578" xlink:href="#DejaVuSans-65"/>
      <use x="318.916016" xlink:href="#DejaVuSans-6e"/>
     </g>
    </g>
    <g id="patch_220">
     <path d="M 191.37561 44.532298 
L 215.37561 44.532298 
L 215.37561 36.132298 
L 191.37561 36.132298 
z
" style="fill:#bd1550;"/>
    </g>
    <g id="text_23">
     <!-- Men -->
     <defs>
      <path d="M 9.8125 72.90625 
L 24.515625 72.90625 
L 43.109375 23.296875 
L 61.8125 72.90625 
L 76.515625 72.90625 
L 76.515625 0 
L 66.890625 0 
L 66.890625 64.015625 
L 48.09375 14.015625 
L 38.1875 14.015625 
L 19.390625 64.015625 
L 19.390625 0 
L 9.8125 0 
z
" id="DejaVuSans-4d"/>
     </defs>
     <g transform="translate(224.97561 44.532298)scale(0.12 -0.12)">
      <use xlink:href="#DejaVuSans-4d"/>
      <use x="86.279297" xlink:href="#DejaVuSans-65"/>
      <use x="147.802734" xlink:href="#DejaVuSans-6e"/>
     </g>
    </g>
   </g>
  </g>
 </g>
 <defs>
  <clipPath id="pe9c4f06d2c">
   <rect height="186.23622" width="209.76378" x="45.354331" y="30.614173"/>
  </clipPath>
 </defs>
</svg>
